<svg width="25" height="20" viewBox="0 0 25 20" fill="none" xmlns="http://www.w3.org/2000/svg">
<path d="M1.87429 3.73156C2.90943 3.73156 3.74857 2.90103 3.74857 1.87652C3.74857 0.852013 2.90943 0.0214844 1.87429 0.0214844C0.839147 0.0214844 0 0.852013 0 1.87652C0 2.90103 0.839147 3.73156 1.87429 3.73156Z" fill="#CAA96C"/>
<path d="M11.3658 0.59496C10.8601 0.777065 9.33786 1.69868 8.47753 2.38596L8.47609 2.38274C7.97507 2.79703 7.81747 3.4929 8.09256 4.07892C8.53284 5.01521 9.73622 5.29248 10.5593 4.65672C11.7067 3.76981 13.1508 3.24138 14.7203 3.24138C17.0186 3.24138 19.0491 4.37623 20.272 6.10927C20.5539 6.48958 20.7998 6.90388 21.0007 7.34966C24.048 14.1176 15.4469 20.2773 10.0887 14.8954C9.54788 14.3516 9.0888 13.7198 8.67888 13.0278L5.07562 5.1805C4.77487 4.52542 4.07865 4.14082 3.35786 4.23026C2.26907 4.36514 1.61045 5.48997 2.03302 6.4928L3.03216 8.8641C5.9345 15.1634 7.85325 20.5295 16.1337 19.9582C20.6548 19.6459 24.4265 15.7047 24.9337 11.3127C25.7766 4.01524 18.4418 -1.94592 11.3658 0.596749V0.595317V0.59496Z" fill="#1D5166"/>
<path d="M10.7444 12.7147L14.661 6.43445L18.5473 12.7147H16.5964C16.5953 12.6772 16.5801 12.645 16.5606 12.6135C15.9898 11.6969 15.4361 10.767 14.8562 9.85616C14.8205 9.79999 14.678 9.54776 14.6303 9.55921L12.6946 12.7144H10.7437H10.7444V12.7147Z" fill="#CAA96C"/>
<path d="M14.1505 6.40405L10.7446 11.888V6.40405H14.1505Z" fill="#1D5166"/>
</svg>
