<svg width="23" height="19" viewBox="0 0 23 19" fill="none" xmlns="http://www.w3.org/2000/svg">
<path d="M1.72437 3.54479C2.67671 3.54479 3.44873 2.7558 3.44873 1.78253C3.44873 0.809256 2.67671 0.0202637 1.72437 0.0202637C0.772025 0.0202637 0 0.809256 0 1.78253C0 2.7558 0.772025 3.54479 1.72437 3.54479Z" fill="#1B8354"/>
<path d="M10.4568 0.565407C9.9915 0.738404 8.59106 1.61393 7.79921 2.26683L7.79788 2.26377C7.33694 2.65735 7.19194 3.31841 7.44503 3.87513C7.85009 4.76493 8.95721 5.02799 9.71447 4.42403C10.77 3.58114 12.0987 3.07948 13.5427 3.07948C15.6571 3.07948 17.5252 4.15757 18.6502 5.80393C18.91 6.16522 19.1358 6.5588 19.3207 6.98229C22.1243 13.4121 14.2111 19.2634 9.28113 14.1506C8.78361 13.634 8.36125 13.0338 7.98412 12.3765L4.66908 4.92161C4.39238 4.2993 3.75186 3.93393 3.08872 4.0189C2.08702 4.14703 1.48108 5.21561 1.86986 6.16828L2.78907 8.42099C5.45926 14.4052 7.22487 19.5034 14.8427 18.9602C19.0024 18.6635 22.4721 14.9194 22.939 10.7468C23.7149 3.81463 16.9668 -1.8484 10.4568 0.566767V0.565407Z" fill="#1D5166"/>
<path d="M12.5184 13.2024C12.4981 13.2112 12.4705 13.2425 12.4319 13.234H9.35363C9.23723 13.2238 9.1368 13.1286 9.12383 13.009C9.16573 12.4509 8.95854 11.7151 9.48866 11.3443C9.5565 11.297 9.74706 11.2066 9.82422 11.2066H10.366C10.366 11.2066 10.3813 11.192 10.3813 11.191V10.9089C10.3813 10.8881 10.2762 10.8212 10.2582 10.8045C9.93995 10.5102 9.92099 10.1459 9.95126 9.72747C10.0268 8.68268 11.505 8.54401 11.7993 9.50111C11.8632 9.70809 11.8675 10.1537 11.8073 10.36C11.7435 10.5782 11.5985 10.7685 11.4139 10.8929V11.1961C11.5356 11.19 11.656 11.2025 11.7774 11.207C11.8396 11.2093 11.8991 11.1971 11.9686 11.209C12.1928 11.2474 12.3654 11.3541 12.4974 11.541C12.4588 11.6056 12.4884 11.6852 12.4748 11.7528C12.4678 11.7868 12.4335 11.816 12.4236 11.8466C12.399 11.9231 12.4242 12.0556 12.4159 12.1416C12.4063 12.2398 12.3777 12.2993 12.3853 12.4132C12.3946 12.5539 12.3896 12.6106 12.3847 12.7473C12.3797 12.8924 12.3471 13.1548 12.518 13.2024H12.5184Z" fill="#1B8354"/>
<path d="M14.9615 12.1678C16.3443 11.4047 16.9004 9.65404 16.2738 8.18169C16.3497 8.05967 16.4262 7.93732 16.5113 7.8221C16.5342 7.79117 16.6905 7.58656 16.7048 7.58113C16.7201 7.57501 16.7388 7.62089 16.7457 7.63313C17.4019 8.78293 17.2942 10.3939 16.6014 11.4985C15.8209 12.7435 14.3453 13.4301 12.9062 13.1816C12.9156 13.1585 12.9325 13.1388 12.9362 13.1133C12.9628 12.9359 12.9465 12.6973 12.9472 12.5131L13.4018 12.5552C13.9545 12.5668 14.4783 12.4349 14.9615 12.1681V12.1678Z" fill="#1B8354"/>
<path d="M10.5449 8.61538C10.2762 8.69695 9.97792 8.92841 9.84788 9.18297C9.81961 9.23871 9.80565 9.30941 9.76807 9.35733C9.79334 8.51002 10.079 7.66712 10.6111 7.0166C11.9071 5.43311 14.3203 5.17548 15.8664 6.52582C15.892 6.54825 16.0154 6.65565 16.0154 6.67706C16.0154 6.68556 16.011 6.69269 16.0054 6.69847L15.579 7.16207C15.4586 7.07302 15.3482 6.94013 15.2268 6.8555C15.1686 6.81471 15.1198 6.80791 15.0642 6.7763C14.0652 6.20973 12.9903 6.15569 11.9763 6.71853C11.2736 7.10836 10.7309 7.81803 10.5453 8.61538H10.5449Z" fill="#1B8354"/>
<path d="M14.7164 7.26743C14.7237 7.07166 14.9559 6.98397 15.1052 7.10531C15.2658 7.23582 15.4148 7.46082 15.5751 7.58623C15.5827 7.59235 15.5877 7.60493 15.6004 7.60187C15.7657 7.38876 15.9333 7.17702 16.1169 6.97989C16.4478 6.62472 16.8379 6.29368 17.2426 6.03028C17.3104 5.98609 17.515 5.84776 17.5788 5.83043C17.7235 5.79168 17.8522 5.94293 17.8243 6.09179C17.8166 6.13258 17.6088 6.26411 17.5599 6.30218C16.9193 6.7967 16.3919 7.44994 15.9595 8.13581C15.893 8.24118 15.7813 8.5056 15.6523 8.52191C15.5395 8.53619 15.4783 8.51002 15.4178 8.41621C15.3233 8.27041 15.2661 8.08823 15.1461 7.95738C15.1384 7.9013 15.0207 7.73714 14.9808 7.68208C14.9203 7.59847 14.735 7.40678 14.7191 7.32215C14.7157 7.30379 14.7161 7.28578 14.7167 7.26743H14.7164Z" fill="#1B8354"/>
<path d="M12.5185 13.2023C12.3475 13.1551 12.3801 12.8924 12.3851 12.7472C12.3898 12.6106 12.3951 12.5538 12.3858 12.4131C12.3781 12.2993 12.4067 12.2401 12.4164 12.1416C12.425 12.0556 12.3997 11.923 12.424 11.8466C12.4337 11.816 12.4682 11.7864 12.4752 11.7528C12.4889 11.6851 12.4596 11.6053 12.4978 11.541C12.7935 11.9584 12.6302 12.5318 12.6708 13.0185C12.6628 13.0776 12.6119 13.1585 12.5627 13.1904C12.5454 13.202 12.5284 13.1976 12.5181 13.202L12.5185 13.2023Z" fill="#1B8354"/>
<path d="M15.8585 9.26555C15.9316 9.25196 16.1239 9.25739 16.204 9.26283C16.2915 9.26861 16.3703 9.27609 16.4035 9.37261C16.4368 9.46914 16.3872 9.59693 16.2831 9.6163C16.208 9.63024 15.9788 9.62616 15.8967 9.61902C15.6629 9.59863 15.6706 9.3009 15.8585 9.26589V9.26555Z" fill="#1B8354"/>
<path d="M15.5274 10.5411C15.564 10.5098 15.6448 10.499 15.6907 10.5088C15.7266 10.5163 15.9644 10.6557 15.9997 10.6842C16.1247 10.7858 16.0432 11.0135 15.851 10.9721C15.7958 10.9602 15.5873 10.8385 15.5397 10.7991C15.4606 10.7335 15.4453 10.6115 15.5274 10.5411Z" fill="#1B8354"/>
<path d="M14.9618 11.6246C15.0284 11.7361 15.1315 11.8799 14.9874 11.9798C14.9682 11.9931 14.9113 12.0117 14.8903 12.0111C14.8797 12.0107 14.8272 11.9859 14.8152 11.9781C14.7783 11.9536 14.6126 11.7065 14.5947 11.66C14.5285 11.4887 14.748 11.335 14.875 11.4883C14.9003 11.5186 14.9406 11.5886 14.9618 11.6243V11.6246Z" fill="#1B8354"/>
<path d="M13.446 6.43371C13.5421 6.41808 13.6412 6.48095 13.6532 6.58258C13.6615 6.65361 13.6635 6.94455 13.6505 7.00878C13.6442 7.03971 13.597 7.09885 13.5707 7.11516C13.4669 7.18042 13.3193 7.11516 13.3053 6.99009C13.297 6.916 13.295 6.62132 13.3096 6.55573C13.3229 6.49761 13.3891 6.44255 13.4456 6.43337L13.446 6.43371Z" fill="#1B8354"/>
<path d="M11.0126 7.90675C11.0924 7.8935 11.2467 7.98526 11.3186 8.02809C11.4213 8.08995 11.5251 8.14603 11.4672 8.28775C11.4383 8.35811 11.3628 8.39822 11.2886 8.38258C11.2504 8.37476 10.9793 8.22182 10.9438 8.19191C10.8403 8.1049 10.8915 7.92647 11.0129 7.90641H11.0126V7.90675Z" fill="#1B8354"/>
<path d="M13.446 11.7419C13.5022 11.7331 13.5723 11.7545 13.6076 11.8018C13.6369 11.8408 13.6103 11.8405 13.6046 11.8731C13.573 12.0465 13.585 12.2358 13.57 12.4122C13.4786 12.4856 13.3196 12.42 13.3053 12.299C13.2963 12.2235 13.2957 11.9448 13.31 11.8748C13.3219 11.8174 13.3881 11.7511 13.446 11.7419Z" fill="#1B8354"/>
<path d="M12.025 6.88335C12.0889 6.87146 12.1341 6.88335 12.1764 6.93298C12.2123 6.9758 12.3363 7.17735 12.3569 7.22901C12.4264 7.40133 12.2276 7.54068 12.1005 7.41798C12.0819 7.39997 11.9123 7.13928 11.9 7.11073C11.8591 7.01692 11.9303 6.90103 12.025 6.88335Z" fill="#1B8354"/>
<path d="M14.5838 10.2916C14.3946 10.0677 14.1399 9.84572 13.9343 9.6282C13.9021 9.59421 13.8871 9.6146 13.8871 9.55003C13.8964 9.50924 13.8997 9.46845 13.8981 9.42835V9.42291C13.8981 9.24346 13.798 9.08779 13.652 9.01098C13.6284 8.54977 13.7052 8.05966 13.6184 7.61544C13.5339 7.5145 13.348 7.53421 13.3071 7.67152L13.3035 8.98277C13.1757 9.02559 13.0733 9.1245 13.0238 9.25127C12.8465 9.25297 12.3949 9.25705 12.3949 9.25705C12.219 9.3325 12.2229 9.56158 12.4049 9.62378C12.5751 9.66218 12.8558 9.60542 13.0434 9.63771C13.1192 9.78522 13.2705 9.88616 13.4448 9.88616C13.4973 9.88616 13.5476 9.87699 13.5945 9.86033C13.6098 9.85897 13.6231 9.85965 13.632 9.86373L14.353 10.59C14.5572 10.7005 14.7445 10.482 14.5838 10.2916Z" fill="#1B8354"/>
</svg>
