<svg width="28" height="24" viewBox="0 0 28 24" fill="none" xmlns="http://www.w3.org/2000/svg">
<g clip-path="url(#clip0_65_7078)">
<path d="M4.01064 5.47221C5.08523 5.47221 5.95635 4.59923 5.95635 3.52236C5.95635 2.44549 5.08523 1.57251 4.01064 1.57251C2.93606 1.57251 2.06494 2.44549 2.06494 3.52236C2.06494 4.59923 2.93606 5.47221 4.01064 5.47221Z" fill="#752DC9"/>
<path d="M13.8607 2.17669C13.3352 2.36773 11.7565 3.33609 10.8629 4.05848V4.0549H10.8617C10.3422 4.49072 10.1778 5.22146 10.4637 5.83758C10.9212 6.82146 12.1699 7.11281 13.023 6.44415C14.2133 5.51161 15.7122 4.95639 17.341 4.95639C19.7264 4.95639 21.8329 6.14922 23.1018 7.97012C23.3949 8.37012 23.6499 8.80475 23.8584 9.274C27.0207 16.3856 18.0952 22.8573 12.5345 17.2024C11.9733 16.6304 11.4967 15.9665 11.0714 15.2406L7.33248 6.9946C7.02031 6.30684 6.29827 5.90206 5.55001 5.99639C4.42048 6.13848 3.73657 7.32057 4.17503 8.3737L5.21163 10.8656C8.22372 17.4841 10.2147 23.1236 18.8077 22.523C23.4998 22.1946 27.4138 18.0537 27.9393 13.4388C28.8138 5.77072 21.2026 -0.491969 13.8595 2.17908V2.17669H13.8607Z" fill="#1D5166"/>
<path d="M17.7975 7.93312C17.9226 7.60476 17.944 7.05909 18.3837 7.05312C18.6339 7.04954 19.7313 7.47939 19.8743 7.67044C20.1495 8.0382 19.6288 8.38924 19.7158 8.70924C19.7301 8.76059 20.4033 9.45193 20.4557 9.47581C20.7762 9.61909 21.2695 8.94088 21.64 9.44118C21.6853 9.50208 22.094 10.4322 22.119 10.5266C22.3478 11.3922 21.4661 11.163 21.2981 11.4818C21.2337 11.6776 21.3434 11.8519 21.3422 12.0609C21.3422 12.2209 21.2469 12.3916 21.2635 12.5361C21.3052 12.8907 22.256 12.6567 22.1476 13.4173C22.1274 13.563 21.6424 14.7033 21.5626 14.7546C21.2373 14.966 20.8215 14.603 20.4962 14.5588L19.6717 15.3588C19.6038 15.514 20.1602 16.228 19.7932 16.523C19.7182 16.5827 18.4671 17.0675 18.3861 17.0627C17.9691 17.04 17.9595 16.3976 17.7391 16.1421L16.6203 16.1206C16.3868 16.1731 16.4297 17.1558 15.816 17.0507C15.7183 17.034 14.5126 16.4812 14.4697 16.4203C14.2016 16.0478 14.7461 15.6418 14.6829 15.3385C14.3898 15.2537 14.0884 14.6746 13.9299 14.5743C13.638 14.3904 13.0434 15.1355 12.6788 14.6077C12.5966 14.4895 12.1606 13.3397 12.1772 13.231C12.2297 12.8931 12.7658 12.7737 13.0399 12.6985C13.016 12.4454 13.1304 11.5033 12.9803 11.3779C12.7337 11.1713 12.101 11.2848 12.1772 10.7152C12.1951 10.5791 12.7241 9.35402 12.7908 9.31581C13.0339 9.17611 13.5915 9.44357 13.831 9.5582C13.9454 9.31342 14.5602 8.917 14.6496 8.757C14.7723 8.5373 14.2552 8.03103 14.4411 7.66566C14.4732 7.60238 15.4991 7.1379 15.6433 7.10088C16.4463 6.89551 16.2521 7.38865 16.581 7.90685L17.7975 7.93193V7.93312ZM17.9333 11.1498L18.9068 13.6119C19.0533 13.9451 19.3726 13.2931 19.437 13.151C20.3413 11.1391 18.5791 9.02208 16.4606 9.62387C14.9832 10.0442 14.2337 11.7552 14.8926 13.1415C14.9367 13.2334 15.2989 13.846 15.4276 13.7289L16.4463 11.1749L17.9345 11.1498H17.9333ZM17.2613 13.9331C17.1028 13.7875 16.9122 14.4776 16.8538 14.5457H17.4651L17.2613 13.9331Z" fill="#752DC9"/>
</g>
<defs>
<clipPath id="clip0_65_7078">
<rect width="28" height="24" fill="white"/>
</clipPath>
</defs>
</svg>
