<svg width="25" height="20" viewBox="0 0 25 20" fill="none" xmlns="http://www.w3.org/2000/svg">
<path d="M1.8129 3.6345C2.81414 3.6345 3.62581 2.82544 3.62581 1.82741C3.62581 0.829386 2.81414 0.0203247 1.8129 0.0203247C0.811664 0.0203247 0 0.829386 0 1.82741C0 2.82544 0.811664 3.6345 1.8129 3.6345Z" fill="#3B6DA7"/>
<path d="M10.992 0.579648C10.503 0.756679 9.03071 1.65466 8.19847 2.3243L8.19676 2.32088C7.712 2.72455 7.56014 3.40189 7.82611 3.97318C8.25167 4.8857 9.41594 5.15509 10.2121 4.53591C11.3215 3.67214 12.7183 3.15729 14.236 3.15729C16.4591 3.15729 18.4221 4.26224 19.6053 5.95045C19.8781 6.32076 20.1158 6.72443 20.3097 7.15888C23.2568 13.7509 14.9387 19.7503 9.75656 14.5087C9.23319 13.9793 8.78962 13.3635 8.39323 12.6896L4.909 5.04648C4.61814 4.40848 3.94463 4.0339 3.24796 4.12113C2.19522 4.25283 1.55774 5.34838 1.967 6.32504L2.93308 8.635C5.74037 14.7704 7.59618 19.9975 15.6037 19.4408C19.9759 19.1363 23.6232 15.298 24.1139 11.0202C24.929 3.91074 17.8353 -1.89537 10.992 0.581359V0.579648Z" fill="#243348"/>
<path d="M15.8557 13.9163V9.9481C15.9913 10.0045 16.4846 9.67443 16.5189 9.6864C16.6974 9.74883 16.9608 10.1551 17.0252 10.3321C17.0397 10.3714 17.1135 10.6118 17.1135 10.6271V11.9322L17.3512 11.5944C18.5549 9.50595 17.4481 6.82824 15.1307 6.19794C11.9631 5.33588 9.3437 8.67211 10.9138 11.5499L11.1763 11.9322V10.6271C11.1763 10.6118 11.2501 10.3714 11.2647 10.3321C11.3291 10.1551 11.5925 9.74883 11.7709 9.6864C11.8044 9.67443 12.2986 10.0045 12.4341 9.9481V13.9163C11.027 13.3647 9.9194 12.0109 9.68517 10.5117C9.05284 6.45879 13.6224 3.67332 16.9016 6.17314C19.6669 8.28212 19.062 12.6326 15.8566 13.9155L15.8557 13.9163Z" fill="#3B6DA7"/>
<path d="M13.8922 9.08554C13.9111 9.1035 14.0295 9.33013 14.0304 9.3652L13.8021 10.654C13.809 10.684 14.105 10.9799 14.135 10.9876C14.2311 11.0132 14.4199 10.7609 14.4894 10.6882L14.2611 9.3652L14.3993 9.0864L14.9587 8.83667C15.3156 9.07186 15.5044 9.47296 15.5438 9.89373L15.5395 14.0518C14.6138 14.3238 13.6786 14.3238 12.7528 14.0518L12.7485 9.89373C12.788 9.47296 12.9768 9.07271 13.3337 8.83667L13.8939 9.08554H13.8922Z" fill="#3B6DA7"/>
<path d="M13.9969 7.03234C15.2418 6.85702 15.3654 8.69746 14.196 8.76417C13.0952 8.82745 12.9433 7.18029 13.9969 7.03234Z" fill="#3B6DA7"/>
<path d="M12.9517 7.96899C12.908 8.12379 13.1662 8.49752 13.1164 8.58989C13.0941 8.63094 12.9594 8.70192 12.9045 8.7635C12.6977 8.9927 12.5356 9.2963 12.4661 9.59734C11.1542 9.36301 11.6888 7.48836 12.9526 7.96985L12.9517 7.96899Z" fill="#3B6DA7"/>
<path d="M15.8247 9.59609C15.7543 9.29505 15.5922 8.99145 15.3863 8.76225C15.3305 8.70067 15.1761 8.61686 15.1623 8.56469C15.1503 8.51851 15.291 8.22431 15.3176 8.13708C15.3691 7.9686 15.2988 7.92755 15.563 7.89505C16.759 7.7471 16.9778 9.43274 15.8247 9.59524V9.59609Z" fill="#3B6DA7"/>
</svg>
