<svg width="1442" height="990" viewBox="0 0 1442 990" fill="none" xmlns="http://www.w3.org/2000/svg">
<g clip-path="url(#clip0_119_1089)">
<g opacity="0.72">
<g filter="url(#filter0_f_119_1089)">
<path d="M220.876 264.879C147.65 338.105 23.7549 332.934 -55.8507 253.328C-135.456 173.722 -140.628 49.8276 -67.402 -23.3984C5.82403 -96.6245 129.719 -91.4528 209.324 -11.8471C288.93 67.7585 294.102 191.653 220.876 264.879Z" fill="#F05D2A"/>
</g>
<g opacity="0.3" filter="url(#filter1_f_119_1089)">
<path d="M124.946 151.646L183.846 95.6255L582.249 511.331L523.349 567.352L124.946 151.646Z" fill="url(#paint0_linear_119_1089)"/>
</g>
<g opacity="0.8" filter="url(#filter2_f_119_1089)">
<path d="M82.0266 196.879L138.559 138.473L551.305 539.961L494.772 598.367L82.0266 196.879Z" fill="url(#paint1_linear_119_1089)"/>
</g>
<g opacity="0.8" filter="url(#filter3_f_119_1089)">
<path d="M93.7031 196.839L367.956 471.092" stroke="url(#paint2_linear_119_1089)" stroke-width="2.43429"/>
</g>
<g opacity="0.8" filter="url(#filter4_f_119_1089)">
<path d="M186.844 130.917L461.097 405.171" stroke="url(#paint3_linear_119_1089)" stroke-width="2.43429"/>
</g>
<g opacity="0.8" filter="url(#filter5_f_119_1089)">
<path d="M191.887 216.587L397.204 421.904" stroke="url(#paint4_linear_119_1089)" stroke-width="0.608573"/>
</g>
</g>
<g opacity="0.3" filter="url(#filter6_f_119_1089)">
<g filter="url(#filter7_f_119_1089)">
<path d="M447.699 219.776C374.473 293.002 246.121 283.373 161.017 198.269C75.9133 113.165 66.2844 -15.1864 139.51 -88.4125C212.737 -161.639 341.088 -152.01 426.192 -66.9058C511.296 18.198 520.925 146.55 447.699 219.776Z" fill="#FBE414"/>
</g>
<g opacity="0.3" filter="url(#filter8_f_119_1089)">
<path d="M403.543 43.3979L344.544 99.3192L771.06 543.138L830.059 487.217L403.543 43.3979Z" fill="url(#paint5_linear_119_1089)"/>
</g>
<g opacity="0.8" filter="url(#filter9_f_119_1089)">
<path d="M301.706 144.632L358.174 86.1611L799.037 515.766L742.57 574.237L301.706 144.632Z" fill="url(#paint6_linear_119_1089)"/>
</g>
</g>
<g opacity="0.3" filter="url(#filter10_f_119_1089)">
<g filter="url(#filter11_f_119_1089)">
<path d="M647.682 176.446C574.456 249.672 458.127 252.066 387.854 181.793C317.581 111.521 319.975 -4.80836 393.201 -78.0344C466.428 -151.26 582.756 -153.654 653.029 -83.3816C723.302 -13.1086 720.908 103.22 647.682 176.446Z" fill="#F05D2A"/>
</g>
<g opacity="0.8" filter="url(#filter12_f_119_1089)">
<path d="M564.011 75.4736L622.742 19.2842L973.422 387.267L914.691 443.457L564.011 75.4736Z" fill="url(#paint7_linear_119_1089)"/>
</g>
<g opacity="0.8" filter="url(#filter13_f_119_1089)">
<path d="M520.958 120.571L577.6 62.2744L942.616 416.032L885.974 474.328L520.958 120.571Z" fill="url(#paint8_linear_119_1089)"/>
</g>
</g>
<g opacity="0.4" filter="url(#filter14_f_119_1089)">
<path d="M833.382 482.089C822.424 493.048 723.38 411.772 612.163 300.555C500.945 189.337 419.669 90.2937 430.628 79.3349C441.587 68.3761 540.631 149.652 651.848 260.869C763.065 372.087 844.341 471.13 833.382 482.089Z" fill="url(#paint9_linear_119_1089)"/>
</g>
<g opacity="0.4" filter="url(#filter15_f_119_1089)">
<path d="M614.587 442.403C603.629 453.362 504.585 372.086 393.368 260.869C282.15 149.652 200.874 50.6082 211.833 39.6493C222.792 28.6905 321.836 109.966 433.053 221.184C544.27 332.401 625.546 431.445 614.587 442.403Z" fill="url(#paint10_linear_119_1089)"/>
</g>
<g opacity="0.72">
<g filter="url(#filter16_f_119_1089)">
<path d="M1221.12 221.879C1294.35 295.105 1418.24 289.934 1497.85 210.328C1577.46 130.722 1582.63 6.82762 1509.4 -66.3984C1436.18 -139.625 1312.28 -134.453 1232.68 -54.8471C1153.07 24.7585 1147.9 148.653 1221.12 221.879Z" fill="#F05D2A"/>
</g>
<g opacity="0.3" filter="url(#filter17_f_119_1089)">
<path d="M1317.05 108.646L1258.15 52.6255L859.751 468.331L918.651 524.352L1317.05 108.646Z" fill="url(#paint11_linear_119_1089)"/>
</g>
<g opacity="0.8" filter="url(#filter18_f_119_1089)">
<path d="M1359.97 153.879L1303.44 95.4731L890.695 496.961L947.228 555.367L1359.97 153.879Z" fill="url(#paint12_linear_119_1089)"/>
</g>
<g opacity="0.8" filter="url(#filter19_f_119_1089)">
<path d="M1348.3 153.839L1074.04 428.092" stroke="url(#paint13_linear_119_1089)" stroke-width="2.43429"/>
</g>
<g opacity="0.8" filter="url(#filter20_f_119_1089)">
<path d="M1255.16 87.9175L980.903 362.171" stroke="url(#paint14_linear_119_1089)" stroke-width="2.43429"/>
</g>
<g opacity="0.8" filter="url(#filter21_f_119_1089)">
<path d="M1250.11 173.587L1044.8 378.904" stroke="url(#paint15_linear_119_1089)" stroke-width="0.608573"/>
</g>
</g>
<g opacity="0.3" filter="url(#filter22_f_119_1089)">
<g filter="url(#filter23_f_119_1089)">
<path d="M994.301 176.776C1067.53 250.002 1195.88 240.373 1280.98 155.269C1366.09 70.1653 1375.72 -58.1864 1302.49 -131.412C1229.26 -204.639 1100.91 -195.01 1015.81 -109.906C930.704 -24.802 921.075 103.55 994.301 176.776Z" fill="#FBE414"/>
</g>
<g opacity="0.3" filter="url(#filter24_f_119_1089)">
<path d="M1038.46 0.397949L1097.46 56.3192L670.94 500.138L611.941 444.217L1038.46 0.397949Z" fill="url(#paint16_linear_119_1089)"/>
</g>
<g opacity="0.8" filter="url(#filter25_f_119_1089)">
<path d="M1140.29 101.632L1083.83 43.1611L642.962 472.766L699.43 531.237L1140.29 101.632Z" fill="url(#paint17_linear_119_1089)"/>
</g>
</g>
<g opacity="0.3" filter="url(#filter26_f_119_1089)">
<g filter="url(#filter27_f_119_1089)">
<path d="M794.318 133.446C867.544 206.672 983.873 209.066 1054.15 138.793C1124.42 68.5205 1122.02 -47.8084 1048.8 -121.034C975.572 -194.26 859.243 -196.654 788.971 -126.382C718.698 -56.1086 721.092 60.2203 794.318 133.446Z" fill="#F05D2A"/>
</g>
<g opacity="0.8" filter="url(#filter28_f_119_1089)">
<path d="M877.989 32.4736L819.258 -23.7158L468.578 344.267L527.309 400.457L877.989 32.4736Z" fill="url(#paint18_linear_119_1089)"/>
</g>
<g opacity="0.8" filter="url(#filter29_f_119_1089)">
<path d="M921.042 77.5705L864.4 19.2744L499.384 373.032L556.026 431.328L921.042 77.5705Z" fill="url(#paint19_linear_119_1089)"/>
</g>
</g>
<g opacity="0.4" filter="url(#filter30_f_119_1089)">
<path d="M608.618 439.089C619.576 450.048 718.62 368.772 829.837 257.555C941.055 146.337 1022.33 47.2937 1011.37 36.3349C1000.41 25.3761 901.369 106.652 790.152 217.869C678.935 329.087 597.659 428.13 608.618 439.089Z" fill="url(#paint20_linear_119_1089)"/>
</g>
<g opacity="0.4" filter="url(#filter31_f_119_1089)">
<path d="M827.413 399.403C838.371 410.362 937.415 329.086 1048.63 217.869C1159.85 106.652 1241.13 7.60816 1230.17 -3.35066C1219.21 -14.3095 1120.16 66.9662 1008.95 178.184C897.73 289.401 816.454 388.445 827.413 399.403Z" fill="url(#paint21_linear_119_1089)"/>
</g>
</g>
<defs>
<filter id="filter0_f_119_1089" x="-240.824" y="-196.821" width="635.122" height="635.122" filterUnits="userSpaceOnUse" color-interpolation-filters="sRGB">
<feFlood flood-opacity="0" result="BackgroundImageFix"/>
<feBlend mode="normal" in="SourceGraphic" in2="BackgroundImageFix" result="shape"/>
<feGaussianBlur stdDeviation="60.8573" result="effect1_foregroundBlur_119_1089"/>
</filter>
<filter id="filter1_f_119_1089" x="110.888" y="81.5674" width="485.419" height="499.842" filterUnits="userSpaceOnUse" color-interpolation-filters="sRGB">
<feFlood flood-opacity="0" result="BackgroundImageFix"/>
<feBlend mode="normal" in="SourceGraphic" in2="BackgroundImageFix" result="shape"/>
<feGaussianBlur stdDeviation="7.02902" result="effect1_foregroundBlur_119_1089"/>
</filter>
<filter id="filter2_f_119_1089" x="57.1968" y="113.643" width="518.938" height="509.553" filterUnits="userSpaceOnUse" color-interpolation-filters="sRGB">
<feFlood flood-opacity="0" result="BackgroundImageFix"/>
<feBlend mode="normal" in="SourceGraphic" in2="BackgroundImageFix" result="shape"/>
<feGaussianBlur stdDeviation="12.4149" result="effect1_foregroundBlur_119_1089"/>
</filter>
<filter id="filter3_f_119_1089" x="80.9919" y="184.128" width="299.675" height="299.675" filterUnits="userSpaceOnUse" color-interpolation-filters="sRGB">
<feFlood flood-opacity="0" result="BackgroundImageFix"/>
<feBlend mode="normal" in="SourceGraphic" in2="BackgroundImageFix" result="shape"/>
<feGaussianBlur stdDeviation="5.92528" result="effect1_foregroundBlur_119_1089"/>
</filter>
<filter id="filter4_f_119_1089" x="174.133" y="118.206" width="299.675" height="299.676" filterUnits="userSpaceOnUse" color-interpolation-filters="sRGB">
<feFlood flood-opacity="0" result="BackgroundImageFix"/>
<feBlend mode="normal" in="SourceGraphic" in2="BackgroundImageFix" result="shape"/>
<feGaussianBlur stdDeviation="5.92528" result="effect1_foregroundBlur_119_1089"/>
</filter>
<filter id="filter5_f_119_1089" x="179.821" y="204.521" width="229.448" height="229.448" filterUnits="userSpaceOnUse" color-interpolation-filters="sRGB">
<feFlood flood-opacity="0" result="BackgroundImageFix"/>
<feBlend mode="normal" in="SourceGraphic" in2="BackgroundImageFix" result="shape"/>
<feGaussianBlur stdDeviation="5.92528" result="effect1_foregroundBlur_119_1089"/>
</filter>
<filter id="filter6_f_119_1089" x="75.6645" y="-152.258" width="769.047" height="741.148" filterUnits="userSpaceOnUse" color-interpolation-filters="sRGB">
<feFlood flood-opacity="0" result="BackgroundImageFix"/>
<feBlend mode="normal" in="SourceGraphic" in2="BackgroundImageFix" result="shape"/>
<feGaussianBlur stdDeviation="7.32622" result="effect1_foregroundBlur_119_1089"/>
</filter>
<filter id="filter7_f_119_1089" x="-31.3977" y="-259.321" width="650.005" height="650.005" filterUnits="userSpaceOnUse" color-interpolation-filters="sRGB">
<feFlood flood-opacity="0" result="BackgroundImageFix"/>
<feBlend mode="normal" in="SourceGraphic" in2="BackgroundImageFix" result="shape"/>
<feGaussianBlur stdDeviation="60.8573" result="effect1_foregroundBlur_119_1089"/>
</filter>
<filter id="filter8_f_119_1089" x="330.764" y="29.6182" width="513.074" height="527.299" filterUnits="userSpaceOnUse" color-interpolation-filters="sRGB">
<feFlood flood-opacity="0" result="BackgroundImageFix"/>
<feBlend mode="normal" in="SourceGraphic" in2="BackgroundImageFix" result="shape"/>
<feGaussianBlur stdDeviation="6.88986" result="effect1_foregroundBlur_119_1089"/>
</filter>
<filter id="filter9_f_119_1089" x="275.984" y="60.4389" width="548.776" height="539.52" filterUnits="userSpaceOnUse" color-interpolation-filters="sRGB">
<feFlood flood-opacity="0" result="BackgroundImageFix"/>
<feBlend mode="normal" in="SourceGraphic" in2="BackgroundImageFix" result="shape"/>
<feGaussianBlur stdDeviation="12.8611" result="effect1_foregroundBlur_119_1089"/>
</filter>
<filter id="filter10_f_119_1089" x="322.024" y="-149.212" width="666.05" height="638.192" filterUnits="userSpaceOnUse" color-interpolation-filters="sRGB">
<feFlood flood-opacity="0" result="BackgroundImageFix"/>
<feBlend mode="normal" in="SourceGraphic" in2="BackgroundImageFix" result="shape"/>
<feGaussianBlur stdDeviation="7.32622" result="effect1_foregroundBlur_119_1089"/>
</filter>
<filter id="filter11_f_119_1089" x="216.334" y="-254.902" width="608.216" height="608.217" filterUnits="userSpaceOnUse" color-interpolation-filters="sRGB">
<feFlood flood-opacity="0" result="BackgroundImageFix"/>
<feBlend mode="normal" in="SourceGraphic" in2="BackgroundImageFix" result="shape"/>
<feGaussianBlur stdDeviation="60.1715" result="effect1_foregroundBlur_119_1089"/>
</filter>
<filter id="filter12_f_119_1089" x="527.265" y="-17.4618" width="482.903" height="497.665" filterUnits="userSpaceOnUse" color-interpolation-filters="sRGB">
<feFlood flood-opacity="0" result="BackgroundImageFix"/>
<feBlend mode="normal" in="SourceGraphic" in2="BackgroundImageFix" result="shape"/>
<feGaussianBlur stdDeviation="18.373" result="effect1_foregroundBlur_119_1089"/>
</filter>
<filter id="filter13_f_119_1089" x="484.212" y="25.5284" width="495.15" height="485.546" filterUnits="userSpaceOnUse" color-interpolation-filters="sRGB">
<feFlood flood-opacity="0" result="BackgroundImageFix"/>
<feBlend mode="normal" in="SourceGraphic" in2="BackgroundImageFix" result="shape"/>
<feGaussianBlur stdDeviation="18.373" result="effect1_foregroundBlur_119_1089"/>
</filter>
<filter id="filter14_f_119_1089" x="383.706" y="32.4124" width="496.599" height="496.599" filterUnits="userSpaceOnUse" color-interpolation-filters="sRGB">
<feFlood flood-opacity="0" result="BackgroundImageFix"/>
<feBlend mode="normal" in="SourceGraphic" in2="BackgroundImageFix" result="shape"/>
<feGaussianBlur stdDeviation="22.9662" result="effect1_foregroundBlur_119_1089"/>
</filter>
<filter id="filter15_f_119_1089" x="189.714" y="17.5303" width="446.992" height="446.992" filterUnits="userSpaceOnUse" color-interpolation-filters="sRGB">
<feFlood flood-opacity="0" result="BackgroundImageFix"/>
<feBlend mode="normal" in="SourceGraphic" in2="BackgroundImageFix" result="shape"/>
<feGaussianBlur stdDeviation="10.5645" result="effect1_foregroundBlur_119_1089"/>
</filter>
<filter id="filter16_f_119_1089" x="1047.7" y="-239.821" width="635.122" height="635.122" filterUnits="userSpaceOnUse" color-interpolation-filters="sRGB">
<feFlood flood-opacity="0" result="BackgroundImageFix"/>
<feBlend mode="normal" in="SourceGraphic" in2="BackgroundImageFix" result="shape"/>
<feGaussianBlur stdDeviation="60.8573" result="effect1_foregroundBlur_119_1089"/>
</filter>
<filter id="filter17_f_119_1089" x="845.693" y="38.5674" width="485.419" height="499.842" filterUnits="userSpaceOnUse" color-interpolation-filters="sRGB">
<feFlood flood-opacity="0" result="BackgroundImageFix"/>
<feBlend mode="normal" in="SourceGraphic" in2="BackgroundImageFix" result="shape"/>
<feGaussianBlur stdDeviation="7.02902" result="effect1_foregroundBlur_119_1089"/>
</filter>
<filter id="filter18_f_119_1089" x="865.866" y="70.6433" width="518.938" height="509.553" filterUnits="userSpaceOnUse" color-interpolation-filters="sRGB">
<feFlood flood-opacity="0" result="BackgroundImageFix"/>
<feBlend mode="normal" in="SourceGraphic" in2="BackgroundImageFix" result="shape"/>
<feGaussianBlur stdDeviation="12.4149" result="effect1_foregroundBlur_119_1089"/>
</filter>
<filter id="filter19_f_119_1089" x="1061.33" y="141.128" width="299.675" height="299.675" filterUnits="userSpaceOnUse" color-interpolation-filters="sRGB">
<feFlood flood-opacity="0" result="BackgroundImageFix"/>
<feBlend mode="normal" in="SourceGraphic" in2="BackgroundImageFix" result="shape"/>
<feGaussianBlur stdDeviation="5.92528" result="effect1_foregroundBlur_119_1089"/>
</filter>
<filter id="filter20_f_119_1089" x="968.192" y="75.2063" width="299.675" height="299.676" filterUnits="userSpaceOnUse" color-interpolation-filters="sRGB">
<feFlood flood-opacity="0" result="BackgroundImageFix"/>
<feBlend mode="normal" in="SourceGraphic" in2="BackgroundImageFix" result="shape"/>
<feGaussianBlur stdDeviation="5.92528" result="effect1_foregroundBlur_119_1089"/>
</filter>
<filter id="filter21_f_119_1089" x="1032.73" y="161.521" width="229.449" height="229.448" filterUnits="userSpaceOnUse" color-interpolation-filters="sRGB">
<feFlood flood-opacity="0" result="BackgroundImageFix"/>
<feBlend mode="normal" in="SourceGraphic" in2="BackgroundImageFix" result="shape"/>
<feGaussianBlur stdDeviation="5.92528" result="effect1_foregroundBlur_119_1089"/>
</filter>
<filter id="filter22_f_119_1089" x="597.289" y="-195.258" width="769.047" height="741.148" filterUnits="userSpaceOnUse" color-interpolation-filters="sRGB">
<feFlood flood-opacity="0" result="BackgroundImageFix"/>
<feBlend mode="normal" in="SourceGraphic" in2="BackgroundImageFix" result="shape"/>
<feGaussianBlur stdDeviation="7.32622" result="effect1_foregroundBlur_119_1089"/>
</filter>
<filter id="filter23_f_119_1089" x="823.393" y="-302.321" width="650.005" height="650.005" filterUnits="userSpaceOnUse" color-interpolation-filters="sRGB">
<feFlood flood-opacity="0" result="BackgroundImageFix"/>
<feBlend mode="normal" in="SourceGraphic" in2="BackgroundImageFix" result="shape"/>
<feGaussianBlur stdDeviation="60.8573" result="effect1_foregroundBlur_119_1089"/>
</filter>
<filter id="filter24_f_119_1089" x="598.161" y="-13.3818" width="513.074" height="527.299" filterUnits="userSpaceOnUse" color-interpolation-filters="sRGB">
<feFlood flood-opacity="0" result="BackgroundImageFix"/>
<feBlend mode="normal" in="SourceGraphic" in2="BackgroundImageFix" result="shape"/>
<feGaussianBlur stdDeviation="6.88986" result="effect1_foregroundBlur_119_1089"/>
</filter>
<filter id="filter25_f_119_1089" x="617.24" y="17.4389" width="548.776" height="539.52" filterUnits="userSpaceOnUse" color-interpolation-filters="sRGB">
<feFlood flood-opacity="0" result="BackgroundImageFix"/>
<feBlend mode="normal" in="SourceGraphic" in2="BackgroundImageFix" result="shape"/>
<feGaussianBlur stdDeviation="12.8611" result="effect1_foregroundBlur_119_1089"/>
</filter>
<filter id="filter26_f_119_1089" x="453.925" y="-192.212" width="666.05" height="638.192" filterUnits="userSpaceOnUse" color-interpolation-filters="sRGB">
<feFlood flood-opacity="0" result="BackgroundImageFix"/>
<feBlend mode="normal" in="SourceGraphic" in2="BackgroundImageFix" result="shape"/>
<feGaussianBlur stdDeviation="7.32622" result="effect1_foregroundBlur_119_1089"/>
</filter>
<filter id="filter27_f_119_1089" x="617.45" y="-297.902" width="608.216" height="608.217" filterUnits="userSpaceOnUse" color-interpolation-filters="sRGB">
<feFlood flood-opacity="0" result="BackgroundImageFix"/>
<feBlend mode="normal" in="SourceGraphic" in2="BackgroundImageFix" result="shape"/>
<feGaussianBlur stdDeviation="60.1715" result="effect1_foregroundBlur_119_1089"/>
</filter>
<filter id="filter28_f_119_1089" x="431.832" y="-60.4618" width="482.903" height="497.665" filterUnits="userSpaceOnUse" color-interpolation-filters="sRGB">
<feFlood flood-opacity="0" result="BackgroundImageFix"/>
<feBlend mode="normal" in="SourceGraphic" in2="BackgroundImageFix" result="shape"/>
<feGaussianBlur stdDeviation="18.373" result="effect1_foregroundBlur_119_1089"/>
</filter>
<filter id="filter29_f_119_1089" x="462.638" y="-17.4716" width="495.15" height="485.546" filterUnits="userSpaceOnUse" color-interpolation-filters="sRGB">
<feFlood flood-opacity="0" result="BackgroundImageFix"/>
<feBlend mode="normal" in="SourceGraphic" in2="BackgroundImageFix" result="shape"/>
<feGaussianBlur stdDeviation="18.373" result="effect1_foregroundBlur_119_1089"/>
</filter>
<filter id="filter30_f_119_1089" x="561.695" y="-10.5876" width="496.599" height="496.599" filterUnits="userSpaceOnUse" color-interpolation-filters="sRGB">
<feFlood flood-opacity="0" result="BackgroundImageFix"/>
<feBlend mode="normal" in="SourceGraphic" in2="BackgroundImageFix" result="shape"/>
<feGaussianBlur stdDeviation="22.9662" result="effect1_foregroundBlur_119_1089"/>
</filter>
<filter id="filter31_f_119_1089" x="805.294" y="-25.4697" width="446.992" height="446.992" filterUnits="userSpaceOnUse" color-interpolation-filters="sRGB">
<feFlood flood-opacity="0" result="BackgroundImageFix"/>
<feBlend mode="normal" in="SourceGraphic" in2="BackgroundImageFix" result="shape"/>
<feGaussianBlur stdDeviation="10.5645" result="effect1_foregroundBlur_119_1089"/>
</filter>
<linearGradient id="paint0_linear_119_1089" x1="145.687" y1="131.919" x2="542.505" y2="549.132" gradientUnits="userSpaceOnUse">
<stop stop-color="#F05D2A"/>
<stop offset="0.8" stop-color="#FB6514" stop-opacity="0"/>
</linearGradient>
<linearGradient id="paint1_linear_119_1089" x1="110.293" y1="167.676" x2="524.029" y2="568.141" gradientUnits="userSpaceOnUse">
<stop stop-color="#F05D2A"/>
<stop offset="0.88" stop-color="#FB6514" stop-opacity="0"/>
</linearGradient>
<linearGradient id="paint2_linear_119_1089" x1="93.3496" y1="197.193" x2="367.603" y2="471.446" gradientUnits="userSpaceOnUse">
<stop stop-color="#F05D2A"/>
<stop offset="0.796199" stop-color="#FB6514" stop-opacity="0"/>
</linearGradient>
<linearGradient id="paint3_linear_119_1089" x1="186.49" y1="131.271" x2="460.743" y2="405.524" gradientUnits="userSpaceOnUse">
<stop stop-color="#F05D2A"/>
<stop offset="0.796199" stop-color="#FB6514" stop-opacity="0"/>
</linearGradient>
<linearGradient id="paint4_linear_119_1089" x1="191.533" y1="216.94" x2="396.85" y2="422.258" gradientUnits="userSpaceOnUse">
<stop stop-color="#F05D2A"/>
<stop offset="0.796199" stop-color="#FB6514" stop-opacity="0"/>
</linearGradient>
<linearGradient id="paint5_linear_119_1089" x1="374.043" y1="71.3586" x2="797.477" y2="518.1" gradientUnits="userSpaceOnUse">
<stop stop-color="#FBE414"/>
<stop offset="0.88" stop-color="#FBE414" stop-opacity="0"/>
</linearGradient>
<linearGradient id="paint6_linear_119_1089" x1="329.94" y1="115.396" x2="772.724" y2="543.013" gradientUnits="userSpaceOnUse">
<stop stop-color="#FBE414"/>
<stop offset="0.88" stop-color="#FBE414" stop-opacity="0"/>
</linearGradient>
<linearGradient id="paint7_linear_119_1089" x1="449.367" y1="-88.3318" x2="940.157" y2="419.133" gradientUnits="userSpaceOnUse">
<stop stop-color="#FBE414"/>
<stop offset="0.802306" stop-color="#FBE414" stop-opacity="0"/>
</linearGradient>
<linearGradient id="paint8_linear_119_1089" x1="399.97" y1="-38.4822" x2="908.955" y2="450.736" gradientUnits="userSpaceOnUse">
<stop stop-color="#FBE414"/>
<stop offset="0.802306" stop-color="#FBE414" stop-opacity="0"/>
</linearGradient>
<linearGradient id="paint9_linear_119_1089" x1="268.866" y1="-72.0505" x2="833.108" y2="482.366" gradientUnits="userSpaceOnUse">
<stop stop-color="#F05D2A"/>
<stop offset="0.802306" stop-color="#FBE414" stop-opacity="0"/>
</linearGradient>
<linearGradient id="paint10_linear_119_1089" x1="50.0706" y1="-111.736" x2="614.313" y2="442.681" gradientUnits="userSpaceOnUse">
<stop stop-color="#F05D2A"/>
<stop offset="0.802306" stop-color="#FB6514" stop-opacity="0"/>
</linearGradient>
<linearGradient id="paint11_linear_119_1089" x1="1296.31" y1="88.919" x2="899.495" y2="506.132" gradientUnits="userSpaceOnUse">
<stop stop-color="#F05D2A"/>
<stop offset="0.8" stop-color="#FB6514" stop-opacity="0"/>
</linearGradient>
<linearGradient id="paint12_linear_119_1089" x1="1331.71" y1="124.676" x2="917.972" y2="525.141" gradientUnits="userSpaceOnUse">
<stop stop-color="#F05D2A"/>
<stop offset="0.88" stop-color="#FB6514" stop-opacity="0"/>
</linearGradient>
<linearGradient id="paint13_linear_119_1089" x1="1348.65" y1="154.193" x2="1074.4" y2="428.446" gradientUnits="userSpaceOnUse">
<stop stop-color="#F05D2A"/>
<stop offset="0.796199" stop-color="#FB6514" stop-opacity="0"/>
</linearGradient>
<linearGradient id="paint14_linear_119_1089" x1="1255.51" y1="88.271" x2="981.257" y2="362.524" gradientUnits="userSpaceOnUse">
<stop stop-color="#F05D2A"/>
<stop offset="0.796199" stop-color="#FB6514" stop-opacity="0"/>
</linearGradient>
<linearGradient id="paint15_linear_119_1089" x1="1250.47" y1="173.94" x2="1045.15" y2="379.258" gradientUnits="userSpaceOnUse">
<stop stop-color="#F05D2A"/>
<stop offset="0.796199" stop-color="#FB6514" stop-opacity="0"/>
</linearGradient>
<linearGradient id="paint16_linear_119_1089" x1="1067.96" y1="28.3586" x2="644.523" y2="475.1" gradientUnits="userSpaceOnUse">
<stop stop-color="#FBE414"/>
<stop offset="0.88" stop-color="#FBE414" stop-opacity="0"/>
</linearGradient>
<linearGradient id="paint17_linear_119_1089" x1="1112.06" y1="72.3964" x2="669.276" y2="500.013" gradientUnits="userSpaceOnUse">
<stop stop-color="#FBE414"/>
<stop offset="0.88" stop-color="#FBE414" stop-opacity="0"/>
</linearGradient>
<linearGradient id="paint18_linear_119_1089" x1="992.633" y1="-131.332" x2="501.842" y2="376.133" gradientUnits="userSpaceOnUse">
<stop stop-color="#FBE414"/>
<stop offset="0.802306" stop-color="#FBE414" stop-opacity="0"/>
</linearGradient>
<linearGradient id="paint19_linear_119_1089" x1="1042.03" y1="-81.4822" x2="533.045" y2="407.736" gradientUnits="userSpaceOnUse">
<stop stop-color="#FBE414"/>
<stop offset="0.802306" stop-color="#FBE414" stop-opacity="0"/>
</linearGradient>
<linearGradient id="paint20_linear_119_1089" x1="1173.13" y1="-115.05" x2="608.892" y2="439.366" gradientUnits="userSpaceOnUse">
<stop stop-color="#F05D2A"/>
<stop offset="0.802306" stop-color="#FBE414" stop-opacity="0"/>
</linearGradient>
<linearGradient id="paint21_linear_119_1089" x1="1391.93" y1="-154.736" x2="827.687" y2="399.681" gradientUnits="userSpaceOnUse">
<stop stop-color="#F05D2A"/>
<stop offset="0.802306" stop-color="#FB6514" stop-opacity="0"/>
</linearGradient>
<clipPath id="clip0_119_1089">
<rect width="1442" height="990" fill="white"/>
</clipPath>
</defs>
</svg>
