<svg width="1046" height="1013" viewBox="0 0 1046 1013" fill="none" xmlns="http://www.w3.org/2000/svg">
<g opacity="0.72">
<g filter="url(#filter0_f_65_2944)">
<path d="M217.876 287.879C144.65 361.105 20.7549 355.934 -58.8507 276.328C-138.456 196.722 -143.628 72.8276 -70.402 -0.398476C2.82403 -73.6245 126.719 -68.4528 206.324 11.1528C285.93 90.7585 291.102 214.653 217.876 287.879Z" fill="#F05D2A"/>
</g>
<g opacity="0.3" filter="url(#filter1_f_65_2944)">
<path d="M121.946 174.646L180.846 118.626L579.249 534.331L520.349 590.352L121.946 174.646Z" fill="url(#paint0_linear_65_2944)"/>
</g>
<g opacity="0.8" filter="url(#filter2_f_65_2944)">
<path d="M79.0266 219.879L135.559 161.473L548.305 562.961L491.772 621.366L79.0266 219.879Z" fill="url(#paint1_linear_65_2944)"/>
</g>
<g opacity="0.8" filter="url(#filter3_f_65_2944)">
<path d="M90.7031 219.839L364.956 494.092" stroke="url(#paint2_linear_65_2944)" stroke-width="2.43429"/>
</g>
<g opacity="0.8" filter="url(#filter4_f_65_2944)">
<path d="M183.844 153.918L458.097 428.171" stroke="url(#paint3_linear_65_2944)" stroke-width="2.43429"/>
</g>
<g opacity="0.8" filter="url(#filter5_f_65_2944)">
<path d="M188.887 239.587L394.204 444.904" stroke="url(#paint4_linear_65_2944)" stroke-width="0.608573"/>
</g>
</g>
<g opacity="0.3" filter="url(#filter6_f_65_2944)">
<g filter="url(#filter7_f_65_2944)">
<path d="M444.699 242.776C371.473 316.002 243.121 306.373 158.017 221.269C72.9133 136.165 63.2844 7.81358 136.51 -65.4125C209.737 -138.639 338.088 -129.01 423.192 -43.9058C508.296 41.198 517.925 169.55 444.699 242.776Z" fill="#FBE414"/>
</g>
<g opacity="0.3" filter="url(#filter8_f_65_2944)">
<path d="M400.543 66.3979L341.544 122.319L768.06 566.138L827.059 510.217L400.543 66.3979Z" fill="url(#paint5_linear_65_2944)"/>
</g>
<g opacity="0.8" filter="url(#filter9_f_65_2944)">
<path d="M298.706 167.632L355.174 109.161L796.037 538.766L739.57 597.237L298.706 167.632Z" fill="url(#paint6_linear_65_2944)"/>
</g>
</g>
<g opacity="0.3" filter="url(#filter10_f_65_2944)">
<g filter="url(#filter11_f_65_2944)">
<path d="M644.682 199.446C571.456 272.672 455.127 275.066 384.854 204.793C314.581 134.52 316.975 18.1916 390.201 -55.0345C463.428 -128.261 579.756 -130.655 650.029 -60.3816C720.302 9.89131 717.908 126.22 644.682 199.446Z" fill="#F05D2A"/>
</g>
<g opacity="0.8" filter="url(#filter12_f_65_2944)">
<path d="M561.011 98.4736L619.742 42.2842L970.422 410.268L911.691 466.457L561.011 98.4736Z" fill="url(#paint7_linear_65_2944)"/>
</g>
<g opacity="0.8" filter="url(#filter13_f_65_2944)">
<path d="M517.958 143.57L574.6 85.2744L939.616 439.032L882.974 497.328L517.958 143.57Z" fill="url(#paint8_linear_65_2944)"/>
</g>
</g>
<g opacity="0.4" filter="url(#filter14_f_65_2944)">
<path d="M830.382 505.089C819.424 516.048 720.38 434.772 609.163 323.555C497.945 212.337 416.669 113.294 427.628 102.335C438.587 91.3761 537.631 172.652 648.848 283.869C760.065 395.087 841.341 494.13 830.382 505.089Z" fill="url(#paint9_linear_65_2944)"/>
</g>
<g opacity="0.4" filter="url(#filter15_f_65_2944)">
<path d="M611.587 465.403C600.629 476.362 501.585 395.086 390.368 283.869C279.15 172.652 197.874 73.6081 208.833 62.6493C219.792 51.6905 318.836 132.966 430.053 244.184C541.27 355.401 622.546 454.445 611.587 465.403Z" fill="url(#paint10_linear_65_2944)"/>
</g>
<defs>
<filter id="filter0_f_65_2944" x="-243.824" y="-173.821" width="635.122" height="635.122" filterUnits="userSpaceOnUse" color-interpolation-filters="sRGB">
<feFlood flood-opacity="0" result="BackgroundImageFix"/>
<feBlend mode="normal" in="SourceGraphic" in2="BackgroundImageFix" result="shape"/>
<feGaussianBlur stdDeviation="60.8573" result="effect1_foregroundBlur_65_2944"/>
</filter>
<filter id="filter1_f_65_2944" x="107.888" y="104.567" width="485.419" height="499.842" filterUnits="userSpaceOnUse" color-interpolation-filters="sRGB">
<feFlood flood-opacity="0" result="BackgroundImageFix"/>
<feBlend mode="normal" in="SourceGraphic" in2="BackgroundImageFix" result="shape"/>
<feGaussianBlur stdDeviation="7.02902" result="effect1_foregroundBlur_65_2944"/>
</filter>
<filter id="filter2_f_65_2944" x="54.1968" y="136.643" width="518.938" height="509.553" filterUnits="userSpaceOnUse" color-interpolation-filters="sRGB">
<feFlood flood-opacity="0" result="BackgroundImageFix"/>
<feBlend mode="normal" in="SourceGraphic" in2="BackgroundImageFix" result="shape"/>
<feGaussianBlur stdDeviation="12.4149" result="effect1_foregroundBlur_65_2944"/>
</filter>
<filter id="filter3_f_65_2944" x="77.9919" y="207.128" width="299.675" height="299.675" filterUnits="userSpaceOnUse" color-interpolation-filters="sRGB">
<feFlood flood-opacity="0" result="BackgroundImageFix"/>
<feBlend mode="normal" in="SourceGraphic" in2="BackgroundImageFix" result="shape"/>
<feGaussianBlur stdDeviation="5.92528" result="effect1_foregroundBlur_65_2944"/>
</filter>
<filter id="filter4_f_65_2944" x="171.133" y="141.206" width="299.675" height="299.676" filterUnits="userSpaceOnUse" color-interpolation-filters="sRGB">
<feFlood flood-opacity="0" result="BackgroundImageFix"/>
<feBlend mode="normal" in="SourceGraphic" in2="BackgroundImageFix" result="shape"/>
<feGaussianBlur stdDeviation="5.92528" result="effect1_foregroundBlur_65_2944"/>
</filter>
<filter id="filter5_f_65_2944" x="176.821" y="227.521" width="229.448" height="229.448" filterUnits="userSpaceOnUse" color-interpolation-filters="sRGB">
<feFlood flood-opacity="0" result="BackgroundImageFix"/>
<feBlend mode="normal" in="SourceGraphic" in2="BackgroundImageFix" result="shape"/>
<feGaussianBlur stdDeviation="5.92528" result="effect1_foregroundBlur_65_2944"/>
</filter>
<filter id="filter6_f_65_2944" x="72.6645" y="-129.258" width="769.047" height="741.148" filterUnits="userSpaceOnUse" color-interpolation-filters="sRGB">
<feFlood flood-opacity="0" result="BackgroundImageFix"/>
<feBlend mode="normal" in="SourceGraphic" in2="BackgroundImageFix" result="shape"/>
<feGaussianBlur stdDeviation="7.32622" result="effect1_foregroundBlur_65_2944"/>
</filter>
<filter id="filter7_f_65_2944" x="-34.3977" y="-236.321" width="650.005" height="650.005" filterUnits="userSpaceOnUse" color-interpolation-filters="sRGB">
<feFlood flood-opacity="0" result="BackgroundImageFix"/>
<feBlend mode="normal" in="SourceGraphic" in2="BackgroundImageFix" result="shape"/>
<feGaussianBlur stdDeviation="60.8573" result="effect1_foregroundBlur_65_2944"/>
</filter>
<filter id="filter8_f_65_2944" x="327.764" y="52.6182" width="513.074" height="527.299" filterUnits="userSpaceOnUse" color-interpolation-filters="sRGB">
<feFlood flood-opacity="0" result="BackgroundImageFix"/>
<feBlend mode="normal" in="SourceGraphic" in2="BackgroundImageFix" result="shape"/>
<feGaussianBlur stdDeviation="6.88986" result="effect1_foregroundBlur_65_2944"/>
</filter>
<filter id="filter9_f_65_2944" x="272.984" y="83.4389" width="548.776" height="539.52" filterUnits="userSpaceOnUse" color-interpolation-filters="sRGB">
<feFlood flood-opacity="0" result="BackgroundImageFix"/>
<feBlend mode="normal" in="SourceGraphic" in2="BackgroundImageFix" result="shape"/>
<feGaussianBlur stdDeviation="12.8611" result="effect1_foregroundBlur_65_2944"/>
</filter>
<filter id="filter10_f_65_2944" x="319.024" y="-126.212" width="666.05" height="638.192" filterUnits="userSpaceOnUse" color-interpolation-filters="sRGB">
<feFlood flood-opacity="0" result="BackgroundImageFix"/>
<feBlend mode="normal" in="SourceGraphic" in2="BackgroundImageFix" result="shape"/>
<feGaussianBlur stdDeviation="7.32622" result="effect1_foregroundBlur_65_2944"/>
</filter>
<filter id="filter11_f_65_2944" x="213.334" y="-231.902" width="608.216" height="608.216" filterUnits="userSpaceOnUse" color-interpolation-filters="sRGB">
<feFlood flood-opacity="0" result="BackgroundImageFix"/>
<feBlend mode="normal" in="SourceGraphic" in2="BackgroundImageFix" result="shape"/>
<feGaussianBlur stdDeviation="60.1715" result="effect1_foregroundBlur_65_2944"/>
</filter>
<filter id="filter12_f_65_2944" x="524.265" y="5.5382" width="482.903" height="497.665" filterUnits="userSpaceOnUse" color-interpolation-filters="sRGB">
<feFlood flood-opacity="0" result="BackgroundImageFix"/>
<feBlend mode="normal" in="SourceGraphic" in2="BackgroundImageFix" result="shape"/>
<feGaussianBlur stdDeviation="18.373" result="effect1_foregroundBlur_65_2944"/>
</filter>
<filter id="filter13_f_65_2944" x="481.212" y="48.5284" width="495.15" height="485.546" filterUnits="userSpaceOnUse" color-interpolation-filters="sRGB">
<feFlood flood-opacity="0" result="BackgroundImageFix"/>
<feBlend mode="normal" in="SourceGraphic" in2="BackgroundImageFix" result="shape"/>
<feGaussianBlur stdDeviation="18.373" result="effect1_foregroundBlur_65_2944"/>
</filter>
<filter id="filter14_f_65_2944" x="380.706" y="55.4125" width="496.599" height="496.599" filterUnits="userSpaceOnUse" color-interpolation-filters="sRGB">
<feFlood flood-opacity="0" result="BackgroundImageFix"/>
<feBlend mode="normal" in="SourceGraphic" in2="BackgroundImageFix" result="shape"/>
<feGaussianBlur stdDeviation="22.9662" result="effect1_foregroundBlur_65_2944"/>
</filter>
<filter id="filter15_f_65_2944" x="186.714" y="40.5303" width="446.992" height="446.992" filterUnits="userSpaceOnUse" color-interpolation-filters="sRGB">
<feFlood flood-opacity="0" result="BackgroundImageFix"/>
<feBlend mode="normal" in="SourceGraphic" in2="BackgroundImageFix" result="shape"/>
<feGaussianBlur stdDeviation="10.5645" result="effect1_foregroundBlur_65_2944"/>
</filter>
<linearGradient id="paint0_linear_65_2944" x1="142.687" y1="154.919" x2="539.505" y2="572.132" gradientUnits="userSpaceOnUse">
<stop stop-color="#F05D2A"/>
<stop offset="0.8" stop-color="#FB6514" stop-opacity="0"/>
</linearGradient>
<linearGradient id="paint1_linear_65_2944" x1="107.293" y1="190.676" x2="521.029" y2="591.141" gradientUnits="userSpaceOnUse">
<stop stop-color="#F05D2A"/>
<stop offset="0.88" stop-color="#FB6514" stop-opacity="0"/>
</linearGradient>
<linearGradient id="paint2_linear_65_2944" x1="90.3496" y1="220.193" x2="364.603" y2="494.446" gradientUnits="userSpaceOnUse">
<stop stop-color="#F05D2A"/>
<stop offset="0.796199" stop-color="#FB6514" stop-opacity="0"/>
</linearGradient>
<linearGradient id="paint3_linear_65_2944" x1="183.49" y1="154.271" x2="457.743" y2="428.524" gradientUnits="userSpaceOnUse">
<stop stop-color="#F05D2A"/>
<stop offset="0.796199" stop-color="#FB6514" stop-opacity="0"/>
</linearGradient>
<linearGradient id="paint4_linear_65_2944" x1="188.533" y1="239.94" x2="393.85" y2="445.258" gradientUnits="userSpaceOnUse">
<stop stop-color="#F05D2A"/>
<stop offset="0.796199" stop-color="#FB6514" stop-opacity="0"/>
</linearGradient>
<linearGradient id="paint5_linear_65_2944" x1="371.043" y1="94.3586" x2="794.477" y2="541.1" gradientUnits="userSpaceOnUse">
<stop stop-color="#FBE414"/>
<stop offset="0.88" stop-color="#FBE414" stop-opacity="0"/>
</linearGradient>
<linearGradient id="paint6_linear_65_2944" x1="326.94" y1="138.396" x2="769.724" y2="566.013" gradientUnits="userSpaceOnUse">
<stop stop-color="#FBE414"/>
<stop offset="0.88" stop-color="#FBE414" stop-opacity="0"/>
</linearGradient>
<linearGradient id="paint7_linear_65_2944" x1="446.367" y1="-65.3318" x2="937.157" y2="442.133" gradientUnits="userSpaceOnUse">
<stop stop-color="#FBE414"/>
<stop offset="0.802306" stop-color="#FBE414" stop-opacity="0"/>
</linearGradient>
<linearGradient id="paint8_linear_65_2944" x1="396.97" y1="-15.4822" x2="905.955" y2="473.736" gradientUnits="userSpaceOnUse">
<stop stop-color="#FBE414"/>
<stop offset="0.802306" stop-color="#FBE414" stop-opacity="0"/>
</linearGradient>
<linearGradient id="paint9_linear_65_2944" x1="265.866" y1="-49.0504" x2="830.108" y2="505.366" gradientUnits="userSpaceOnUse">
<stop stop-color="#F05D2A"/>
<stop offset="0.802306" stop-color="#FBE414" stop-opacity="0"/>
</linearGradient>
<linearGradient id="paint10_linear_65_2944" x1="47.0706" y1="-88.736" x2="611.313" y2="465.681" gradientUnits="userSpaceOnUse">
<stop stop-color="#F05D2A"/>
<stop offset="0.802306" stop-color="#FB6514" stop-opacity="0"/>
</linearGradient>
</defs>
</svg>
