<svg width="1049" height="970" viewBox="0 0 1049 970" fill="none" xmlns="http://www.w3.org/2000/svg">
<g opacity="0.72">
<g filter="url(#filter0_f_65_2945)">
<path d="M828.124 244.879C901.35 318.105 1025.24 312.934 1104.85 233.328C1184.46 153.722 1189.63 29.8276 1116.4 -43.3985C1043.18 -116.625 919.281 -111.453 839.676 -31.8472C760.07 47.7585 754.898 171.653 828.124 244.879Z" fill="#F05D2A"/>
</g>
<g opacity="0.3" filter="url(#filter1_f_65_2945)">
<path d="M924.054 131.646L865.154 75.6255L466.751 491.331L525.651 547.352L924.054 131.646Z" fill="url(#paint0_linear_65_2945)"/>
</g>
<g opacity="0.8" filter="url(#filter2_f_65_2945)">
<path d="M966.973 176.879L910.441 118.473L497.695 519.961L554.228 578.366L966.973 176.879Z" fill="url(#paint1_linear_65_2945)"/>
</g>
<g opacity="0.8" filter="url(#filter3_f_65_2945)">
<path d="M955.297 176.839L681.044 451.092" stroke="url(#paint2_linear_65_2945)" stroke-width="2.43429"/>
</g>
<g opacity="0.8" filter="url(#filter4_f_65_2945)">
<path d="M862.156 110.918L587.903 385.171" stroke="url(#paint3_linear_65_2945)" stroke-width="2.43429"/>
</g>
<g opacity="0.8" filter="url(#filter5_f_65_2945)">
<path d="M857.113 196.587L651.796 401.904" stroke="url(#paint4_linear_65_2945)" stroke-width="0.608573"/>
</g>
</g>
<g opacity="0.3" filter="url(#filter6_f_65_2945)">
<g filter="url(#filter7_f_65_2945)">
<path d="M601.301 199.776C674.527 273.002 802.879 263.373 887.983 178.269C973.087 93.1653 982.716 -35.1864 909.489 -108.412C836.263 -181.639 707.912 -172.01 622.808 -86.9058C537.704 -1.80198 528.075 126.55 601.301 199.776Z" fill="#FBE414"/>
</g>
<g opacity="0.3" filter="url(#filter8_f_65_2945)">
<path d="M645.457 23.3979L704.456 79.3192L277.94 523.138L218.941 467.217L645.457 23.3979Z" fill="url(#paint5_linear_65_2945)"/>
</g>
<g opacity="0.8" filter="url(#filter9_f_65_2945)">
<path d="M747.294 124.632L690.826 66.1611L249.962 495.766L306.43 554.237L747.294 124.632Z" fill="url(#paint6_linear_65_2945)"/>
</g>
</g>
<g opacity="0.3" filter="url(#filter10_f_65_2945)">
<g filter="url(#filter11_f_65_2945)">
<path d="M401.318 156.446C474.544 229.672 590.873 232.066 661.146 161.793C731.419 91.5205 729.025 -24.8084 655.798 -98.0345C582.572 -171.261 466.243 -173.655 395.971 -103.382C325.698 -33.1087 328.092 83.2202 401.318 156.446Z" fill="#F05D2A"/>
</g>
<g opacity="0.8" filter="url(#filter12_f_65_2945)">
<path d="M484.989 55.4736L426.258 -0.715805L75.5778 367.268L134.309 423.457L484.989 55.4736Z" fill="url(#paint7_linear_65_2945)"/>
</g>
<g opacity="0.8" filter="url(#filter13_f_65_2945)">
<path d="M528.042 100.57L471.4 42.2744L106.384 396.032L163.026 454.328L528.042 100.57Z" fill="url(#paint8_linear_65_2945)"/>
</g>
</g>
<g opacity="0.4" filter="url(#filter14_f_65_2945)">
<path d="M215.618 462.089C226.576 473.048 325.62 391.772 436.837 280.555C548.055 169.337 629.331 70.2937 618.372 59.3349C607.413 48.3761 508.369 129.652 397.152 240.869C285.935 352.087 204.659 451.13 215.618 462.089Z" fill="url(#paint9_linear_65_2945)"/>
</g>
<g opacity="0.4" filter="url(#filter15_f_65_2945)">
<path d="M434.413 422.403C445.371 433.362 544.415 352.086 655.632 240.869C766.85 129.652 848.125 30.6081 837.167 19.6493C826.208 8.69048 727.164 89.9662 615.947 201.184C504.73 312.401 423.454 411.444 434.413 422.403Z" fill="url(#paint10_linear_65_2945)"/>
</g>
<defs>
<filter id="filter0_f_65_2945" x="654.702" y="-216.821" width="635.122" height="635.122" filterUnits="userSpaceOnUse" color-interpolation-filters="sRGB">
<feFlood flood-opacity="0" result="BackgroundImageFix"/>
<feBlend mode="normal" in="SourceGraphic" in2="BackgroundImageFix" result="shape"/>
<feGaussianBlur stdDeviation="60.8573" result="effect1_foregroundBlur_65_2945"/>
</filter>
<filter id="filter1_f_65_2945" x="452.693" y="61.5675" width="485.419" height="499.842" filterUnits="userSpaceOnUse" color-interpolation-filters="sRGB">
<feFlood flood-opacity="0" result="BackgroundImageFix"/>
<feBlend mode="normal" in="SourceGraphic" in2="BackgroundImageFix" result="shape"/>
<feGaussianBlur stdDeviation="7.02902" result="effect1_foregroundBlur_65_2945"/>
</filter>
<filter id="filter2_f_65_2945" x="472.866" y="93.6433" width="518.938" height="509.553" filterUnits="userSpaceOnUse" color-interpolation-filters="sRGB">
<feFlood flood-opacity="0" result="BackgroundImageFix"/>
<feBlend mode="normal" in="SourceGraphic" in2="BackgroundImageFix" result="shape"/>
<feGaussianBlur stdDeviation="12.4149" result="effect1_foregroundBlur_65_2945"/>
</filter>
<filter id="filter3_f_65_2945" x="668.333" y="164.128" width="299.675" height="299.675" filterUnits="userSpaceOnUse" color-interpolation-filters="sRGB">
<feFlood flood-opacity="0" result="BackgroundImageFix"/>
<feBlend mode="normal" in="SourceGraphic" in2="BackgroundImageFix" result="shape"/>
<feGaussianBlur stdDeviation="5.92528" result="effect1_foregroundBlur_65_2945"/>
</filter>
<filter id="filter4_f_65_2945" x="575.192" y="98.2063" width="299.675" height="299.676" filterUnits="userSpaceOnUse" color-interpolation-filters="sRGB">
<feFlood flood-opacity="0" result="BackgroundImageFix"/>
<feBlend mode="normal" in="SourceGraphic" in2="BackgroundImageFix" result="shape"/>
<feGaussianBlur stdDeviation="5.92528" result="effect1_foregroundBlur_65_2945"/>
</filter>
<filter id="filter5_f_65_2945" x="639.73" y="184.521" width="229.449" height="229.448" filterUnits="userSpaceOnUse" color-interpolation-filters="sRGB">
<feFlood flood-opacity="0" result="BackgroundImageFix"/>
<feBlend mode="normal" in="SourceGraphic" in2="BackgroundImageFix" result="shape"/>
<feGaussianBlur stdDeviation="5.92528" result="effect1_foregroundBlur_65_2945"/>
</filter>
<filter id="filter6_f_65_2945" x="204.289" y="-172.258" width="769.047" height="741.148" filterUnits="userSpaceOnUse" color-interpolation-filters="sRGB">
<feFlood flood-opacity="0" result="BackgroundImageFix"/>
<feBlend mode="normal" in="SourceGraphic" in2="BackgroundImageFix" result="shape"/>
<feGaussianBlur stdDeviation="7.32622" result="effect1_foregroundBlur_65_2945"/>
</filter>
<filter id="filter7_f_65_2945" x="430.393" y="-279.321" width="650.005" height="650.005" filterUnits="userSpaceOnUse" color-interpolation-filters="sRGB">
<feFlood flood-opacity="0" result="BackgroundImageFix"/>
<feBlend mode="normal" in="SourceGraphic" in2="BackgroundImageFix" result="shape"/>
<feGaussianBlur stdDeviation="60.8573" result="effect1_foregroundBlur_65_2945"/>
</filter>
<filter id="filter8_f_65_2945" x="205.161" y="9.61823" width="513.074" height="527.299" filterUnits="userSpaceOnUse" color-interpolation-filters="sRGB">
<feFlood flood-opacity="0" result="BackgroundImageFix"/>
<feBlend mode="normal" in="SourceGraphic" in2="BackgroundImageFix" result="shape"/>
<feGaussianBlur stdDeviation="6.88986" result="effect1_foregroundBlur_65_2945"/>
</filter>
<filter id="filter9_f_65_2945" x="224.24" y="40.4389" width="548.776" height="539.52" filterUnits="userSpaceOnUse" color-interpolation-filters="sRGB">
<feFlood flood-opacity="0" result="BackgroundImageFix"/>
<feBlend mode="normal" in="SourceGraphic" in2="BackgroundImageFix" result="shape"/>
<feGaussianBlur stdDeviation="12.8611" result="effect1_foregroundBlur_65_2945"/>
</filter>
<filter id="filter10_f_65_2945" x="60.9254" y="-169.212" width="666.05" height="638.192" filterUnits="userSpaceOnUse" color-interpolation-filters="sRGB">
<feFlood flood-opacity="0" result="BackgroundImageFix"/>
<feBlend mode="normal" in="SourceGraphic" in2="BackgroundImageFix" result="shape"/>
<feGaussianBlur stdDeviation="7.32622" result="effect1_foregroundBlur_65_2945"/>
</filter>
<filter id="filter11_f_65_2945" x="224.45" y="-274.902" width="608.216" height="608.216" filterUnits="userSpaceOnUse" color-interpolation-filters="sRGB">
<feFlood flood-opacity="0" result="BackgroundImageFix"/>
<feBlend mode="normal" in="SourceGraphic" in2="BackgroundImageFix" result="shape"/>
<feGaussianBlur stdDeviation="60.1715" result="effect1_foregroundBlur_65_2945"/>
</filter>
<filter id="filter12_f_65_2945" x="38.8318" y="-37.4618" width="482.903" height="497.665" filterUnits="userSpaceOnUse" color-interpolation-filters="sRGB">
<feFlood flood-opacity="0" result="BackgroundImageFix"/>
<feBlend mode="normal" in="SourceGraphic" in2="BackgroundImageFix" result="shape"/>
<feGaussianBlur stdDeviation="18.373" result="effect1_foregroundBlur_65_2945"/>
</filter>
<filter id="filter13_f_65_2945" x="69.6382" y="5.5284" width="495.15" height="485.546" filterUnits="userSpaceOnUse" color-interpolation-filters="sRGB">
<feFlood flood-opacity="0" result="BackgroundImageFix"/>
<feBlend mode="normal" in="SourceGraphic" in2="BackgroundImageFix" result="shape"/>
<feGaussianBlur stdDeviation="18.373" result="effect1_foregroundBlur_65_2945"/>
</filter>
<filter id="filter14_f_65_2945" x="168.695" y="12.4125" width="496.599" height="496.599" filterUnits="userSpaceOnUse" color-interpolation-filters="sRGB">
<feFlood flood-opacity="0" result="BackgroundImageFix"/>
<feBlend mode="normal" in="SourceGraphic" in2="BackgroundImageFix" result="shape"/>
<feGaussianBlur stdDeviation="22.9662" result="effect1_foregroundBlur_65_2945"/>
</filter>
<filter id="filter15_f_65_2945" x="412.294" y="-2.46972" width="446.992" height="446.992" filterUnits="userSpaceOnUse" color-interpolation-filters="sRGB">
<feFlood flood-opacity="0" result="BackgroundImageFix"/>
<feBlend mode="normal" in="SourceGraphic" in2="BackgroundImageFix" result="shape"/>
<feGaussianBlur stdDeviation="10.5645" result="effect1_foregroundBlur_65_2945"/>
</filter>
<linearGradient id="paint0_linear_65_2945" x1="903.313" y1="111.919" x2="506.495" y2="529.132" gradientUnits="userSpaceOnUse">
<stop stop-color="#F05D2A"/>
<stop offset="0.8" stop-color="#FB6514" stop-opacity="0"/>
</linearGradient>
<linearGradient id="paint1_linear_65_2945" x1="938.707" y1="147.676" x2="524.972" y2="548.141" gradientUnits="userSpaceOnUse">
<stop stop-color="#F05D2A"/>
<stop offset="0.88" stop-color="#FB6514" stop-opacity="0"/>
</linearGradient>
<linearGradient id="paint2_linear_65_2945" x1="955.65" y1="177.193" x2="681.397" y2="451.446" gradientUnits="userSpaceOnUse">
<stop stop-color="#F05D2A"/>
<stop offset="0.796199" stop-color="#FB6514" stop-opacity="0"/>
</linearGradient>
<linearGradient id="paint3_linear_65_2945" x1="862.51" y1="111.271" x2="588.257" y2="385.524" gradientUnits="userSpaceOnUse">
<stop stop-color="#F05D2A"/>
<stop offset="0.796199" stop-color="#FB6514" stop-opacity="0"/>
</linearGradient>
<linearGradient id="paint4_linear_65_2945" x1="857.467" y1="196.94" x2="652.15" y2="402.258" gradientUnits="userSpaceOnUse">
<stop stop-color="#F05D2A"/>
<stop offset="0.796199" stop-color="#FB6514" stop-opacity="0"/>
</linearGradient>
<linearGradient id="paint5_linear_65_2945" x1="674.957" y1="51.3586" x2="251.523" y2="498.1" gradientUnits="userSpaceOnUse">
<stop stop-color="#FBE414"/>
<stop offset="0.88" stop-color="#FBE414" stop-opacity="0"/>
</linearGradient>
<linearGradient id="paint6_linear_65_2945" x1="719.06" y1="95.3964" x2="276.276" y2="523.013" gradientUnits="userSpaceOnUse">
<stop stop-color="#FBE414"/>
<stop offset="0.88" stop-color="#FBE414" stop-opacity="0"/>
</linearGradient>
<linearGradient id="paint7_linear_65_2945" x1="599.633" y1="-108.332" x2="108.842" y2="399.133" gradientUnits="userSpaceOnUse">
<stop stop-color="#FBE414"/>
<stop offset="0.802306" stop-color="#FBE414" stop-opacity="0"/>
</linearGradient>
<linearGradient id="paint8_linear_65_2945" x1="649.03" y1="-58.4822" x2="140.045" y2="430.736" gradientUnits="userSpaceOnUse">
<stop stop-color="#FBE414"/>
<stop offset="0.802306" stop-color="#FBE414" stop-opacity="0"/>
</linearGradient>
<linearGradient id="paint9_linear_65_2945" x1="780.134" y1="-92.0504" x2="215.892" y2="462.366" gradientUnits="userSpaceOnUse">
<stop stop-color="#F05D2A"/>
<stop offset="0.802306" stop-color="#FBE414" stop-opacity="0"/>
</linearGradient>
<linearGradient id="paint10_linear_65_2945" x1="998.929" y1="-131.736" x2="434.687" y2="422.681" gradientUnits="userSpaceOnUse">
<stop stop-color="#F05D2A"/>
<stop offset="0.802306" stop-color="#FB6514" stop-opacity="0"/>
</linearGradient>
</defs>
</svg>
