<svg width="194" height="35" viewBox="0 0 194 35" fill="none" xmlns="http://www.w3.org/2000/svg">
<path d="M59.8599 0.876108C70.8485 0.248689 79.241 12.2637 74.9513 23.0627C71.7688 31.075 63.8572 34.517 55.9779 32.1234C48.832 29.9524 45.7186 21.6406 43.0114 15.0901C42.5188 13.8976 41.8105 12.3471 41.4443 11.1439C40.4702 7.94493 44.5842 6.01697 46.1534 9.26482C48.1037 13.3008 49.6268 17.6982 51.5642 21.7568C54.8942 28.1266 62.2271 30.1223 67.579 25.0557C75.7287 17.3395 68.043 3.29062 57.7192 6.47933C56.1648 6.95944 55.4955 7.60353 54.2018 8.43202C52.3002 9.64976 49.8757 8.02127 50.5236 5.69976C50.7479 4.89546 51.3594 4.50783 51.9673 4.04331C54.4957 2.11105 56.6703 1.05944 59.8599 0.877184V0.876108Z" fill="#1D5166"/>
<path d="M85.8349 22.017C85.6213 24.139 82.7426 24.139 82.5121 22.0643L82.5039 3.62775C82.8885 0.751948 86.1314 0.283131 87.2187 3.0912C88.8238 7.23636 90.0857 11.6439 91.6211 15.8353C91.6513 15.9175 91.6913 16.1036 91.7752 16.1294C93.2779 11.5901 94.8742 7.07829 96.4429 2.56109C97.544 0.408399 100.69 1.00732 100.943 3.46915V22.0697C100.82 23.3681 99.4743 24.0175 98.4172 23.3783C98.1489 23.2159 97.6659 22.6084 97.6659 22.2853V8.06539C97.5369 8.17668 97.4831 8.42399 97.4227 8.58958C96.0388 12.3917 94.8527 16.3036 93.3117 20.0267C92.4011 21.1751 90.6665 21.0476 89.9576 19.7331L85.8359 8.38797V22.017H85.8349Z" fill="#F05D2A"/>
<path d="M28.4124 0.875277C29.4428 0.744631 30.4287 1.23495 30.9086 2.20323C34.2811 10.0086 37.8077 17.7409 41.1156 25.5742C41.5699 26.6505 43.0239 29.4548 43.0244 30.457C43.0259 32.9651 39.9305 33.8328 38.4868 32.0436C34.3876 22.8844 30.5639 13.5667 26.5549 4.35431C25.9659 2.86775 26.8663 1.07151 28.4124 0.875277Z" fill="#1D5166"/>
<path d="M3.36795 0.875474C4.23962 0.77171 5.02525 1.09859 5.58041 1.80289C9.76309 11.0454 13.7547 20.4018 17.8191 29.7077C18.6298 32.7341 14.8103 34.1814 13.2539 31.812L1.45919 4.30074C0.898397 2.79429 1.81411 1.05988 3.36795 0.875474Z" fill="#1D5166"/>
<path d="M128.447 20.1077H136.462C136.506 20.1077 136.98 20.3567 137.048 20.4067C138.247 21.2991 137.783 23.405 136.303 23.5964H126.276C124.51 23.3378 123.632 21.2862 124.546 19.6954L133.21 4.73138H125.809C125.547 4.73138 125.04 4.38139 124.863 4.16579C124.015 3.12816 124.548 1.4244 125.866 1.24268H135.381C137.097 1.51042 137.987 3.51741 137.111 5.08999C134.323 9.94913 131.457 14.7615 128.681 19.6282C128.597 19.776 128.479 19.9394 128.447 20.1077Z" fill="#F05D2A"/>
<path d="M180.58 7.04278L180.473 7.11859L175.401 22.4922C174.568 24.4111 171.93 23.732 172.026 21.6374C174.185 15.1417 176.616 8.73579 178.881 2.2745C179.571 0.808369 181.665 0.917509 182.244 2.41966L188.93 21.0998C189.314 22.1874 188.657 23.4933 187.522 23.6041C185.796 23.7718 185.592 22.2723 185.138 20.9417C183.564 16.3309 182.107 11.6713 180.58 7.04278Z" fill="#F05D2A"/>
<path d="M148.574 7.09615L143.443 22.651C142.219 24.7306 139.347 23.1542 140.327 20.8849L146.91 2.4725C147.41 0.97626 149.368 0.815508 150.182 2.09992C152.544 8.55153 154.882 15.0327 157.126 21.5311C157.33 23.6504 154.73 24.4128 153.804 22.5988L148.731 7.22572L148.574 7.09454L148.574 7.09615Z" fill="#F05D2A"/>
<path d="M112.926 7.09709C112.853 7.01752 112.838 7.11913 112.813 7.1659C112.765 7.25623 112.709 7.44332 112.67 7.553C110.883 12.5127 109.468 17.6331 107.696 22.6008C106.769 24.4143 104.17 23.6525 104.375 21.5331C106.555 15.1358 108.927 8.80139 111.161 2.42074C111.694 1.01053 113.499 0.836872 114.36 2.01644C116.731 8.25676 118.884 14.6057 121.173 20.8863C122.157 23.1595 119.28 24.7315 118.057 22.6525L112.926 7.09709H112.926Z" fill="#F05D2A"/>
<path d="M164.553 11.0742C164.638 11.0107 164.704 10.8226 164.75 10.7177C165.921 8.06021 167.048 5.27473 168.298 2.66827C168.575 2.09139 168.716 1.65322 169.332 1.38763C170.627 0.829027 171.859 1.86451 171.666 3.30107C169.984 7.15268 168.108 10.9258 166.317 14.729L166.281 22.164C165.75 24.2586 162.968 24.0333 162.808 21.8027C162.645 19.5151 162.944 17.0253 162.799 14.7161L157.645 3.83602C156.75 1.51505 159.54 0.302683 160.566 2.06021L164.553 11.0742Z" fill="#F05D2A"/>
<path d="M15.8652 0.874949C16.8905 0.744842 17.8744 1.24162 18.3773 2.18624C19.1824 3.69914 19.8728 5.72925 20.5795 7.34753C21.7646 10.0615 22.9763 12.7631 24.1471 15.4841C25.0193 17.8911 22.6076 19.9067 20.5032 18.6642C19.8973 18.3067 19.6956 17.8669 19.4016 17.24C17.4488 13.0739 15.8811 8.59968 13.957 4.40721C13.3465 2.88409 14.2889 1.07495 15.8652 0.874949Z" fill="#1D5166"/>
<path d="M27.3376 27.2743C31.1679 26.8726 31.5213 32.7662 28.0853 33.1667C24.1193 33.6291 23.7306 27.6522 27.3376 27.2743Z" fill="#F05D2A"/>
<path d="M60.1663 13.9946C63.9408 13.6043 64.3086 19.5086 60.8618 19.886C56.8871 20.3215 56.5158 14.372 60.1663 13.9946Z" fill="#F05D2A"/>
<path d="M40.8062 0.92976C44.8189 0.425459 45.184 6.4717 41.5534 6.8217C37.7738 7.18621 37.4 1.35772 40.8062 0.92976Z" fill="#F05D2A"/>
<path d="M24.471 20.2846C28.5835 19.8201 28.6875 26.5959 24.4566 26.1819C21.2281 25.8663 21.14 20.6609 24.471 20.2846Z" fill="#F05D2A"/>
<path d="M134.4 28.3887C134.564 28.4096 134.805 28.3182 134.913 28.4747L136.234 32.1838L137.596 28.4209L138.067 28.3887V32.5898C138.067 32.6946 137.737 32.6758 137.654 32.6709V29.3102L136.511 32.4742C136.466 32.7247 136.091 32.7629 135.99 32.5478L134.814 29.3102V32.6709C134.73 32.6758 134.4 32.6941 134.4 32.5898V28.3887Z" fill="#1D5166"/>
<path d="M87.3599 28.3877L87.8188 28.3941L89.116 32.1823L90.5039 28.42L90.9746 28.3877V32.5888C90.9746 32.7022 90.5613 32.7022 90.5613 32.5888V29.3635L89.3793 32.6382C89.3362 32.7038 88.9409 32.7081 88.9178 32.5791L87.721 29.2549V32.67H87.3594V28.3877H87.3599Z" fill="#1D5166"/>
<path d="M181.186 28.3875L181.591 28.3961L183.51 31.8569V28.3875H183.923V32.5886C183.923 32.6832 183.593 32.695 183.521 32.6579L181.6 29.2547V32.5886C181.6 32.702 181.186 32.702 181.186 32.5886V28.3875H181.186Z" fill="#1D5166"/>
<path d="M154.115 28.2958C156.489 28.2432 156.507 32.984 153.946 32.7254C151.903 32.519 151.911 28.3453 154.115 28.2958ZM153.803 28.7265C152.509 29.0018 152.397 32.6996 154.45 32.3335C155.862 32.0819 155.921 28.276 153.803 28.7265Z" fill="#1D5166"/>
<path d="M178.223 32.2706C177.674 32.8379 176.758 32.8943 176.151 32.397C174.885 31.3577 175.211 28.3663 177.043 28.2932C178.908 28.2185 179.345 31.1115 178.224 32.2706H178.223ZM176.782 28.7255C175.252 28.9991 175.557 33.2126 177.641 32.2292C178.796 31.6841 178.79 28.3663 176.782 28.7255Z" fill="#1D5166"/>
<path d="M98.5664 28.3876C99.1149 28.3328 99.8975 28.1946 100.392 28.5038C101.065 28.9237 101.127 30.1194 100.495 30.6011C100.432 30.6489 100.233 30.7124 100.225 30.7253C100.121 30.8973 101.049 32.5661 100.942 32.6699C100.829 32.6559 100.635 32.7194 100.554 32.6161L99.8575 30.8812H99.057C99.0412 30.8812 99.0176 30.8124 98.9797 30.8269V32.5887C98.9797 32.6935 98.6499 32.6747 98.5664 32.6699V28.3876ZM98.9797 30.5022H99.8831C100.036 30.5022 100.368 30.2075 100.429 30.0452C100.644 29.4731 100.424 28.7968 99.8084 28.6833C99.6783 28.6591 98.9797 28.6054 98.9797 28.7403V30.5022Z" fill="#1D5166"/>
<path d="M162.802 28.3877V31.342C162.802 31.506 162.991 31.9775 163.112 32.1011C163.429 32.4275 164.187 32.4393 164.518 32.1291C164.609 32.0436 164.816 31.6167 164.816 31.5049V28.3877H165.229V31.4506C165.229 31.6248 164.963 32.1979 164.837 32.3398C164.343 32.8947 163.249 32.8662 162.78 32.2866C162.572 32.0291 162.389 31.4001 162.389 31.071V28.3877H162.802Z" fill="#1D5166"/>
<path d="M94.9933 28.3978L96.3961 32.6709C96.2808 32.6601 96.0857 32.7155 96.0079 32.6177C95.9075 32.4908 95.7794 31.6978 95.6401 31.6483C95.3764 31.673 93.9388 31.5687 93.8389 31.6945C93.6177 31.9741 93.7672 32.8596 93.1424 32.6709L94.5308 28.4209L94.9928 28.3978H94.9933ZM95.57 31.316L94.7946 28.8768L93.969 31.316H95.57Z" fill="#1D5166"/>
<path d="M82.564 32.3929C82.5133 32.3085 82.5942 32.1009 82.6936 32.0821C82.731 32.0751 83.2349 32.3182 83.4147 32.3391C83.9197 32.3988 84.5435 32.2461 84.5747 31.6144C84.6362 30.3848 82.9466 30.6886 82.583 29.7423C82.2603 28.9031 82.9814 28.3155 83.7276 28.2999C83.9038 28.2961 84.7898 28.4466 84.7714 28.6757C84.7422 29.0407 84.3929 28.7617 84.2229 28.7257C83.7358 28.6219 82.9159 28.6735 82.9364 29.3816C82.9594 30.1714 84.5788 30.1569 84.9055 31.0445C85.3219 32.1746 84.3765 32.8552 83.3707 32.7101C83.259 32.694 82.5953 32.445 82.5635 32.3923L82.564 32.3929Z" fill="#1D5166"/>
<path d="M121.268 28.301C121.511 28.2962 121.875 28.3736 122.095 28.487C122.216 28.5494 122.382 28.5913 122.294 28.7682C122.181 28.9945 121.925 28.7607 121.764 28.7268C121.181 28.6031 120.282 28.7311 120.534 29.5843C120.713 30.1908 122.219 30.1892 122.47 31.1295C122.76 32.2187 121.972 32.823 121.002 32.7247C120.794 32.7037 119.989 32.4784 120.122 32.1838C120.22 31.966 120.436 32.1956 120.586 32.2397C121.163 32.408 122.073 32.4666 122.115 31.6155C122.168 30.5709 121.044 30.651 120.459 30.151C119.551 29.3763 120.243 28.322 121.268 28.301Z" fill="#1D5166"/>
<path d="M150.091 28.8674C150.025 28.9078 149.724 28.7438 149.604 28.7185C149.061 28.6051 148.145 28.7669 148.394 29.5556C148.604 30.2212 150.02 30.1406 150.33 31.0997C150.695 32.2287 149.743 32.8648 148.754 32.7002C148.614 32.6766 147.914 32.4255 147.938 32.2744C147.941 32.2556 148.051 32.0728 148.065 32.0712C148.145 32.0637 148.634 32.3148 148.84 32.339C149.269 32.3895 149.832 32.2997 149.961 31.7933C150.357 30.2244 147.645 30.8072 147.943 29.132C148.101 28.2422 149.537 28.1094 150.118 28.5578C150.232 28.6459 150.164 28.8228 150.091 28.8674H150.091Z" fill="#1D5166"/>
<path d="M188.571 28.6056C188.483 29.0368 188.209 28.7739 187.964 28.7271C187.414 28.6222 186.532 28.7061 186.736 29.5282C186.911 30.2287 188.61 30.1782 188.726 31.2878C188.835 32.3308 188.146 32.8346 187.208 32.7185C187.043 32.698 186.34 32.4728 186.303 32.312C186.291 32.2577 186.379 32.0911 186.433 32.0782C186.473 32.0685 187.01 32.3244 187.203 32.3443C187.907 32.4163 188.41 32.1572 188.314 31.3405C188.204 30.4018 186.42 30.598 186.298 29.5545C186.14 28.2104 187.739 28.0653 188.571 28.605V28.6056Z" fill="#1D5166"/>
<path d="M142.716 28.6054C142.604 29.0463 142.369 28.7748 142.109 28.7275C141.559 28.627 140.676 28.7054 140.881 29.528C141.056 30.2286 142.755 30.178 142.871 31.2877C143.019 32.7108 141.614 33.0694 140.624 32.4544C140.45 32.3463 140.374 32.128 140.578 32.078C140.618 32.0684 141.155 32.3243 141.348 32.3442C142.106 32.4216 142.688 32.0399 142.418 31.1667C142.2 30.4624 140.557 30.5307 140.443 29.5544C140.285 28.2108 141.883 28.0651 142.715 28.6049L142.716 28.6054Z" fill="#1D5166"/>
<path d="M113.075 28.6053C112.964 29.0462 112.729 28.7747 112.469 28.7274C111.919 28.6268 111.036 28.7053 111.241 29.5279C111.416 30.2284 113.115 30.1779 113.231 31.2876C113.379 32.7107 111.974 33.0693 110.983 32.4543C110.809 32.3462 110.734 32.1279 110.938 32.0779C110.977 32.0682 111.514 32.3241 111.708 32.344C112.465 32.4215 113.048 32.0397 112.777 31.1666C112.559 30.4623 110.917 30.5306 110.802 29.5543C110.644 28.2107 112.242 28.065 113.075 28.6048L113.075 28.6053Z" fill="#1D5166"/>
<path d="M131.871 28.3876V28.7129H129.961V30.2849H131.562V30.6102H129.961V32.2909H131.923V32.6161H129.599V28.3876H131.871Z" fill="#1D5166"/>
<path d="M105.897 28.3876V28.7672H104.555V32.6704H104.142V28.7672H102.902V28.3876H105.897Z" fill="#1D5166"/>
<path d="M127.378 28.3877V28.7673H126.036V32.6705H125.622V28.7673H124.383V28.3877H127.378Z" fill="#1D5166"/>
<path d="M170.444 28.3872V28.7668H169.102V32.67H168.689V28.7668H167.449V28.3872H170.444Z" fill="#1D5166"/>
<path d="M116.483 30.9633L115.141 28.3891C115.247 28.4084 115.463 28.3509 115.543 28.3998C115.666 28.4751 116.483 30.2837 116.639 30.5568C117.101 29.9047 117.385 29.1294 117.8 28.4434C117.859 28.3783 118.209 28.3159 118.188 28.4702L116.919 30.8799C116.823 31.217 116.977 32.4654 116.873 32.6208C116.813 32.7122 116.587 32.6611 116.482 32.6713V30.9638L116.483 30.9633Z" fill="#1D5166"/>
<path d="M158.619 28.3877V32.2909H160.22V32.6162H158.258V28.3877H158.619Z" fill="#1D5166"/>
<path d="M173.029 28.3877H172.615V32.67H173.029V28.3877Z" fill="#1D5166"/>
</svg>
