<svg width="29" height="23" viewBox="0 0 29 23" fill="none" xmlns="http://www.w3.org/2000/svg">
<path d="M2.17496 4.29028C3.37615 4.29028 4.34991 3.33482 4.34991 2.15622C4.34991 0.977607 3.37615 0.0221558 2.17496 0.0221558C0.973761 0.0221558 0 0.977607 0 2.15622C0 3.33482 0.973761 4.29028 2.17496 4.29028Z" fill="#AE10C4"/>
<path d="M13.1856 0.683435C12.5983 0.892528 10.8335 1.95237 9.83462 2.743V2.73908H9.83329C9.25259 3.21608 9.06879 4.01586 9.38844 4.69019C9.89988 5.76702 11.2957 6.08589 12.2493 5.35406C13.5799 4.33342 15.2554 3.72574 17.076 3.72574C19.7425 3.72574 22.0972 5.03127 23.5157 7.02419C23.8433 7.46198 24.1283 7.93767 24.3614 8.45126C27.8962 16.2348 17.9191 23.3178 11.7032 17.1286C11.0759 16.5027 10.5432 15.7761 10.0677 14.9815L5.88827 5.95651C5.53932 5.20377 4.7322 4.76076 3.89578 4.864C2.63316 5.01951 1.86866 6.31328 2.35879 7.4659L3.51753 10.1933C6.88451 17.437 9.11008 23.6092 18.7156 22.9519C23.9605 22.5925 28.3357 18.0604 28.9231 13.0095C29.9007 4.61701 21.3926 -2.23734 13.1843 0.686048V0.683435H13.1856Z" fill="#1D5166"/>
<path d="M20.6068 12.1104C20.6427 12.3143 20.3977 12.2502 20.2725 12.2202C19.6145 12.066 19.2309 11.2636 19.2523 10.6467C19.2523 10.5958 19.2935 10.5396 19.2629 10.4912C19.2429 10.4599 19.147 10.4376 19.143 10.3697C19.0938 10.3409 18.7048 10.6271 18.6169 10.6507L18.6436 10.8611C18.9006 10.9395 19.0165 11.2701 19.0778 11.5053C19.2336 12.1078 19.2602 12.8056 19.3628 13.4264C19.4294 13.8328 19.6212 14.4248 19.6345 14.8012C19.6385 14.9149 19.5932 14.9384 19.5279 15.0181C19.7038 15.0599 20.2472 15.2141 20.3018 15.3919C20.3484 15.5408 20.1153 15.5774 20.0048 15.58C19.8236 15.5853 19.5959 15.5408 19.4121 15.5369C18.4145 15.5134 17.4223 15.6637 16.4287 15.7042C16.0051 15.7225 15.495 15.7552 15.0795 15.6767C14.7252 15.6088 14.596 15.4546 14.6706 15.1004C14.7012 14.9554 14.6733 15.0547 14.6613 15.0037C14.6213 14.8404 14.7105 14.532 14.8943 14.4771C14.8957 14.3869 14.7425 14.417 14.7678 14.3111C14.9543 14.3372 15.0116 14.3712 15.1967 14.3059C15.824 14.0837 16.6924 13.3924 17.0413 12.8344C17.068 12.7926 17.1679 12.6488 17.1386 12.6083C17.032 12.6606 16.9161 12.6946 16.8003 12.7233C16.3394 12.8331 15.7414 12.8422 15.2659 12.8161C15.1314 12.8082 14.6679 12.7638 14.5614 12.7194C14.4908 12.6906 14.5307 12.5822 14.5108 12.5495C14.5068 12.543 14.3869 12.492 14.3723 12.4881C14.2977 12.4737 14.2204 12.492 14.1472 12.4815C13.8835 12.4397 13.6637 12.3574 13.3827 12.36C13.2442 12.36 12.814 12.458 12.7274 12.36C12.6262 12.245 12.7793 12.1169 12.8539 12.0281C13.0364 11.8085 13.2535 11.6138 13.4253 11.3838C13.5944 11.2414 13.8209 11.5864 13.9674 11.6622C14.014 11.687 14.1592 11.7353 14.2084 11.7379C14.2577 11.7406 14.2311 11.734 14.2404 11.7066C14.2657 11.6308 14.2431 11.4583 14.3176 11.4295C14.4415 11.3825 14.4002 11.619 14.4149 11.7014C14.4282 11.7732 14.4815 11.849 14.5068 11.9235C14.5214 11.9693 14.5001 12.0516 14.5507 12.0686C14.5973 12.0843 14.6626 12.049 14.7159 12.049C14.8611 12.0516 15.0795 12.1235 15.2446 12.1339C15.8546 12.1705 16.5152 12.0777 17.0693 11.8255C17.4516 11.6517 17.7685 11.3577 18.1228 11.1355C18.1774 11.0689 18.1508 10.9682 18.1561 10.8872C17.5901 11.0244 16.6804 11.1695 16.2649 10.6572C16.169 10.5383 16.1303 10.3749 16.0464 10.2691C15.9918 10.2011 15.8666 10.1645 15.9465 10.0574C16.0557 9.9123 16.2768 9.97503 16.137 9.6823C16.0331 9.46275 15.8466 9.25496 15.808 8.99752C15.7281 8.98184 15.788 9.08116 15.788 9.13212C15.788 9.2432 15.6881 9.25758 15.5962 9.28894L15.4697 8.95701L15.5123 9.33076C15.3099 9.39872 15.2952 9.28371 15.2793 9.11252C15.2233 8.4591 15.4164 7.67892 16.0398 7.34699C16.1317 7.29733 16.3634 7.23983 16.4207 7.20062C16.5898 7.08301 16.6484 6.92488 16.9042 6.80334C18.6676 5.96566 20.5735 7.74557 19.8662 9.48105C19.8023 9.63787 19.6998 9.76986 19.6212 9.91884C19.6904 9.96327 19.6891 10.1109 19.7104 10.141C19.7184 10.1515 19.8995 10.1959 19.9648 10.2442C20.4802 10.6232 20.1379 11.3498 20.2605 11.8438C20.3111 12.0477 20.375 12.1509 20.6108 12.113L20.6068 12.1104ZM16.0997 14.332C16.3661 14.3359 16.9801 14.2824 17.1452 14.0602C17.1945 13.9949 17.341 13.5897 17.305 13.5427L16.0997 14.332Z" fill="#AE10C4"/>
<path d="M13.0043 12.9036C13.1561 12.8788 13.6436 12.8814 13.8034 12.8984C13.9326 12.9128 14.0525 13.0029 14.0685 13.1362C14.0885 13.3048 14.0885 13.7779 14.0685 13.9465C14.0525 14.0785 13.9113 14.1713 13.7821 14.1843C13.6183 14.2026 13.2281 14.2013 13.0629 14.1843C12.9351 14.1713 12.7925 14.0772 12.7766 13.9465C12.7579 13.7884 12.7539 13.2682 12.7779 13.1166C12.7952 13.0056 12.8938 12.9206 13.0043 12.9023V12.9036Z" fill="#AE10C4"/>
<path d="M13.0469 14.2745C13.1934 14.2523 13.7941 14.2523 13.914 14.3059C13.9899 14.3398 14.0578 14.447 14.0685 14.528C14.0884 14.6914 14.0884 15.154 14.0685 15.3173C14.0525 15.4428 13.9526 15.5408 13.8247 15.5565C13.6582 15.5761 13.1868 15.5761 13.0203 15.5565C12.8924 15.5408 12.7925 15.4428 12.7765 15.3173C12.7579 15.1671 12.7552 14.6326 12.7819 14.4914C12.8032 14.3738 12.9324 14.2915 13.0469 14.2745Z" fill="#AE10C4"/>
</svg>
