<svg width="27" height="22" viewBox="0 0 27 22" fill="none" xmlns="http://www.w3.org/2000/svg">
<path d="M2.02632 4.10877C3.14543 4.10877 4.05264 3.19423 4.05264 2.06608C4.05264 0.937924 3.14543 0.0233765 2.02632 0.0233765C0.907216 0.0233765 0 0.937924 0 2.06608C0 3.19423 0.907216 4.10877 2.02632 4.10877Z" fill="#28B6BE"/>
<path d="M12.2788 0.653096C11.7322 0.853824 10.0885 1.86533 9.15928 2.62495C8.61659 3.07757 8.4487 3.84112 8.74543 4.4866C9.22175 5.51779 10.5219 5.82085 11.4081 5.12027C12.6458 4.14418 14.2075 3.56168 15.902 3.56168C18.3851 3.56168 20.5793 4.80934 21.899 6.71822C22.2035 7.13542 22.469 7.59198 22.6876 8.08396C25.9789 15.5306 16.6906 22.3041 10.9006 16.3846C10.3149 15.7864 9.81911 15.0897 9.37792 14.3301L5.48535 5.69884C5.1613 4.97858 4.40777 4.55351 3.63082 4.65191C2.45563 4.80147 1.74505 6.03732 2.19795 7.13935L3.27553 9.74881C6.41067 16.6798 8.48384 22.5836 17.4246 21.9538C22.3089 21.6114 26.3811 17.2741 26.9277 12.4409C27.8413 4.41576 19.9195 -2.14135 12.2788 0.657032V0.653096Z" fill="#1D5166"/>
<path d="M15.4179 6.85597C15.5389 6.98585 15.4374 7.49357 15.4296 7.66281C15.332 9.46543 14.8595 11.8978 14.1529 13.539C13.9459 14.0231 13.4345 15.2039 12.7044 15.0858C11.9704 14.9638 12.7083 14.0389 12.8684 13.7083C12.9464 13.543 13.3134 12.7597 13.1299 12.6456C12.9464 12.5314 12.7942 12.7479 12.6614 12.8345C12.1968 13.1376 11.2754 13.7004 10.7171 13.7319C10.5453 13.7437 10.3618 13.7437 10.2134 13.6532C9.88939 13.4603 9.8972 13.0431 10.1705 12.8148C10.6937 12.374 12.232 12.1103 12.2788 11.3035C12.3296 10.4966 11.0373 9.62286 10.9084 8.87898C10.8655 8.63103 11.0021 8.34765 11.3145 8.47359C11.5097 8.55231 11.9704 9.1112 12.1968 9.28044C13.6726 10.3825 14.3286 9.46542 14.7502 8.18628C14.8674 7.83205 14.922 7.36762 15.0469 7.04882C15.0977 6.91894 15.2851 6.71034 15.4218 6.8599L15.4179 6.85597Z" fill="#28B6BE"/>
<path d="M13.1142 7.00552C13.4148 6.97404 13.731 7.16689 13.895 7.37943C14.18 7.74152 14.1839 8.44997 13.774 8.74516C13.1181 9.2214 12.4075 8.59167 12.3724 7.958C12.3489 7.56441 12.6535 7.05275 13.1142 7.00159V7.00552Z" fill="#28B6BE"/>
<path d="M17.4207 7.1866C17.4363 7.20234 17.4324 7.23383 17.4207 7.27319C17.3035 7.38733 17.2137 7.52902 17.1747 7.67071C17.1317 7.8242 17.1278 7.99345 17.1591 8.15481C17.2098 8.50904 17.4324 8.82784 17.7994 8.89869C17.9282 8.93017 18.0766 8.93017 18.2367 8.88294C18.4241 8.82784 18.5763 8.69402 18.6778 8.52478C18.7676 8.41064 18.8379 8.28863 18.8574 8.19024C18.8848 8.06035 18.8692 7.87931 18.8692 7.74155C18.8692 7.63922 18.7872 7.55263 18.8692 7.47785C18.9082 7.43849 19.2166 7.33616 19.2869 7.32435C19.5875 7.27712 19.8726 7.43849 19.8765 7.72581C20.0014 7.67858 19.9819 7.31648 19.9389 7.22989C19.9155 7.18266 19.6891 6.99768 19.6266 6.978C19.404 6.91503 19.1581 6.98587 18.9707 7.09214C18.9082 7.12756 18.7872 7.31648 18.7247 7.30467C18.4865 7.14724 18.2601 6.93471 17.9282 6.99768C17.9087 6.99768 17.8931 7.00555 17.8814 7.01342C17.8111 7.02917 17.7408 7.05672 17.6744 7.0882C17.6744 7.0882 17.6705 7.0882 17.6666 7.0882C17.5456 7.04097 17.4753 6.74972 17.1903 6.63952C16.9561 6.55293 16.8233 6.56867 16.6047 6.671C16.3587 6.78514 16.3509 7.04491 16.3587 7.26532L16.6242 7.01342C16.9482 6.88748 17.1708 7.04097 17.4285 7.1866H17.4207Z" fill="#28B6BE"/>
<path d="M20.9034 12.6574C20.7043 12.5433 19.3065 11.9489 19.2831 11.8466C19.2753 11.76 19.7946 11.4334 19.7438 11.3743C18.5881 11.0752 19.5174 10.288 19.8609 9.78817C20.021 9.55596 20.673 8.65859 20.2357 8.4736C20.1655 8.44212 20.103 8.43424 20.0249 8.45392C19.8844 8.48541 19.0801 9.31981 18.8146 9.48905C18.3305 9.79211 17.6394 9.89838 17.1826 9.45756C16.8039 9.09153 16.3588 7.76515 16.3471 7.26924C16.2339 7.25743 16.2924 6.87172 16.0972 6.82842C15.8317 6.76545 15.82 6.90714 15.8161 7.10393C15.8083 7.5723 15.8708 8.1115 15.9254 8.57987C16.0933 10.0283 16.6321 11.4334 16.2612 12.8975L16.8859 12.8227C17.1279 13.4249 17.3778 14.2593 17.8346 14.7552C18.1938 15.1448 19.0215 15.2787 18.8888 14.5978C18.8263 14.2711 18.3617 13.6335 18.2172 13.2281C17.8463 12.1812 18.4554 12.744 18.9122 13.0156C19.3885 13.2989 20.7121 14.0979 21.2001 13.5548C21.4929 13.2242 21.2352 12.8463 20.8995 12.6574H20.9034Z" fill="#28B6BE"/>
</svg>
