<svg width="80" height="35" viewBox="0 0 80 35" fill="none" xmlns="http://www.w3.org/2000/svg">
<g clip-path="url(#clip0_1_5152)">
<path d="M59.8599 0.876108C70.8485 0.248689 79.241 12.2637 74.9513 23.0627C71.7688 31.075 63.8572 34.517 55.9779 32.1234C48.832 29.9524 45.7186 21.6406 43.0114 15.0901C42.5188 13.8976 41.8105 12.3471 41.4443 11.1439C40.4702 7.94493 44.5842 6.01697 46.1534 9.26482C48.1037 13.3008 49.6268 17.6982 51.5642 21.7568C54.8942 28.1266 62.2271 30.1223 67.579 25.0557C75.7287 17.3395 68.043 3.29062 57.7192 6.47933C56.1648 6.95944 55.4955 7.60353 54.2018 8.43202C52.3002 9.64976 49.8757 8.02127 50.5236 5.69976C50.7479 4.89546 51.3594 4.50783 51.9673 4.04331C54.4957 2.11105 56.6703 1.05944 59.8599 0.877184V0.876108Z" fill="#1D5166"/>
<path d="M28.4124 0.875277C29.4428 0.744631 30.4287 1.23495 30.9086 2.20323C34.2811 10.0086 37.8077 17.7409 41.1156 25.5742C41.5699 26.6505 43.0239 29.4548 43.0244 30.457C43.0259 32.9651 39.9305 33.8328 38.4868 32.0436C34.3876 22.8844 30.5639 13.5667 26.5549 4.35431C25.9659 2.86775 26.8663 1.07151 28.4124 0.875277Z" fill="#1D5166"/>
<path d="M3.36798 0.875474C4.23965 0.77171 5.02528 1.09859 5.58044 1.80289C9.76312 11.0454 13.7548 20.4018 17.8191 29.7077C18.6299 32.7341 14.8103 34.1814 13.2539 31.812L1.45923 4.30074C0.898428 2.79429 1.81414 1.05988 3.36798 0.875474Z" fill="#1D5166"/>
<path d="M15.8652 0.874949C16.8905 0.744842 17.8743 1.24162 18.3773 2.18624C19.1824 3.69914 19.8727 5.72925 20.5795 7.34753C21.7646 10.0615 22.9763 12.7631 24.1471 15.4841C25.0193 17.8911 22.6076 19.9067 20.5032 18.6642C19.8973 18.3067 19.6955 17.8669 19.4016 17.24C17.4488 13.0739 15.8811 8.59968 13.957 4.40721C13.3465 2.88409 14.2888 1.07495 15.8652 0.874949Z" fill="#1D5166"/>
<path d="M27.3376 27.2743C31.1679 26.8726 31.5213 32.7662 28.0853 33.1667C24.1193 33.6291 23.7306 27.6522 27.3376 27.2743Z" fill="#F05D2A"/>
<path d="M60.1663 13.9946C63.9408 13.6043 64.3086 19.5086 60.8618 19.886C56.8871 20.3215 56.5158 14.372 60.1663 13.9946Z" fill="#F05D2A"/>
<path d="M40.8062 0.92976C44.8189 0.425459 45.184 6.4717 41.5534 6.8217C37.7738 7.18621 37.4 1.35772 40.8062 0.92976Z" fill="#F05D2A"/>
<path d="M24.471 20.2846C28.5835 19.8201 28.6875 26.5959 24.4566 26.1819C21.2281 25.8663 21.14 20.6609 24.471 20.2846Z" fill="#F05D2A"/>
</g>
<defs>
<clipPath id="clip0_1_5152">
<rect width="80" height="35" fill="white"/>
</clipPath>
</defs>
</svg>
