<svg width="32" height="32" viewBox="0 0 32 32" fill="none" xmlns="http://www.w3.org/2000/svg">
<g clip-path="url(#clip0_65_3395)">
<path fill-rule="evenodd" clip-rule="evenodd" d="M16.4883 4.8266L21.7592 9.33385L24.0258 8.77354L17.5716 1.22754L16.3518 2.44723L15.2144 1.30979L5.35995 9.25304L8.01908 11.9122H4.36158L3.19727 24.7042H10.5765L9.5507 13.4334L16.4883 4.8266Z" fill="#1D5166" fill-opacity="0.2"/>
<path fill-rule="evenodd" clip-rule="evenodd" d="M2.56395 24.0029H11.2088C11.3804 24.0029 11.5208 24.1433 11.5208 24.3149V26.0476C11.5208 26.2192 11.3804 26.3596 11.2088 26.3596H2.56395C2.39233 26.3596 2.25195 26.2192 2.25195 26.0476V24.3149C2.25195 24.1434 2.39233 24.0029 2.56395 24.0029Z" fill="#1D5166"/>
<path fill-rule="evenodd" clip-rule="evenodd" d="M16.3522 0.3125C17.5309 0.3125 18.4864 1.268 18.4864 2.44675C18.4864 3.6255 17.5309 4.581 16.3522 4.581C15.1735 4.581 14.2179 3.6255 14.2179 2.44675C14.2179 1.268 15.1735 0.3125 16.3522 0.3125ZM6.8873 8.54594C8.74617 8.54594 10.2531 10.0528 10.2531 11.9117C10.2531 13.7706 8.74617 15.2775 6.8873 15.2775C5.02842 15.2775 3.52148 13.7706 3.52148 11.9117C3.52148 10.0528 5.02842 8.54594 6.8873 8.54594Z" fill="#9BB9C3"/>
<path fill-rule="evenodd" clip-rule="evenodd" d="M6.88638 10.4862C7.67369 10.4862 8.31188 11.1245 8.31188 11.9117C8.31188 12.699 7.67363 13.3372 6.88638 13.3372C6.09913 13.3372 5.46088 12.699 5.46088 11.9117C5.46088 11.1245 6.09906 10.4862 6.88638 10.4862ZM16.3513 1.67285C16.7788 1.67285 17.1253 2.01935 17.1253 2.44679C17.1253 2.87423 16.7788 3.22073 16.3513 3.22073C15.9239 3.22073 15.5774 2.87423 15.5774 2.44679C15.5774 2.01935 15.9239 1.67285 16.3513 1.67285Z" fill="#87A0AF"/>
<path fill-rule="evenodd" clip-rule="evenodd" d="M24.2903 8.99438V11.1856H21.4961V8.99438C21.4961 8.70956 21.7291 8.47656 22.0139 8.47656H23.7725C24.0573 8.47663 24.2903 8.70963 24.2903 8.99438Z" fill="#1D5166" fill-opacity="0.8"/>
<path fill-rule="evenodd" clip-rule="evenodd" d="M22.8918 9.875C24.6551 9.875 26.0845 11.3044 26.0845 13.0676C26.0845 14.219 25.4749 15.2279 24.561 15.7896V13.1361L22.8918 12.1724L21.2227 13.1361V15.7896C20.3088 15.2279 19.6992 14.219 19.6992 13.0676C19.6992 11.3044 21.1285 9.875 22.8918 9.875Z" fill="#1D5166"/>
<path fill-rule="evenodd" clip-rule="evenodd" d="M25.2151 30.0342C25.4621 29.9123 25.7612 30.0138 25.883 30.2608C26.0049 30.5078 25.9035 30.8068 25.6565 30.9287C25.1579 31.1755 24.6286 31.3672 24.0769 31.4958C23.5379 31.6214 22.9781 31.6878 22.405 31.6878C21.4364 31.6878 20.5097 31.499 19.6597 31.1558C19.0402 30.9058 18.4629 30.5741 17.9412 30.1741L17.9527 30.3183C17.9743 30.5934 17.7688 30.8339 17.4937 30.8555C17.2187 30.877 16.9782 30.6715 16.9566 30.3965L16.8445 28.9996C16.823 28.7246 17.0285 28.4841 17.3035 28.4625C17.3328 28.4602 17.3617 28.4605 17.3899 28.4631L18.7785 28.5746C19.0536 28.5961 19.2591 28.8366 19.2375 29.1117C19.2187 29.3519 19.0329 29.539 18.803 29.5683C19.1843 29.8318 19.5957 30.0545 20.0308 30.2301C20.7622 30.5253 21.5635 30.6879 22.405 30.6879C22.9043 30.6879 23.388 30.6309 23.8503 30.5231C24.3296 30.4115 24.7868 30.2462 25.2151 30.0342ZM28.3799 28.7956C28.655 28.7741 28.8955 28.9796 28.917 29.2546C28.9386 29.5297 28.7331 29.7702 28.458 29.7918L27.0612 29.9038C26.7862 29.9254 26.5457 29.7199 26.5241 29.4448C26.5218 29.4156 26.5221 29.3867 26.5247 29.3585L26.6362 27.9699C26.6577 27.6948 26.8982 27.4893 27.1733 27.5109C27.4135 27.5297 27.6006 27.7155 27.6299 27.9455C27.8934 27.5641 28.1161 27.1528 28.2917 26.7177C28.5869 25.9863 28.7495 25.185 28.7495 24.3435C28.7495 23.8441 28.6925 23.3603 28.5847 22.8981C28.473 22.4188 28.3078 21.9616 28.0958 21.5333C27.9739 21.2863 28.0754 20.9873 28.3224 20.8654C28.5694 20.7435 28.8684 20.845 28.9903 21.092C29.237 21.5906 29.4288 22.1198 29.5574 22.6715C29.683 23.2106 29.7494 23.7704 29.7494 24.3435C29.7494 25.3121 29.5605 26.2388 29.2174 27.0888C28.9674 27.7083 28.6357 28.2855 28.2357 28.8073L28.3799 28.7956ZM26.8572 18.3685C26.8356 18.0934 27.0411 17.8529 27.3162 17.8313C27.5912 17.8098 27.8317 18.0153 27.8533 18.2903L27.9654 19.6872C27.9869 19.9623 27.7814 20.2028 27.5064 20.2243C27.4771 20.2266 27.4482 20.2263 27.42 20.2237L26.0314 20.1123C25.7564 20.0907 25.5509 19.8502 25.5724 19.5751C25.5912 19.335 25.777 19.1478 26.007 19.1186C25.6257 18.8551 25.2143 18.6323 24.7792 18.4567C24.0478 18.1615 23.2465 17.999 22.405 17.999C21.9057 17.999 21.4219 18.056 20.9596 18.1637C20.4803 18.2754 20.0231 18.4406 19.5949 18.6526C19.3479 18.7745 19.0488 18.6731 18.9269 18.4261C18.805 18.1791 18.9065 17.88 19.1535 17.7581C19.6521 17.5114 20.1813 17.3196 20.7331 17.1911C21.2722 17.0655 21.832 16.999 22.405 16.999C23.3736 16.999 24.3004 17.1879 25.1504 17.531C25.7698 17.781 26.347 18.1128 26.8688 18.5128L26.8572 18.3685ZM16.43 19.8912C16.155 19.9128 15.9145 19.7073 15.8929 19.4322C15.8714 19.1571 16.0769 18.9166 16.3519 18.8951L17.7487 18.783C18.0238 18.7615 18.2643 18.967 18.2859 19.242C18.2882 19.2713 18.2879 19.3001 18.2852 19.3284L18.1739 20.717C18.1523 20.9921 17.9118 21.1976 17.6367 21.176C17.3965 21.1572 17.2094 20.9714 17.1802 20.7415C16.9167 21.1228 16.6939 21.5341 16.5182 21.9693C16.223 22.7006 16.0605 23.502 16.0605 24.3435C16.0605 24.8428 16.1175 25.3266 16.2252 25.7889C16.337 26.2682 16.5022 26.7254 16.7142 27.1537C16.836 27.4007 16.7346 27.6998 16.4876 27.8216C16.2406 27.9435 15.9415 27.8421 15.8197 27.5951C15.5729 27.0965 15.3812 26.5672 15.2526 26.0155C15.127 25.4764 15.0605 24.9166 15.0605 24.3435C15.0605 23.375 15.2494 22.4482 15.5925 21.5982C15.8425 20.9788 16.1743 20.4015 16.5743 19.8797L16.43 19.8912Z" fill="#1D5166" fill-opacity="0.2"/>
<path fill-rule="evenodd" clip-rule="evenodd" d="M21.6119 19.5928H23.1972V20.3883C23.7222 20.4929 24.2102 20.6995 24.6402 20.9863L25.2029 20.4235L26.324 21.5446L25.7612 22.1073C26.0482 22.5373 26.2546 23.0254 26.3593 23.5503H27.1548V25.1356H26.3593C26.2547 25.6606 26.0482 26.1486 25.7612 26.5786L26.324 27.1414L25.203 28.2625L24.6403 27.6998C24.2104 27.9868 23.7222 28.1932 23.1973 28.2979V29.0933H21.6119V28.2979C21.087 28.1933 20.5989 27.9867 20.1689 27.6998L19.6062 28.2625L18.4851 27.1415L19.0478 26.5788C18.7609 26.1488 18.5544 25.6606 18.4497 25.1357H17.6543V23.5503H18.4497C18.5544 23.0254 18.7609 22.5373 19.0478 22.1073L18.485 21.5446L19.6061 20.4235L20.1689 20.9863C20.5988 20.6993 21.0869 20.4929 21.6119 20.3882V19.5928Z" fill="#F05D2A"/>
<path d="M22.7919 26.7754C24.1339 26.5579 25.0454 25.2936 24.8279 23.9516C24.6103 22.6097 23.3461 21.6981 22.0041 21.9157C20.6621 22.1332 19.7506 23.3975 19.9681 24.7394C20.1857 26.0814 21.4499 26.993 22.7919 26.7754Z" fill="#EFF4F7"/>
<path fill-rule="evenodd" clip-rule="evenodd" d="M23.0111 23.4683C23.2053 23.273 23.521 23.2722 23.7162 23.4664C23.9114 23.6605 23.9123 23.9762 23.7181 24.1714L22.4852 25.4159C22.2924 25.6099 21.9796 25.612 21.7841 25.4217L21.0963 24.7514C20.8989 24.5594 20.8945 24.2437 21.0865 24.0464C21.2785 23.849 21.5942 23.8446 21.7916 24.0366L22.1256 24.3622L23.0111 23.4683Z" fill="#1D5166" fill-opacity="0.8"/>
</g>
<defs>
<clipPath id="clip0_65_3395">
<rect width="32" height="32" fill="white"/>
</clipPath>
</defs>
</svg>
