<svg width="50" height="50" viewBox="0 0 50 50" fill="none" xmlns="http://www.w3.org/2000/svg">
<g clip-path="url(#clip0_65_6039)">
<path d="M39.6484 38.2813C36.417 38.2813 33.7891 35.6533 33.7891 32.4219C33.7891 29.1904 36.417 26.4648 39.6484 26.4648C42.8799 26.4648 45.5078 29.1904 45.5078 32.4219C45.5078 35.6533 42.8799 38.2813 39.6484 38.2813Z" fill="#F6A96C"/>
<path d="M39.6492 38.2812C37.4191 38.2812 35.3706 39.0118 33.688 40.2206L31.5369 45.0798L35.2547 50H50.0008V48.5352C50.0008 42.8722 45.3121 38.2812 39.6492 38.2812Z" fill="#32DDF9"/>
<path d="M7.42188 12.3745L2.88429 14.7461L3.74565 9.54399L0 5.9864L5.19333 5.25398L7.42188 0L9.70497 5.25398L14.7461 5.9864L11.0981 9.54399L11.9595 14.7461L7.42188 12.3745Z" fill="#FFDA2D"/>
<path d="M28.6621 9.53102L29.541 14.7461L25 12.373L20.459 14.7461L21.3379 9.53102L17.6758 5.9864L22.7734 5.25398L25 0L27.2854 5.25398L32.3242 5.9864L28.6621 9.53102Z" fill="#FFDA2D"/>
<path d="M42.5781 12.3745L38.0405 14.7461L38.9019 9.54399L35.2539 5.9864L40.3496 5.25398L42.5781 0L44.8612 5.25398L50 5.9864L46.2543 9.54399L47.1157 14.7461L42.5781 12.3745Z" fill="#FDBF00"/>
<path d="M10.3516 38.2813C7.12013 38.2813 4.49219 35.6533 4.49219 32.4219C4.49219 29.1904 7.12013 26.4648 10.3516 26.4648C13.583 26.4648 16.2109 29.1904 16.2109 32.4219C16.2109 35.6533 13.583 38.2813 10.3516 38.2813Z" fill="#FFBD86"/>
<path d="M10.3516 38.2812C4.68864 38.2812 0 42.8722 0 48.5352V50H14.7461L18.38 45.6055L16.3128 40.221C14.6301 39.0118 12.5816 38.2812 10.3516 38.2812Z" fill="#84ECF7"/>
<path d="M29.541 14.7461L25 12.373V0L27.2854 5.25398L32.3242 5.9864L28.6621 9.53102L29.541 14.7461Z" fill="#FDBF00"/>
<path d="M25 23.5352C21.7773 23.5352 19.1406 26.1719 19.1406 29.3945C19.1406 32.6172 21.7773 35.3516 25 35.3516C28.2227 35.3516 30.8594 32.6172 30.8594 29.3945C30.8594 26.1719 28.2227 23.5352 25 23.5352Z" fill="#FED2A4"/>
<path d="M35.2539 45.6055V50H14.7461V45.6055C14.7461 43.6134 15.332 41.7969 16.2991 40.2149C18.1152 37.3142 21.3379 35.3516 25 35.3516C28.6621 35.3516 31.8848 37.3142 33.7009 40.2149C34.668 41.7969 35.2539 43.6134 35.2539 45.6055Z" fill="#FF637B"/>
<path d="M25 35.3516V23.5352C28.2227 23.5352 30.8594 26.1719 30.8594 29.3945C30.8594 32.6172 28.2227 35.3516 25 35.3516Z" fill="#F6A96C"/>
<path d="M35.2539 45.6055V50H25V35.3516C28.6621 35.3516 31.8848 37.3142 33.7009 40.2149C34.668 41.7969 35.2539 43.6134 35.2539 45.6055Z" fill="#E63950"/>
</g>
<defs>
<clipPath id="clip0_65_6039">
<rect width="50" height="50" fill="white"/>
</clipPath>
</defs>
</svg>
