<svg width="32" height="32" viewBox="0 0 32 32" fill="none" xmlns="http://www.w3.org/2000/svg">
<g clip-path="url(#clip0_65_5423)">
<path d="M15.3126 1.37476C6.85569 1.37476 0 8.23044 0 16.6874C0 18.3919 0.278875 20.0313 0.792875 21.5626L8.66438 30.4853C10.6751 31.4559 12.9303 32 15.3126 32C23.7696 32 30.6252 25.1443 30.6252 16.6874C30.6252 8.23044 23.7696 1.37476 15.3126 1.37476Z" fill="#1D2E79"/>
<path d="M20.7683 30.2261L18.75 28.2078L19.9688 25.1362C20.0745 24.8696 20.0117 24.5657 19.8089 24.3629L14.6895 19.2357L13.2943 18.583L12.627 19.2044L18.4583 25.0452L17.2396 28.1168C17.1338 28.3834 17.1966 28.6873 17.3995 28.8901L19.7519 31.2426C20.0326 31.5233 20.4877 31.5233 20.7683 31.2426C21.049 30.9619 21.049 30.5068 20.7683 30.2261Z" fill="#27A6FF"/>
<path d="M20.2598 32C20.9588 32 21.5254 31.4334 21.5254 30.7344C21.5254 30.0354 20.9588 29.4688 20.2598 29.4688C19.5608 29.4688 18.9941 30.0354 18.9941 30.7344C18.9941 31.4334 19.5608 32 20.2598 32Z" fill="#58D4FA"/>
<path d="M31.2434 19.7513L28.891 17.3989C28.6882 17.1961 28.3842 17.1333 28.1177 17.239L25.0461 18.4578L20.0532 13.457L19.3672 14.1179L19.6963 15.1338L24.3638 19.8084C24.5666 20.0112 24.8705 20.074 25.1371 19.9683L28.2087 18.7495L30.227 20.7678C30.5077 21.0485 30.9628 21.0485 31.2435 20.7678C31.5241 20.4872 31.5241 20.0321 31.2434 19.7513Z" fill="#FFC242"/>
<path d="M26.6491 25.6336L18.3467 17.3232L17.5115 17.3939L17.2441 18.2536L25.6326 26.65C25.9133 26.9307 26.3683 26.9307 26.649 26.65C26.9298 26.3693 26.9298 25.9142 26.6491 25.6336Z" fill="#02C0FC"/>
<path d="M26.2188 27.4844C26.9177 27.4844 27.4844 26.9177 27.4844 26.2188C27.4844 25.5198 26.9177 24.9531 26.2188 24.9531C25.5198 24.9531 24.9531 25.5198 24.9531 26.2188C24.9531 26.9177 25.5198 27.4844 26.2188 27.4844Z" fill="#64F9EA"/>
<path d="M30.7344 21.5254C31.4334 21.5254 32 20.9588 32 20.2598C32 19.5608 31.4334 18.9941 30.7344 18.9941C30.0354 18.9941 29.4688 19.5608 29.4688 20.2598C29.4688 20.9588 30.0354 21.5254 30.7344 21.5254Z" fill="#FEF156"/>
<path d="M13.8143 19.4306C17.3037 19.4306 20.1325 16.6018 20.1325 13.1124C20.1325 9.62294 17.3037 6.79419 13.8143 6.79419C10.3248 6.79419 7.49609 9.62294 7.49609 13.1124C7.49609 16.6018 10.3248 19.4306 13.8143 19.4306Z" fill="#3F57A0"/>
<path d="M13.8135 15.7656C15.2789 15.7656 16.4668 14.5777 16.4668 13.1123C16.4668 11.6469 15.2789 10.459 13.8135 10.459C12.3481 10.459 11.1602 11.6469 11.1602 13.1123C11.1602 14.5777 12.3481 15.7656 13.8135 15.7656Z" fill="#02C0FC"/>
<path d="M19.0709 9.73572C18.5764 10.2302 18.6056 11.0578 19.1584 11.513C19.6389 11.9088 20.3482 11.8543 20.7884 11.4141L20.9625 11.24C20.4681 11.7345 20.4972 12.5622 21.05 13.0173C21.5305 13.4131 22.2398 13.3586 22.68 12.9184L23.2282 12.3702C22.7825 12.816 22.7825 13.5453 23.2282 13.9911L23.3053 14.0682C23.751 14.5139 24.4804 14.5139 24.9262 14.0682C25.857 13.1373 28.3879 10.6065 28.7461 10.2482C30.3633 8.63103 30.1654 7.27447 30.7597 6.68009L31.0954 6.3454C32.2999 5.1444 32.3009 3.19378 31.0976 1.99159L30.6411 1.53547C29.27 0.898841 27.2409 0.789904 26.0065 1.83678L20.5667 6.44772L19.0709 9.73572Z" fill="#FFC7AB"/>
<path d="M3.65465 20.1941L2.66508 18.9941L1.26902 19.288C0.880959 19.9793 0.714334 20.7746 0.792084 21.5631C1.02733 22.264 1.31252 22.9418 1.64227 23.5933L3.60515 22.5972L3.8834 21.067C3.87333 20.7691 3.79915 20.4708 3.65465 20.1941Z" fill="#58D4FA"/>
<path d="M13.205 13.502C12.6854 12.9824 11.843 12.9824 11.3234 13.502L10.4092 14.4162C9.88966 14.9357 9.8896 15.7782 10.4092 16.2978C10.9288 16.8173 11.7712 16.8173 12.2908 16.2978L13.205 15.3836C13.7246 14.864 13.7246 14.0216 13.205 13.502Z" fill="#E8F8FC"/>
<path d="M13.2726 24.3726C12.8492 23.9064 12.1767 23.8213 11.6607 24.1147C12.1387 23.6029 12.1294 22.8012 11.6304 22.3022C11.2079 21.8797 10.5681 21.8085 10.0711 22.0866L10.1808 21.9768C10.6636 21.4939 10.7151 20.6574 10.2574 20.1506C9.86475 19.7157 9.256 19.6107 8.75719 19.8324L6.773 20.2614L3.99219 23.7741L4.43987 27.4687C4.76575 27.7974 5.10669 28.111 5.46106 28.4092H6.33269V29.0906C7.06419 29.6211 7.84381 30.0892 8.66488 30.4856C9.04756 30.2649 9.40825 29.9917 9.73556 29.6644L11.3442 28.0558L11.2614 27.4894L12.1207 27.2793L13.1993 26.2007C13.6964 25.7035 13.7451 24.8932 13.2726 24.3726Z" fill="#E8F8FC"/>
<path d="M5.26305 15.8663C4.80317 15.4995 4.13292 15.5748 3.76605 16.0347L2.31836 17.8493L2.96736 18.8915L4.05867 19.084L5.43142 17.3634C5.7983 16.9035 5.72298 16.2333 5.26305 15.8663Z" fill="#ADE9F7"/>
<path d="M2.66587 20.6904C3.48667 20.6904 4.15206 20.025 4.15206 19.2042C4.15206 18.3834 3.48667 17.718 2.66587 17.718C1.84508 17.718 1.17969 18.3834 1.17969 19.2042C1.17969 20.025 1.84508 20.6904 2.66587 20.6904Z" fill="#27A6FF"/>
<path d="M30.0073 0.900837C28.8076 -0.29885 26.863 -0.300475 25.6613 0.89715C25.4578 1.10065 25.1915 1.22934 24.9055 1.26215L21.3679 1.7869C20.0374 1.98427 18.9583 2.96984 18.6649 4.25334L19.3038 4.90927L19.3134 6.0974C18.5196 6.89121 14.7411 10.6697 14.2269 11.1839C13.7325 11.6784 13.7616 12.5061 14.3144 12.9613C14.795 13.357 15.5042 13.3025 15.9444 12.8623L19.0713 9.73534L26.2923 2.51446C27.4662 1.34052 29.3986 0.959337 30.7961 1.68971L30.0073 0.900837Z" fill="#FFAA7B"/>
<path d="M18.6877 4.16151L19.6952 3.89345C20.3775 3.71195 20.8605 4.55014 20.3612 5.04939L19.3132 6.09745C19.1256 5.85339 18.5137 5.55395 18.6001 4.6527C18.6162 4.4847 18.6461 4.32076 18.6877 4.16151Z" fill="#F7965B"/>
<path d="M9.76441 17.0289C9.24922 16.4662 8.37491 16.4517 7.84122 16.9854L2.44941 22.3772C2.10716 22.7194 1.82328 23.0979 1.59766 23.5002C2.16591 24.6419 2.87197 25.7029 3.69497 26.6608L4.82047 26.3361V24.1643L6.70903 21.8807L8.75778 19.8319L9.69334 18.8964C10.1887 18.4009 10.2375 17.5456 9.76441 17.0289Z" fill="#ADE9F7"/>
<path d="M10.0052 17.9567C10.6984 17.9567 11.2604 17.3947 11.2604 16.7015C11.2604 16.0083 10.6984 15.4463 10.0052 15.4463C9.31197 15.4463 8.75 16.0083 8.75 16.7015C8.75 17.3947 9.31197 17.9567 10.0052 17.9567Z" fill="#02C0FC"/>
<path d="M8.94764 24.8822L5.43945 28.3903C5.73589 28.6407 6.04177 28.8801 6.35683 29.1077L9.35627 26.1082L11.3242 28.0761L12.1415 27.2588L9.76489 24.8822C9.53933 24.6565 9.17333 24.6565 8.94764 24.8822Z" fill="#3FEADD"/>
<path d="M5.99116 21.9261L4.22022 23.697C4.08947 23.8278 4.02916 24.0132 4.05797 24.1958L4.33903 25.9757L3.67578 26.6389C3.92672 26.9321 4.18816 27.2159 4.46022 27.4893L5.36453 26.5849C5.49528 26.4542 5.55559 26.2688 5.52672 26.0862L5.24572 24.3063L6.80853 22.7434C7.03422 22.5178 7.03422 22.1518 6.80853 21.9261C6.58284 21.7004 6.21684 21.7004 5.99116 21.9261Z" fill="#02C0FC"/>
</g>
<defs>
<clipPath id="clip0_65_5423">
<rect width="32" height="32" fill="white"/>
</clipPath>
</defs>
</svg>
