<svg width="32" height="32" viewBox="0 0 32 32" fill="none" xmlns="http://www.w3.org/2000/svg">
<g clip-path="url(#clip0_65_3465)">
<path d="M20.6172 27.0605H27.3131C27.8308 27.0605 28.2506 26.6408 28.2506 26.123C28.2506 25.6053 27.8308 25.1855 27.3131 25.1855H20.6172C20.0994 25.1855 19.6797 25.6053 19.6797 26.123C19.6797 26.6408 20.0994 27.0605 20.6172 27.0605Z" fill="#CFDBFD"/>
<path d="M22.3789 8.5431C22.8967 8.5431 23.3164 8.12335 23.3164 7.6056V4.65723H27.3122C27.83 4.65723 28.2497 4.23748 28.2497 3.71973C28.2497 3.20198 27.83 2.78223 27.3122 2.78223H22.3789C21.8612 2.78223 21.4414 3.20198 21.4414 3.71973V7.6056C21.4414 8.12335 21.8612 8.5431 22.3789 8.5431Z" fill="#CFDBFD"/>
<path d="M26.3672 15.8037H31.0634C31.5812 15.8037 32.0009 15.384 32.0009 14.8662C32.0009 14.3485 31.5812 13.9287 31.0634 13.9287H26.3672C25.8494 13.9287 25.4297 14.3485 25.4297 14.8662C25.4297 15.384 25.8494 15.8037 26.3672 15.8037Z" fill="#CFDBFD"/>
<path d="M24.9863 20.2432H28.9308C29.4485 20.2432 29.8683 19.8234 29.8683 19.3057C29.8683 18.7879 29.4485 18.3682 28.9308 18.3682H24.9863C24.4686 18.3682 24.0488 18.7879 24.0488 19.3057C24.0488 19.8234 24.4686 20.2432 24.9863 20.2432Z" fill="#CFDBFD"/>
<path d="M29.1882 5.42337C30.1293 5.42337 30.8921 4.66052 30.8921 3.7195C30.8921 2.77848 30.1293 2.01562 29.1882 2.01562C28.2472 2.01562 27.4844 2.77848 27.4844 3.7195C27.4844 4.66052 28.2472 5.42337 29.1882 5.42337Z" fill="#F05D2A" fill-opacity="0.7"/>
<path d="M29.1882 27.8267C30.1293 27.8267 30.8921 27.0638 30.8921 26.1228C30.8921 25.1818 30.1293 24.4189 29.1882 24.4189C28.2472 24.4189 27.4844 25.1818 27.4844 26.1228C27.4844 27.0638 28.2472 27.8267 29.1882 27.8267Z" fill="#F05D2A" fill-opacity="0.7"/>
<path d="M26.375 3.71973C26.375 2.16891 27.6367 0.907227 29.1875 0.907227C30.7383 0.907227 32 2.16891 32 3.71973C32 5.27054 30.7383 6.53223 29.1875 6.53223C27.6367 6.53223 26.375 5.2706 26.375 3.71973ZM28.25 3.71973C28.25 4.23666 28.6706 4.65723 29.1875 4.65723C29.7044 4.65723 30.125 4.23666 30.125 3.71973C30.125 3.20279 29.7044 2.78223 29.1875 2.78223C28.6706 2.78223 28.25 3.20279 28.25 3.71973Z" fill="#F15D2A"/>
<path d="M26.375 26.123C26.375 24.5722 27.6367 23.3105 29.1875 23.3105C30.7383 23.3105 32 24.5722 32 26.123C32 27.6739 30.7383 28.9355 29.1875 28.9355C27.6367 28.9355 26.375 27.6739 26.375 26.123ZM28.25 26.123C28.25 26.64 28.6706 27.0605 29.1875 27.0605C29.7044 27.0605 30.125 26.64 30.125 26.123C30.125 25.6061 29.7044 25.1855 29.1875 25.1855C28.6706 25.1855 28.25 25.606 28.25 26.123Z" fill="#F15D2A"/>
<path d="M11.3834 27.0605H4.6875C4.16975 27.0605 3.75 26.6408 3.75 26.123C3.75 25.6053 4.16975 25.1855 4.6875 25.1855H11.3834C11.9011 25.1855 12.3209 25.6053 12.3209 26.123C12.3209 26.6408 11.9011 27.0605 11.3834 27.0605Z" fill="#E8F1FD"/>
<path d="M9.62081 8.5431C9.10306 8.5431 8.68331 8.12335 8.68331 7.6056V4.65723H4.6875C4.16975 4.65723 3.75 4.23748 3.75 3.71973C3.75 3.20198 4.16975 2.78223 4.6875 2.78223H9.62081C10.1386 2.78223 10.5583 3.20198 10.5583 3.71973V7.6056C10.5583 8.12335 10.1386 8.5431 9.62081 8.5431Z" fill="#E8F1FD"/>
<path d="M5.63375 15.8037H0.9375C0.41975 15.8037 0 15.384 0 14.8662C0 14.3485 0.41975 13.9287 0.9375 13.9287H5.63375C6.1515 13.9287 6.57125 14.3485 6.57125 14.8662C6.57125 15.384 6.1515 15.8037 5.63375 15.8037Z" fill="#E8F1FD"/>
<path d="M7.01475 20.2432H3.07031C2.55256 20.2432 2.13281 19.8234 2.13281 19.3057C2.13281 18.7879 2.55256 18.3682 3.07031 18.3682H7.01475C7.5325 18.3682 7.95225 18.7879 7.95225 19.3057C7.95225 19.8234 7.5325 20.2432 7.01475 20.2432Z" fill="#E8F1FD"/>
<path d="M2.81325 5.42337C3.75427 5.42337 4.51713 4.66052 4.51713 3.7195C4.51713 2.77848 3.75427 2.01562 2.81325 2.01562C1.87223 2.01562 1.10938 2.77848 1.10938 3.7195C1.10938 4.66052 1.87223 5.42337 2.81325 5.42337Z" fill="#FB6514" fill-opacity="0.7"/>
<path d="M2.81325 27.8267C3.75427 27.8267 4.51713 27.0638 4.51713 26.1228C4.51713 25.1818 3.75427 24.4189 2.81325 24.4189C1.87223 24.4189 1.10938 25.1818 1.10938 26.1228C1.10938 27.0638 1.87223 27.8267 2.81325 27.8267Z" fill="#FB6514" fill-opacity="0.7"/>
<path d="M2.8125 6.53223C1.26169 6.53223 0 5.27054 0 3.71973C0 2.16891 1.26169 0.907227 2.8125 0.907227C4.36331 0.907227 5.625 2.16891 5.625 3.71973C5.625 5.27054 4.36331 6.53223 2.8125 6.53223ZM2.8125 2.78223C2.29556 2.78223 1.875 3.20279 1.875 3.71973C1.875 4.23666 2.29556 4.65723 2.8125 4.65723C3.32944 4.65723 3.75 4.23666 3.75 3.71973C3.75 3.20279 3.32944 2.78223 2.8125 2.78223Z" fill="#F05D2A"/>
<path d="M2.8125 28.9355C1.26169 28.9355 0 27.6739 0 26.123C0 24.5722 1.26169 23.3105 2.8125 23.3105C4.36331 23.3105 5.625 24.5722 5.625 26.123C5.625 27.6739 4.36331 28.9355 2.8125 28.9355ZM2.8125 25.1855C2.29556 25.1855 1.875 25.6061 1.875 26.123C1.875 26.64 2.29556 27.0605 2.8125 27.0605C3.32944 27.0605 3.75 26.64 3.75 26.123C3.75 25.6061 3.32944 25.1855 2.8125 25.1855Z" fill="#F05D2A"/>
<path d="M26.0251 16.1404C24.9251 20.0672 22.2926 25.6529 16.0001 30.2641C10.9614 26.5785 7.5995 21.8604 6.00012 16.2279C5.08012 12.9872 5.03075 10.3229 5.0695 9.14035C11.5245 7.08348 14.6695 4.8866 16.0001 3.71973C17.3307 4.8866 20.4757 7.0841 26.932 9.14035C26.972 10.3079 26.9264 12.9216 26.0251 16.1404Z" fill="#1D5166" fill-opacity="0.3"/>
<path d="M26.025 16.1404C24.925 20.0672 22.2925 25.6529 16 30.2641V3.71973C17.3306 4.8866 20.4756 7.0841 26.9319 9.14035C26.9719 10.3079 26.9262 12.9216 26.025 16.1404Z" fill="#1D5166" fill-opacity="0.5"/>
<path d="M16.5806 29.704L16.0008 29.0044C11.4408 25.6688 8.39768 21.3981 6.95018 16.3006C6.11768 13.3675 6.07331 10.9562 6.10831 9.88625C11.9502 8.02437 14.7964 6.03625 16.0008 4.98L16.5806 4.40369V3.57781L16.0008 2.70312C15.7008 2.70312 15.4314 2.84688 15.2552 3.08938C15.1571 3.20812 12.8914 5.85437 4.93831 8.2875C4.58206 8.39625 4.32393 8.70625 4.28143 9.07687C4.26581 9.21125 3.91643 12.4213 5.12206 16.7269C5.82831 19.2481 6.92518 21.6294 8.38206 23.805C10.1989 26.5187 12.5814 28.9144 15.4646 30.925C15.6258 31.0375 15.8133 31.0938 16.0008 31.0938L16.5806 30.3396V29.704Z" fill="#1D5166" fill-opacity="0.5"/>
<path d="M16.5409 9.76931L16 9C13.7869 9 11.9863 10.8006 11.9863 13.0138V14.4656C11.9863 14.9831 12.4063 15.4031 12.9238 15.4031C13.4419 15.4031 13.8613 14.9831 13.8613 14.4656V13.0138C13.8613 11.8344 14.8206 10.875 16 10.875L16.5409 10.2759V9.76931Z" fill="#404A80"/>
<path d="M26.8787 16.7269C26.1725 19.2481 25.0756 21.6294 23.6187 23.805C21.8019 26.5187 19.4194 28.9144 16.5362 30.925C16.375 31.0375 16.1875 31.0938 16 31.0938V29.0044C21.695 24.8306 24.0775 19.7756 25.0731 16.2213C25.8888 13.3081 25.93 10.9425 25.8937 9.88625C20.0506 8.025 17.2044 6.03625 16 4.98V2.70312C16.3 2.70312 16.5694 2.84688 16.7456 3.08938C16.8437 3.20812 19.1094 5.85437 27.0625 8.2875C27.4187 8.39625 27.6769 8.70625 27.7194 9.07687C27.735 9.21125 28.0844 12.4213 26.8787 16.7269Z" fill="#1D5166"/>
<path d="M20.0138 13.0138V14.4656C20.0138 14.9831 19.5938 15.4031 19.0763 15.4031C18.5581 15.4031 18.1388 14.9831 18.1388 14.4656V13.0138C18.1388 11.8344 17.1794 10.875 16 10.875V9C18.2131 9 20.0138 10.8006 20.0138 13.0138Z" fill="#283366"/>
<path d="M16.8394 15.4031L16.0005 13.5283H12.5505C11.608 13.5283 10.8418 14.2946 10.8418 15.2371V20.6058C10.8418 21.5483 11.608 22.3146 12.5505 22.3146H16.0005L16.8394 20.0771V15.4031Z" fill="#F05D2A"/>
<path d="M21.1588 15.2371V20.6058C21.1588 21.5483 20.3925 22.3146 19.45 22.3146H16V13.5283H19.45C20.3925 13.5283 21.1588 14.2946 21.1588 15.2371Z" fill="#F15D2A"/>
<path d="M16.9375 17.4658V18.3771C16.9375 18.8952 16.5175 19.3146 16 19.3146C15.4825 19.3146 15.0625 18.8952 15.0625 18.3771V17.4658C15.0625 16.9477 15.4825 16.5283 16 16.5283C16.5175 16.5283 16.9375 16.9476 16.9375 17.4658Z" fill="#404A80"/>
<path d="M16.9375 17.4658V18.3771C16.9375 18.8952 16.5175 19.3146 16 19.3146V16.5283C16.5175 16.5283 16.9375 16.9476 16.9375 17.4658Z" fill="#283366"/>
</g>
<defs>
<clipPath id="clip0_65_3465">
<rect width="32" height="32" fill="white"/>
</clipPath>
</defs>
</svg>
