<svg width="24" height="24" viewBox="0 0 24 24" fill="none" xmlns="http://www.w3.org/2000/svg">
<g clip-path="url(#clip0_543_169)">
<path d="M6.16699 13.1935L8.47802 15.5217L10.5081 14.8247L11.372 12.6277L9.0708 10.3094L6.16699 13.1935Z" fill="#E1E6F0"/>
<path d="M10.6872 17.7479L13.591 14.8639L11.3716 12.6279L8.47754 15.5219L10.6872 17.7479Z" fill="#C1CDE5"/>
<path d="M21.857 4.6875e-05C21.8408 0 21.8245 0 21.8082 0C20.2428 0 18.7078 0.257531 17.2417 0.764297C16.5368 2.30428 16.8595 5.00555 17.9156 6.04645C17.9219 6.05264 17.9286 6.05878 17.935 6.06492L21.6573 3.7222L23.9926 0.00726563L21.857 4.6875e-05Z" fill="#FF6F43"/>
<path d="M17.9346 6.06542C19.0061 7.0948 21.8781 7.67239 23.2312 6.66308C23.7308 5.21478 23.987 3.69823 23.9923 2.15084L23.9995 0.0078125H23.9922L17.9346 6.06542Z" fill="#FF2732"/>
<path d="M8.65331 4.97842C7.629 5.43498 6.77541 6.18085 6.18483 7.13537L4.18945 10.3602L8.07938 11.3074L9.15816 10.2583L11.868 4.57553C10.7781 4.38746 9.66647 4.52678 8.65331 4.97842Z" fill="#476495"/>
<path d="M19.3487 12.1074L13.6476 14.7785L12.5908 15.8504L13.5118 19.7464L16.7502 17.773C17.7087 17.1889 18.4604 16.3404 18.924 15.3193C19.3825 14.3092 19.5294 13.1986 19.3487 12.1074Z" fill="#3B4C7A"/>
<path d="M17.2412 0.764648C17.191 0.782039 17.1406 0.798914 17.0905 0.816867C15.6154 1.34576 14.2471 2.11573 13.0235 3.10549C10.5702 5.0899 8.84391 7.86973 8.16259 10.9329L8.0791 11.3082L10.3775 13.6223L16.4178 9.77754L19.2583 4.74148C18.1918 3.69841 17.4604 2.31391 17.2412 0.764648Z" fill="#F3F5F9"/>
<path d="M10.3779 13.6221L12.5913 15.8505L12.9672 15.7696C16.0349 15.1091 18.8264 13.4017 20.8275 10.962C21.8256 9.74526 22.6049 8.38218 23.1438 6.91077C23.174 6.82832 23.203 6.74554 23.2316 6.66266C21.6936 6.4693 20.3126 5.77185 19.2588 4.74121L10.3779 13.6221Z" fill="#E1E6F0"/>
<path d="M0.581055 22.3936L5.1942 17.8129L6.18561 18.8113L1.57246 23.392L0.581055 22.3936Z" fill="#FFA200"/>
<path d="M0.00488281 18.9905L2.62112 16.3927L3.61253 17.3911L0.996289 19.9889L0.00488281 18.9905Z" fill="#FECC45"/>
<path d="M3.61816 15.4005L4.6166 14.4091L5.60801 15.4075L4.60957 16.399L3.61816 15.4005Z" fill="#FFE966"/>
<path d="M5.99609 21.0284L8.61237 18.4306L9.60377 19.429L6.9875 22.0269L5.99609 21.0284Z" fill="#FECC45"/>
<path d="M4.00122 23.0118L4.99966 22.0204L5.99106 23.0189L4.99263 24.0103L4.00122 23.0118Z" fill="#FF6F43"/>
<path d="M15.6153 5.79102C14.2254 5.79102 13.0986 6.91775 13.0986 8.30764C13.0986 9.02225 13.3969 9.66678 13.8753 10.1249L16.3456 9.28616L17.4325 6.56764C16.9744 6.08933 16.3299 5.79102 15.6153 5.79102Z" fill="#E1E6F0"/>
<path d="M13.875 10.1246C14.327 10.5576 14.9397 10.8241 15.615 10.8241C17.0049 10.8241 18.1317 9.69732 18.1317 8.30738C18.1317 7.6321 17.8652 7.0194 17.4323 6.56738L13.875 10.1246Z" fill="#C1CDE5"/>
</g>
<defs>
<clipPath id="clip0_543_169">
<rect width="24" height="24" fill="white"/>
</clipPath>
</defs>
</svg>
