<svg width="32" height="32" viewBox="0 0 32 32" fill="none" xmlns="http://www.w3.org/2000/svg">
<g clip-path="url(#clip0_65_5400)">
<path fill-rule="evenodd" clip-rule="evenodd" d="M10.8898 25.1708H17.804C18.2989 22.0079 21.8755 20.7737 21.8755 15.8827H19.5206C19.1059 15.8836 18.8582 16.3419 19.0852 16.6894C19.2044 16.8719 19.2737 17.0899 19.2737 17.3242C19.2737 17.9662 18.7532 18.4867 18.1112 18.4867C17.4692 18.4867 16.9487 17.9662 16.9487 17.3242C16.9487 17.0899 17.018 16.8719 17.1372 16.6894C17.3642 16.3419 17.1165 15.8836 16.7018 15.8827H14.3469V13.7024C14.3461 13.2877 13.8878 13.0399 13.5403 13.2669C13.3578 13.3861 13.1397 13.4554 12.9055 13.4554C12.2634 13.4554 11.743 12.935 11.743 12.2929C11.743 11.6509 12.2634 11.1304 12.9055 11.1304C13.1397 11.1304 13.3578 11.1997 13.5403 11.3189C13.8878 11.5459 14.3461 11.2983 14.3469 10.8835V8.70312C10.1798 8.75437 6.81836 11.9489 6.81836 15.8827C6.81836 20.7737 10.3949 22.0078 10.8898 25.1708Z" fill="#F05D2A"/>
<path fill-rule="evenodd" clip-rule="evenodd" d="M17.5587 28.4772C17.4013 30.0687 16.0241 31.313 14.3483 31.313C12.6638 31.313 11.2811 30.0557 11.1358 28.4523L10.6719 26.2383H18.0224L17.5587 28.4772Z" fill="#E0DFE1"/>
<path fill-rule="evenodd" clip-rule="evenodd" d="M10.672 24.0273H18.0225C18.6306 24.0273 19.1281 24.5248 19.1281 25.1329C19.1281 25.741 18.6306 26.2385 18.0225 26.2385C18.6306 26.2385 19.1281 26.736 19.1281 27.344C19.1281 27.9521 18.6306 28.4496 18.0225 28.4496H10.672C10.0639 28.4496 9.56641 27.9521 9.56641 27.344C9.56641 26.736 10.0639 26.2385 10.672 26.2385C10.0639 26.2385 9.56641 25.741 9.56641 25.1329C9.56641 24.5248 10.0639 24.0273 10.672 24.0273Z" fill="#F0F0F0"/>
<path fill-rule="evenodd" clip-rule="evenodd" d="M27.305 15.7629C27.5639 15.7629 27.7738 15.9728 27.7738 16.2316C27.7738 16.4905 27.5639 16.7004 27.305 16.7004H25.0422C24.7833 16.7004 24.5734 16.4905 24.5734 16.2316C24.5734 15.9728 24.7833 15.7629 25.0422 15.7629H27.305ZM3.40286 23.1037C3.17936 23.2331 2.89323 23.1569 2.7638 22.9334C2.63436 22.7099 2.71061 22.4238 2.93411 22.2943L4.8938 21.1629C5.1173 21.0334 5.40342 21.1097 5.53286 21.3332C5.6623 21.5567 5.58605 21.8428 5.36255 21.9722L3.40286 23.1037ZM1.43555 16.7004C1.17667 16.7004 0.966797 16.4906 0.966797 16.2317C0.966797 15.9728 1.17667 15.7629 1.43555 15.7629H3.69842C3.9573 15.7629 4.16717 15.9728 4.16717 16.2317C4.16717 16.4906 3.9573 16.7004 3.69842 16.7004H1.43555ZM2.93592 10.1689C2.71242 10.0405 2.63536 9.75519 2.7638 9.53175C2.89223 9.30825 3.17755 9.23119 3.40098 9.35962L5.36067 10.4911C5.58417 10.6195 5.66123 10.9048 5.5328 11.1283C5.40436 11.3518 5.11905 11.4288 4.89561 11.3004L2.93592 10.1689ZM7.4983 5.26238C7.36986 5.03888 7.44692 4.75356 7.67042 4.62519C7.89392 4.49675 8.17917 4.57381 8.30761 4.79731L9.43905 6.757C9.56748 6.9805 9.49042 7.26581 9.26692 7.39419C9.04342 7.52263 8.75817 7.44556 8.62973 7.22206L7.4983 5.26238ZM13.9015 3.29688C13.9015 3.038 14.1114 2.82812 14.3703 2.82812C14.6292 2.82812 14.839 3.038 14.839 3.29688V5.55975C14.839 5.81862 14.6292 6.0285 14.3703 6.0285C14.1114 6.0285 13.9015 5.81862 13.9015 5.55975V3.29688ZM25.8065 22.2943C26.03 22.4238 26.1062 22.7099 25.9768 22.9334C25.8474 23.1569 25.5612 23.2331 25.3377 23.1037L23.378 21.9722C23.1545 21.8428 23.0783 21.5567 23.2077 21.3332C23.3372 21.1097 23.6233 21.0334 23.8468 21.1629L25.8065 22.2943Z" fill="#F05D2A"/>
<path fill-rule="evenodd" clip-rule="evenodd" d="M27.4948 1.48438L29.3667 3.35569C30.2804 4.93819 29.7332 6.98044 28.1507 7.89412L23.5087 10.5741L19.3438 10.2389L21.426 3.63869C21.5584 3.21881 21.9262 2.94225 22.3664 2.93162C23.923 2.89387 25.4363 2.67288 27.4948 1.48438Z" fill="#FEDFC5"/>
<path fill-rule="evenodd" clip-rule="evenodd" d="M25.7382 11.743C25.7382 7.80923 22.3767 4.61473 18.2096 4.56348V6.74273C18.2096 7.1581 17.7508 7.40648 17.403 7.17929C17.2205 7.06004 17.0024 6.99079 16.7682 6.99079C16.1261 6.99079 15.6057 7.51123 15.6057 8.15329C15.6057 8.79529 16.1261 9.31573 16.7682 9.31573C17.0025 9.31573 17.2205 9.24641 17.403 9.12723C17.7508 8.90004 18.2096 9.14841 18.2096 9.56379V11.743H20.5633C20.9788 11.743 21.2271 12.2019 20.9999 12.5497C20.8807 12.7322 20.8114 12.9502 20.8114 13.1844C20.8114 13.8265 21.3318 14.3469 21.9739 14.3469C22.6159 14.3469 23.1364 13.8265 23.1364 13.1844C23.1364 12.9502 23.0671 12.7321 22.9478 12.5497C22.7206 12.2019 22.969 11.743 23.3844 11.743H25.7382Z" fill="#F05D2A"/>
<path fill-rule="evenodd" clip-rule="evenodd" d="M23.6841 5.31519C25.4168 5.42369 26.2831 5.47794 26.2831 5.47794L24.4953 8.57469C24.175 9.12937 23.457 9.32175 22.9023 9.0015C22.347 8.68081 22.1548 7.96406 22.4755 7.40862L23.6841 5.31519Z" fill="#FECBAA"/>
<path fill-rule="evenodd" clip-rule="evenodd" d="M29.6714 6.40945L26.9176 1.63976C26.8092 1.45201 26.8741 1.20964 27.062 1.1012L27.6875 0.740014C27.8753 0.631576 28.1177 0.696576 28.2261 0.884326L30.9798 5.65401C31.0882 5.84176 31.0233 6.08414 30.8355 6.19258L30.21 6.55376C30.0222 6.6622 29.7798 6.5972 29.6714 6.40945Z" fill="#C9F0FF"/>
</g>
<defs>
<clipPath id="clip0_65_5400">
<rect width="32" height="32" fill="white"/>
</clipPath>
</defs>
</svg>
