<svg width="32" height="32" viewBox="0 0 32 32" fill="none" xmlns="http://www.w3.org/2000/svg">
<g clip-path="url(#clip0_65_3530)">
<path d="M16.0574 28.8928C8.9104 28.8928 3.0957 23.0784 3.0957 15.9312C3.0957 8.78418 8.9104 2.96973 16.0574 2.96973C23.2043 2.96973 29.0188 8.78418 29.0188 15.9312C29.0188 23.0784 23.2043 28.8928 16.0574 28.8928ZM16.0574 4.02515C9.49219 4.02515 4.15137 9.36621 4.15137 15.9312C4.15137 22.4963 9.49219 27.8372 16.0574 27.8372C22.6223 27.8372 27.9634 22.4963 27.9634 15.9312C27.9634 9.36621 22.6223 4.02515 16.0574 4.02515Z" fill="#FFD151"/>
<path d="M12.0161 5.91431C12.0161 9.21509 9.34009 11.8911 6.03931 11.8911C2.73828 11.8911 0.0625 9.21509 0.0625 5.91431C0.0625 2.61353 2.73828 -0.0625 6.03931 -0.0625C9.34009 -0.0625 12.0161 2.61353 12.0161 5.91431Z" fill="#64E8FF"/>
<path d="M6.04053 -0.0625C5.69312 -0.0625 5.35278 -0.0324707 5.02148 0.0244141C7.83691 0.508057 9.97949 2.96069 9.97949 5.91431C9.97949 8.86792 7.83691 11.3206 5.02148 11.8042C5.35278 11.8611 5.69312 11.8911 6.04053 11.8911C9.34131 11.8911 12.0173 9.21509 12.0173 5.91431C12.0173 2.61353 9.34131 -0.0625 6.04053 -0.0625Z" fill="#0FD9FF"/>
<path d="M32.051 5.91431C32.051 9.21509 29.3752 11.8911 26.0742 11.8911C22.7734 11.8911 20.0977 9.21509 20.0977 5.91431C20.0977 2.61353 22.7734 -0.0625 26.0742 -0.0625C29.3752 -0.0625 32.051 2.61353 32.051 5.91431Z" fill="#6193FF"/>
<path d="M32.0466 5.74322C31.9521 2.44366 29.2007 -0.154485 25.9014 -0.0600026C25.5869 -0.0509694 25.2791 -0.0177663 24.979 0.0376536C27.6895 0.539607 29.7773 2.87652 29.8594 5.74322C29.9451 8.72833 27.8264 11.2647 24.9785 11.7908C25.3877 11.8668 25.8108 11.9009 26.2434 11.8887C29.543 11.794 32.1411 9.04278 32.0466 5.74322Z" fill="#407BFF"/>
<path d="M12.0161 25.9612C12.0161 29.2622 9.34009 31.938 6.03931 31.938C2.73828 31.938 0.0625 29.2622 0.0625 25.9612C0.0625 22.6604 2.73828 19.9844 6.03931 19.9844C9.34009 19.9844 12.0161 22.6604 12.0161 25.9612Z" fill="#FF6969"/>
<path d="M6.03955 19.9844C5.57666 19.9844 5.12598 20.0371 4.69336 20.1367C7.34595 20.7473 9.32398 23.1233 9.32398 25.9612C9.32398 28.7993 7.34595 31.175 4.69336 31.7856C5.12598 31.8853 5.57666 31.938 6.03955 31.938C9.34033 31.938 12.0164 29.2622 12.0164 25.9612C12.0164 22.6604 9.34033 19.9844 6.03955 19.9844Z" fill="#FF4848"/>
<path d="M32.0491 25.9612C32.0491 29.2622 29.3733 31.938 26.0723 31.938C22.7715 31.938 20.0957 29.2622 20.0957 25.9612C20.0957 22.6604 22.7715 19.9844 26.0723 19.9844C29.3733 19.9844 32.0491 22.6604 32.0491 25.9612Z" fill="#F05D2A"/>
<path d="M26.074 19.9844C25.6611 19.9844 25.2583 20.0264 24.8691 20.106C27.5925 20.6633 29.6411 23.073 29.6411 25.9612C29.6411 28.8494 27.5925 31.259 24.8691 31.8164C25.2583 31.896 25.6611 31.938 26.074 31.938C29.3748 31.938 32.0505 29.2622 32.0505 25.9612C32.0505 22.6604 29.3748 19.9844 26.074 19.9844Z" fill="#FFAA8C" fill-opacity="0.3"/>
<path d="M8.86511 3.58802C8.63708 3.72548 8.3927 3.83412 8.13708 3.91102C7.6615 3.36415 6.83288 3.30653 6.28601 3.78212C5.99499 4.03529 5.82995 4.4037 5.83508 4.78969V5.08241C4.84094 5.10829 3.89709 4.65907 3.29016 3.87855C3.2489 3.82557 3.16516 3.839 3.14319 3.90223C2.94421 4.47181 2.40051 6.55726 4.66369 7.56312C4.15588 7.90761 3.56653 8.1078 2.95813 8.14515C2.86926 8.15053 2.84558 8.2704 2.92639 8.30775C5.49743 9.49525 8.47107 8.01649 8.47107 4.78065C8.47082 4.69911 8.46277 4.61781 8.44763 4.53773C8.68982 4.29872 8.87439 4.00868 8.98865 3.69008C9.01526 3.61561 8.93298 3.54725 8.86511 3.58802Z" fill="white"/>
<path d="M25.6548 9.70215C25.3633 9.70215 25.127 9.46582 25.127 9.17432V3.97803C25.127 2.95679 25.9578 2.12598 26.979 2.12598H27.604C27.8955 2.12598 28.1318 2.3623 28.1318 2.65381C28.1318 2.94531 27.8955 3.1814 27.604 3.1814H26.979C26.5398 3.1814 26.1824 3.53882 26.1824 3.97803V9.17432C26.1824 9.46582 25.946 9.70215 25.6548 9.70215Z" fill="white"/>
<path d="M26.8826 6.33984H24.4868C24.1953 6.33984 23.959 6.10352 23.959 5.81201C23.959 5.52051 24.1953 5.28418 24.4868 5.28418H26.8826C27.1741 5.28418 27.4104 5.52051 27.4104 5.81201C27.4104 6.10352 27.1741 6.33984 26.8826 6.33984Z" fill="white"/>
<path d="M4.76355 25.8947V23.9963C4.76355 23.8564 4.91467 23.7692 5.03577 23.839L6.67908 24.7883L8.32263 25.7375C8.44348 25.8075 8.44348 25.9821 8.32263 26.0522L6.67908 27.0014L5.03577 27.9506C4.91467 28.0204 4.76355 27.933 4.76355 27.7934V25.8947Z" fill="white"/>
<path d="M28.1724 29.426H23.9763C23.2227 29.426 22.6094 28.8127 22.6094 28.0591V23.863C22.6094 23.1091 23.2227 22.4961 23.9763 22.4961H28.1724C28.926 22.4961 29.5393 23.1091 29.5393 23.863V28.0591C29.5393 28.8127 28.926 29.426 28.1724 29.426ZM23.9763 23.5515C23.8044 23.5515 23.6648 23.6912 23.6648 23.863V28.0591C23.6648 28.2307 23.8044 28.3704 23.9763 28.3704H28.1724C28.344 28.3704 28.4839 28.2307 28.4839 28.0591V23.863C28.4839 23.6912 28.344 23.5515 28.1724 23.5515H23.9763Z" fill="white"/>
<path d="M26.0747 27.4651C25.2451 27.4651 24.5703 26.79 24.5703 25.9604C24.5703 25.1309 25.2451 24.4561 26.0747 24.4561C26.9043 24.4561 27.5793 25.1309 27.5793 25.9604C27.5793 26.79 26.9043 27.4651 26.0747 27.4651ZM26.0747 25.5115C25.8271 25.5115 25.6257 25.7129 25.6257 25.9604C25.6257 26.208 25.8271 26.4094 26.0747 26.4094C26.3225 26.4094 26.5237 26.208 26.5237 25.9604C26.5239 25.7129 26.3225 25.5115 26.0747 25.5115Z" fill="white"/>
<path d="M14.1912 20.7382L14 17.0607C13.9849 16.7697 13.7371 16.5468 13.4455 16.5612C13.1545 16.5763 12.9309 16.8246 12.946 17.1157L13.1372 20.7931C13.1518 21.0749 13.3848 21.2934 13.6638 21.2934C13.6731 21.2934 13.6821 21.2931 13.6916 21.2927C13.9827 21.2775 14.2063 21.0295 14.1912 20.7382Z" fill="#83A7C5"/>
<path d="M14.7844 17.0886H12.5735C12.3052 17.0886 12.0879 16.8711 12.0879 16.6028V14.0667C12.0879 13.7986 12.3052 13.5811 12.5735 13.5811H14.7844C14.8262 13.5811 14.8601 13.615 14.8601 13.6567V17.0129C14.8601 17.0547 14.8262 17.0886 14.7844 17.0886Z" fill="#F05D2A"/>
<path d="M19.5493 18.7751C18.8923 18.3726 18.0732 17.9404 17.0972 17.5652C16.2783 17.2502 15.5188 17.0408 14.8574 16.8992C14.8574 15.8562 14.8574 14.8135 14.8574 13.7708C15.5208 13.6296 16.2844 13.4199 17.1086 13.1025C18.0813 12.7278 18.8965 12.2959 19.5493 11.8945V18.7751Z" fill="#E5F4FF"/>
<path d="M19.5493 19.7927C19.2578 19.7927 19.0215 19.5564 19.0215 19.2649V11.4038C19.0215 11.1123 19.2578 10.876 19.5493 10.876C19.8408 10.876 20.0771 11.1123 20.0771 11.4038V19.2649C20.0771 19.5564 19.8408 19.7927 19.5493 19.7927Z" fill="#1D5166"/>
</g>
<defs>
<clipPath id="clip0_65_3530">
<rect width="32" height="32" fill="white"/>
</clipPath>
</defs>
</svg>
