<svg width="19" height="16" viewBox="0 0 19 16" fill="none" xmlns="http://www.w3.org/2000/svg">
<path d="M10.1358 0.0117778C16.1358 -0.301751 20.7183 5.70231 18.376 11.0986C16.6383 15.1025 12.3184 16.8225 8.01616 15.6264C4.11432 14.5416 2.41438 10.388 0.936189 7.11466C0.667174 6.51877 0.28043 5.74395 0.0804863 5.14268C-0.451392 3.54414 1.79497 2.58072 2.65179 4.20371C3.71667 6.22055 4.54832 8.41794 5.6062 10.4461C7.42444 13.6292 11.4283 14.6264 14.3506 12.0946C18.8005 8.23874 14.604 1.21834 8.96694 2.81177C8.11823 3.05169 7.75274 3.37354 7.04636 3.78755C6.00805 4.39607 4.68423 3.58229 5.03797 2.42221C5.16046 2.02029 5.49435 1.82659 5.82628 1.59447C7.20687 0.628894 8.39423 0.103392 10.1358 0.0123151V0.0117778Z" fill="#1D5166"/>
<path d="M10.1959 6.41038C12.5259 6.19985 12.7529 9.38453 10.6252 9.58811C8.17155 9.823 7.94234 6.61395 10.1959 6.41038Z" fill="#F05D2A"/>
</svg>
