<svg width="24" height="24" viewBox="0 0 24 24" fill="none" xmlns="http://www.w3.org/2000/svg">
<g clip-path="url(#clip0_543_128)">
<path d="M16.1283 19.9903C16.1283 18.015 17.7262 16.4079 19.6902 16.4079C20.2586 16.4079 20.7959 16.5432 21.2731 16.7824C21.967 15.3862 22.3603 13.8138 22.3664 12.1493C22.3876 6.34515 17.7002 1.62277 11.8968 1.60163C6.09352 1.58045 1.37184 6.26856 1.35066 12.0727C1.32947 17.8767 6.01688 22.5992 11.8202 22.6204C13.4938 22.6265 15.077 22.2403 16.4838 21.5493C16.2562 21.0777 16.1283 20.5488 16.1283 19.9903Z" fill="#F05D2A"/>
<path d="M2.5402 12.0727C2.56064 6.47982 6.94575 1.92395 12.4573 1.6186C12.2717 1.60815 12.0848 1.60234 11.8968 1.60163C6.09352 1.58045 1.37184 6.26856 1.35066 12.0727C1.32947 17.8767 6.01688 22.5992 11.8202 22.6204C12.0315 22.6211 12.2411 22.6149 12.4493 22.6034C6.90764 22.2917 2.51972 17.6887 2.5402 12.0727Z" fill="#F05D2A" fill-opacity="0.67"/>
<path d="M18.8825 16.5014C19.6774 15.235 20.1405 13.7404 20.1463 12.1406C20.1544 9.9266 19.2999 7.84188 17.7403 6.27058C16.1806 4.69933 14.1024 3.82947 11.8886 3.82146L11.8576 3.82141C7.30472 3.82141 3.58721 7.52632 3.57061 12.0803C3.5625 14.2944 4.41704 16.379 5.97666 17.9504C7.53629 19.5217 9.61444 20.3915 11.8282 20.3995L11.8593 20.3996C13.4607 20.3996 14.9584 19.9408 16.2285 19.1483C16.5434 17.8382 17.5757 16.8074 18.8825 16.5014Z" fill="white"/>
<path d="M7.16596 17.9503C5.60629 16.3789 4.75176 14.2942 4.75987 12.0801C4.77576 7.72555 8.17565 4.14777 12.454 3.84276C12.2666 3.82954 12.078 3.82204 11.8884 3.82134L11.8574 3.82129C7.30448 3.82129 3.58696 7.5262 3.57037 12.0802C3.56226 14.2943 4.41679 16.3789 5.97642 17.9503C7.53604 19.5216 9.6142 20.3914 11.828 20.3994L11.859 20.3995C12.0584 20.3995 12.2561 20.392 12.4521 20.3781C10.4517 20.2368 8.59199 19.3871 7.16596 17.9503Z" fill="#EFE2DD"/>
<path d="M11.8331 18.1795C10.215 18.1736 8.69356 17.5368 7.55169 16.3864C6.40977 15.236 5.78422 13.7097 5.79008 12.0887C5.80222 8.75446 8.52392 6.04199 11.8572 6.04199L11.8829 6.04204C13.5009 6.0479 15.0224 6.68474 16.1643 7.83515C17.3062 8.98555 17.9319 10.5119 17.9259 12.1328C17.9137 15.4661 15.1936 18.178 11.8618 18.1797L11.8331 18.1795Z" fill="#F05D2A"/>
<path d="M8.97917 16.3864C7.83725 15.236 7.21166 13.7097 7.21761 12.0887C7.22886 8.99465 9.57345 6.43649 12.5747 6.0839C12.3467 6.05727 12.1158 6.04288 11.8829 6.04204L11.8572 6.04199C8.52392 6.04199 5.80222 8.75451 5.79008 12.0887C5.78417 13.7097 6.40972 15.236 7.55169 16.3864C8.69361 17.5368 10.2151 18.1736 11.8331 18.1795L11.8618 18.1796C12.101 18.1795 12.3368 18.165 12.5689 18.1377C11.2126 17.9792 9.95675 17.3712 8.97917 16.3864Z" fill="#F05D2A" fill-opacity="0.67"/>
<path d="M11.8394 15.9587C10.8158 15.9549 9.85207 15.5512 9.1278 14.8215C8.40377 14.0921 8.00697 13.1242 8.01077 12.0963C8.0185 9.98189 9.74421 8.26172 11.8578 8.26172L11.8772 8.26177C12.9015 8.26542 13.8654 8.66925 14.5895 9.39881C15.3136 10.1284 15.7103 11.0962 15.7066 12.1242C15.699 14.2365 13.9754 15.956 11.8643 15.9588L11.8394 15.9587Z" fill="white"/>
<path d="M10.3173 14.8215C9.59327 14.092 9.19652 13.1242 9.20032 12.0962C9.2073 10.1829 10.6212 8.59252 12.4563 8.30737C12.2662 8.27798 12.0729 8.26242 11.8772 8.26177L11.8578 8.26172C9.74421 8.26172 8.0185 9.98189 8.01077 12.0963C8.00693 13.1242 8.40372 14.0921 9.1278 14.8215C9.85207 15.5512 10.8158 15.9549 11.8394 15.9587L11.8643 15.9588C12.0636 15.9585 12.2595 15.9428 12.4508 15.9131C11.6463 15.7886 10.9033 15.4118 10.3173 14.8215Z" fill="#EFE2DD"/>
<path d="M11.8455 13.7387C11.4095 13.7371 11.0139 13.5708 10.7031 13.2576C10.3923 12.9446 10.2289 12.5458 10.2305 12.1047C10.2338 11.2112 10.9621 10.4839 11.8545 10.4823L11.8689 10.4823C12.307 10.4839 12.703 10.6503 13.0137 10.9634C13.3245 11.2765 13.488 11.6751 13.4863 12.1163C13.4831 13.0086 12.756 13.7355 11.8649 13.7388L11.8455 13.7387Z" fill="#F05D2A"/>
<path d="M11.6547 13.2576C11.344 12.9446 11.1806 12.5458 11.1821 12.1047C11.1848 11.3735 11.673 10.754 12.3393 10.552C12.1898 10.5065 12.0323 10.483 11.8689 10.4823L11.8545 10.4823C10.962 10.4839 10.2338 11.2112 10.2305 12.1047C10.2289 12.5458 10.3923 12.9446 10.7031 13.2576C11.0139 13.5708 11.4095 13.7372 11.8455 13.7387L11.865 13.7388C12.026 13.7381 12.1816 13.7136 12.3287 13.669C12.0779 13.5926 11.8496 13.454 11.6547 13.2576Z" fill="#F05D2A" fill-opacity="0.67"/>
<path d="M11.8584 4.72764C11.6642 4.72764 11.5068 4.57023 11.5068 4.37608V0.601562C11.5068 0.407406 11.6642 0.25 11.8584 0.25C12.0526 0.25 12.21 0.407406 12.21 0.601562V4.37608C12.21 4.57023 12.0526 4.72764 11.8584 4.72764Z" fill="#5B5555"/>
<path d="M11.8584 23.9698C11.6642 23.9698 11.5068 23.8124 11.5068 23.6183V19.8438C11.5068 19.6496 11.6642 19.4922 11.8584 19.4922C12.0526 19.4922 12.21 19.6496 12.21 19.8438V23.6183C12.21 23.8125 12.0526 23.9698 11.8584 23.9698Z" fill="#5B5555"/>
<path d="M4.12556 12.4618H0.351562C0.157406 12.4618 0 12.3044 0 12.1102C0 11.9161 0.157406 11.7587 0.351562 11.7587H4.12556C4.31972 11.7587 4.47712 11.9161 4.47712 12.1102C4.47712 12.3044 4.31972 12.4618 4.12556 12.4618Z" fill="#5B5555"/>
<path d="M23.3658 12.4619H19.5918C19.3976 12.4619 19.2402 12.3045 19.2402 12.1104C19.2402 11.9162 19.3976 11.7588 19.5918 11.7588H23.3658C23.56 11.7588 23.7174 11.9162 23.7174 12.1104C23.7174 12.3045 23.56 12.4619 23.3658 12.4619Z" fill="#5B5555"/>
<path d="M18.3939 5.17797L21.6941 1.89419L21.1903 0.125552C21.1604 0.0206925 21.0726 -0.00208873 20.9952 0.0750206L18.0008 3.05454C17.9232 3.13165 17.883 3.28085 17.9116 3.38608L18.3939 5.17797Z" fill="#62DBFB"/>
<path d="M23.9028 2.82559L22.1254 2.32422L18.8252 5.60805L20.626 6.08814C20.7318 6.11636 20.8816 6.07638 20.9592 5.99927L23.9536 3.01975C24.0311 2.94259 24.0082 2.85527 23.9028 2.82559Z" fill="#62DBFB"/>
<path d="M18.3939 5.17797L19.1518 4.4239L18.9351 3.61891C18.9047 3.50702 18.9475 3.34844 19.0299 3.26646L21.4103 0.897958L21.1903 0.125552C21.1604 0.0206925 21.0726 -0.00208873 20.9952 0.0750206L18.0008 3.05454C17.9232 3.13165 17.883 3.28085 17.9116 3.38608L18.3939 5.17797Z" fill="#01D0FB"/>
<path d="M19.8314 3.74742L20.4044 3.17733L19.9226 1.38774C19.9061 1.32652 19.8743 1.27364 19.8325 1.23169L19.2961 1.76546L19.8187 3.70636C19.8224 3.72019 19.8267 3.73388 19.8314 3.74742Z" fill="#08A9F1"/>
<path d="M20.8392 3.60352L20.2637 4.17623C20.2762 4.1805 20.2888 4.18448 20.3015 4.18786L22.2557 4.70878L22.7928 4.17431C22.7503 4.13137 22.6965 4.09861 22.634 4.08192L20.8392 3.60352Z" fill="#08A9F1"/>
<path d="M11.8584 12.4617C11.7681 12.4617 11.6779 12.4272 11.6092 12.3581C11.4722 12.2205 11.4728 11.9979 11.6104 11.861L22.4385 1.08676C22.576 0.949788 22.7987 0.950304 22.9357 1.08798C23.0726 1.2256 23.0721 1.44821 22.9344 1.58513L12.1064 12.3594C12.0378 12.4276 11.9481 12.4617 11.8584 12.4617Z" fill="#CDBFBA"/>
<path d="M23.2985 19.9896C23.2985 21.994 21.6828 23.6189 19.6898 23.6189C17.6968 23.6189 16.0811 21.994 16.0811 19.9896C16.0811 17.9853 17.6968 16.3604 19.6898 16.3604C21.6828 16.3603 23.2985 17.9852 23.2985 19.9896Z" fill="#97D729"/>
<path d="M17.6149 19.9897C17.6149 18.2501 18.8322 16.797 20.4567 16.4433C20.2095 16.3895 19.9531 16.3604 19.6898 16.3604C17.6968 16.3604 16.0811 17.9853 16.0811 19.9896C16.0811 21.994 17.6968 23.6189 19.6898 23.6189C19.9531 23.6189 20.2095 23.5898 20.4567 23.536C18.8322 23.1823 17.6149 21.7293 17.6149 19.9897Z" fill="#8BC727"/>
<path d="M19.2578 21.3033C19.1643 21.3033 19.0746 21.266 19.0086 21.1996L17.9607 20.1458C17.8237 20.0081 17.8244 19.7855 17.9621 19.6486C18.0998 19.5117 18.3224 19.5124 18.4592 19.65L19.2578 20.4532L20.922 18.7794C21.0589 18.6418 21.2814 18.6411 21.4191 18.778C21.5568 18.9149 21.5574 19.1375 21.4205 19.2752L19.5071 21.1997C19.4412 21.266 19.3515 21.3033 19.2578 21.3033Z" fill="#017B4E"/>
</g>
<defs>
<clipPath id="clip0_543_128">
<rect width="24" height="24" fill="white"/>
</clipPath>
</defs>
</svg>
