<svg width="50" height="50" viewBox="0 0 50 50" fill="none" xmlns="http://www.w3.org/2000/svg">
<g clip-path="url(#clip0_65_6056)">
<path d="M12.8477 27.4865L17.6623 32.3368L21.8916 30.8849L23.6915 26.3076L18.8973 21.478L12.8477 27.4865Z" fill="#E1E6F0"/>
<path d="M22.2651 36.9748L28.3146 30.9663L23.6908 26.3081L17.6616 32.3373L22.2651 36.9748Z" fill="#C1CDE5"/>
<path d="M45.5357 9.76563e-05C45.5019 0 45.468 0 45.434 0C42.1728 0 38.9748 0.536523 35.9206 1.59229C34.4519 4.80059 35.1242 10.4282 37.3245 12.5968C37.3375 12.6097 37.3515 12.6225 37.3649 12.6353L45.1196 7.75459L49.9849 0.0151367L45.5357 9.76563e-05Z" fill="#FF6F43"/>
<path d="M37.3638 12.6364C39.5962 14.7809 45.5794 15.9842 48.3984 13.8815C49.4393 10.8642 49.9729 7.70474 49.984 4.48101L49.9991 0.0163574H49.9838L37.3638 12.6364Z" fill="#FF2732"/>
<path d="M18.0277 10.3717C15.8937 11.3229 14.1154 12.8768 12.8851 14.8654L8.72803 21.5837L16.832 23.5571L19.0795 21.3714L24.7249 9.53235C22.4543 9.14055 20.1385 9.43078 18.0277 10.3717Z" fill="#476495"/>
<path d="M40.31 25.2236L28.4326 30.7883L26.231 33.0215L28.1497 41.1381L34.8964 37.0269C36.8933 35.8101 38.4592 34.0423 39.425 31.9149C40.3803 29.8107 40.6862 27.4969 40.31 25.2236Z" fill="#3B4C7A"/>
<path d="M35.9193 1.59302C35.8146 1.62925 35.7097 1.6644 35.6053 1.70181C32.5322 2.80366 29.6815 4.40776 27.1324 6.46978C22.0214 10.604 18.4249 16.3953 17.0055 22.7768L16.8315 23.5587L21.6198 28.3798L34.2039 20.3699L40.1216 9.87808C37.8996 7.70503 36.376 4.82065 35.9193 1.59302Z" fill="#F3F5F9"/>
<path d="M21.6206 28.3792L26.2317 33.0219L27.0149 32.8532C33.4061 31.4772 39.2217 27.9202 43.3906 22.8375C45.4699 20.3025 47.0935 17.4628 48.2162 14.3974C48.2791 14.2256 48.3395 14.0531 48.3991 13.8805C45.1948 13.4776 42.3178 12.0246 40.1224 9.87744L21.6206 28.3792Z" fill="#E1E6F0"/>
<path d="M1.21069 46.6533L10.8214 37.1103L12.8868 39.1904L3.27612 48.7334L1.21069 46.6533Z" fill="#FFA200"/>
<path d="M0.0102539 39.5635L5.46075 34.1514L7.52618 36.2314L2.07568 41.6436L0.0102539 39.5635Z" fill="#FECC45"/>
<path d="M7.53784 32.0845L9.61792 30.019L11.6833 32.0991L9.60327 34.1646L7.53784 32.0845Z" fill="#FFE966"/>
<path d="M12.4919 43.8091L17.9425 38.3969L20.0079 40.477L14.5574 45.8892L12.4919 43.8091Z" fill="#FECC45"/>
<path d="M8.33569 47.9414L10.4158 45.876L12.4812 47.9561L10.4011 50.0215L8.33569 47.9414Z" fill="#FF6F43"/>
<path d="M32.5321 12.0647C29.6365 12.0647 27.2891 14.4121 27.2891 17.3077C27.2891 18.7964 27.9105 20.1392 28.907 21.0936L34.0536 19.3462L36.318 13.6827C35.3637 12.6862 34.0209 12.0647 32.5321 12.0647Z" fill="#E1E6F0"/>
<path d="M28.9062 21.0931C29.8479 21.995 31.1244 22.5502 32.5312 22.5502C35.4269 22.5502 37.7743 20.2028 37.7743 17.3071C37.7743 15.9003 37.2191 14.6238 36.3172 13.6821L28.9062 21.0931Z" fill="#C1CDE5"/>
</g>
<defs>
<clipPath id="clip0_65_6056">
<rect width="50" height="50" fill="white"/>
</clipPath>
</defs>
</svg>
