<svg width="32" height="32" viewBox="0 0 32 32" fill="none" xmlns="http://www.w3.org/2000/svg">
<g clip-path="url(#clip0_65_5547)">
<path d="M31.7177 23.5107C31.3405 23.8878 30.729 23.8878 30.3519 23.5107L24.0234 17.1822L25.3892 15.8164L31.7176 22.1448C32.0949 22.522 32.0949 23.1335 31.7177 23.5107Z" fill="#484B63"/>
<path d="M20.0317 32.0007H0.25C0.111937 32.0007 0 31.8888 0 31.7507V3.79199C0 3.65393 0.111937 3.54199 0.25 3.54199H20.0317C20.1698 3.54199 20.2817 3.65393 20.2817 3.79199V31.7507C20.2817 31.8888 20.1698 32.0007 20.0317 32.0007Z" fill="#D8D5ED"/>
<path d="M5.70498 29.7616H2.3418C2.20373 29.7616 2.0918 29.6497 2.0918 29.5116V19.5811C2.0918 19.443 2.20373 19.3311 2.3418 19.3311H5.70498C5.84305 19.3311 5.95498 19.443 5.95498 19.5811V29.5116C5.95498 29.6497 5.84305 29.7616 5.70498 29.7616Z" fill="#FF2C5C"/>
<path d="M11.7577 29.7615H8.39453C8.25647 29.7615 8.14453 29.6496 8.14453 29.5115V15.7178C8.14453 15.5797 8.25647 15.4678 8.39453 15.4678H11.7577C11.8958 15.4678 12.0077 15.5797 12.0077 15.7178V29.5115C12.0077 29.6496 11.8958 29.7615 11.7577 29.7615Z" fill="#FFD659"/>
<path d="M17.9394 29.761H14.5762C14.4381 29.761 14.3262 29.6491 14.3262 29.511V17.1338C14.3262 16.9957 14.4381 16.8838 14.5762 16.8838H17.9394C18.0774 16.8838 18.1894 16.9957 18.1894 17.1338V29.511C18.1894 29.6492 18.0774 29.761 17.9394 29.761Z" fill="#4FC6F5"/>
<path d="M4.02344 19.3311V29.7616H5.705C5.84306 29.7616 5.955 29.6497 5.955 29.5116V19.5811C5.955 19.443 5.84306 19.3311 5.705 19.3311H4.02344Z" fill="#E62753"/>
<path d="M10.0762 15.4678V29.7615H11.7577C11.8958 29.7615 12.0077 29.6496 12.0077 29.5115V15.7178C12.0077 15.5797 11.8958 15.4678 11.7577 15.4678H10.0762Z" fill="#FFBD54"/>
<path d="M16.2578 16.8838V29.761H17.9394C18.0774 29.761 18.1894 29.6491 18.1894 29.511V17.1338C18.1894 16.9957 18.0774 16.8838 17.9394 16.8838H16.2578Z" fill="#3BB3E3"/>
<path d="M2.86523 6.60059H17.0302C17.2892 6.60059 17.499 6.39071 17.499 6.13184C17.499 5.87296 17.2892 5.66309 17.0302 5.66309H2.86523C2.6063 5.66309 2.39648 5.87296 2.39648 6.13184C2.39648 6.39071 2.6063 6.60059 2.86523 6.60059Z" fill="#50536E"/>
<path d="M17.0302 7.80957H2.86523C2.6063 7.80957 2.39648 8.01945 2.39648 8.27832C2.39648 8.5372 2.6063 8.74707 2.86523 8.74707H17.0302C17.2892 8.74707 17.499 8.5372 17.499 8.27832C17.499 8.01945 17.2891 7.80957 17.0302 7.80957Z" fill="#50536E"/>
<path d="M17.0302 9.95508H2.86523C2.6063 9.95508 2.39648 10.165 2.39648 10.4238C2.39648 10.6827 2.6063 10.8926 2.86523 10.8926H17.0302C17.2892 10.8926 17.499 10.6827 17.499 10.4238C17.499 10.165 17.2891 9.95508 17.0302 9.95508Z" fill="#50536E"/>
<path d="M6.47598 12.1016H2.86523C2.6063 12.1016 2.39648 12.3114 2.39648 12.5703C2.39648 12.8292 2.6063 13.0391 2.86523 13.0391H6.47598C6.73492 13.0391 6.94473 12.8292 6.94473 12.5703C6.94473 12.3114 6.73492 12.1016 6.47598 12.1016Z" fill="#50536E"/>
<path d="M25.8085 17.4772C29.8064 13.4792 29.8064 6.99732 25.8085 2.99939C21.8105 -0.99854 15.3286 -0.99854 11.3307 2.99939C7.33276 6.99732 7.33276 13.4792 11.3307 17.4772C15.3286 21.4751 21.8105 21.4751 25.8085 17.4772Z" fill="#50536E"/>
<path d="M24.4427 16.1106C21.2042 19.3491 15.9349 19.3491 12.6964 16.1106C9.45793 12.8722 9.45799 7.6029 12.6964 4.3644C15.9349 1.1259 21.2042 1.12596 24.4427 4.3644C27.6812 7.60284 27.6811 12.8722 24.4427 16.1106Z" fill="#B5FCFF"/>
<path d="M24.4425 4.36507C22.5777 2.50032 20.0396 1.70963 17.6035 1.99238C19.398 2.20069 21.1371 2.99138 22.5108 4.36507C25.7493 7.60351 25.7493 12.8728 22.5108 16.1113C21.1371 17.485 19.398 18.2757 17.6035 18.484C20.0396 18.7668 22.5777 17.9761 24.4425 16.1113C27.6809 12.8729 27.6809 7.60351 24.4425 4.36507Z" fill="#71F6FC"/>
</g>
<defs>
<clipPath id="clip0_65_5547">
<rect width="32" height="32" fill="white"/>
</clipPath>
</defs>
</svg>
