<svg width="32" height="32" viewBox="0 0 32 32" fill="none" xmlns="http://www.w3.org/2000/svg">
<g clip-path="url(#clip0_65_3432)">
<path d="M25.6 14.9337C25.6 15.6697 25.5093 16.3844 25.3333 17.0671C24.384 20.7471 21.0453 23.4671 17.0667 23.4671C12.352 23.4671 8.53333 19.6484 8.53333 14.9337C8.53333 10.3524 12.144 6.61372 16.6773 6.41106C16.8053 6.40572 16.9333 6.40039 17.0667 6.40039C21.7813 6.40039 25.6 10.2191 25.6 14.9337Z" fill="#78C5FB"/>
<path d="M9.67997 24.1682L12.8 21.0375L10.9626 19.2002L7.83197 22.3202L9.67997 24.1682Z" fill="#BFC1D1"/>
<path d="M16.6777 6.41018L19.9897 1.27418C20.6297 0.287513 22.0377 0.287513 22.6777 1.27418L31.1951 14.4742C31.9097 15.5835 31.1417 17.0662 29.8511 17.0662H25.3337L16.6777 6.41018Z" fill="#F05D2A"/>
<path d="M25.6009 14.9337C25.6009 15.6697 25.5102 16.3844 25.3342 17.0671H12.8169C11.5262 17.0671 10.7582 15.5844 11.4729 14.4751L16.6782 6.41106C16.8062 6.40572 16.9342 6.40039 17.0676 6.40039C18.1982 6.40039 19.2809 6.61906 20.2676 7.02439C21.0409 7.33372 21.7609 7.75506 22.4009 8.27239C24.3529 9.83506 25.6009 12.2351 25.6009 14.9337Z" fill="#5EA1EA"/>
<path d="M22.4009 4.80007V8.27207C21.7609 7.75473 21.0409 7.3334 20.2676 7.02407V4.80007C20.2676 4.2134 20.7476 3.7334 21.3342 3.7334C21.6276 3.7334 21.8942 3.85073 22.0862 4.04807C22.2836 4.24007 22.4009 4.50673 22.4009 4.80007Z" fill="white"/>
<path d="M22.4009 8.27241V9.60041C22.4009 10.1871 21.9209 10.6671 21.3342 10.6671C20.7476 10.6671 20.2676 10.1871 20.2676 9.60041V7.02441C21.0409 7.33375 21.7609 7.75508 22.4009 8.27241Z" fill="#97D7FF"/>
<path d="M21.3342 14.9331C21.9233 14.9331 22.4009 14.4556 22.4009 13.8665C22.4009 13.2774 21.9233 12.7998 21.3342 12.7998C20.7451 12.7998 20.2676 13.2774 20.2676 13.8665C20.2676 14.4556 20.7451 14.9331 21.3342 14.9331Z" fill="#97D7FF"/>
<path d="M10.4807 24.4302L4.04867 30.8628C3.64707 31.2644 3.12067 31.467 2.59374 31.467C2.0668 31.467 1.5404 31.2644 1.1388 30.8628C0.331336 30.0596 0.331336 28.7561 1.1388 27.9529L7.5708 21.5204C7.85187 21.2393 8.31214 21.2393 8.5932 21.5204L10.4801 23.4073C10.7612 23.6884 10.7612 24.1486 10.4801 24.4297L10.4807 24.4302Z" fill="#3C3D4C"/>
<path d="M17.0667 23.9995C12.0672 23.9995 8 19.9323 8 14.9329C8 9.93341 12.0672 5.86621 17.0667 5.86621C22.0661 5.86621 26.1333 9.93341 26.1333 14.9329C26.1333 19.9323 22.0661 23.9995 17.0667 23.9995ZM17.0667 6.93288C12.6555 6.93288 9.06667 10.5217 9.06667 14.9329C9.06667 19.3441 12.6555 22.9329 17.0667 22.9329C21.4779 22.9329 25.0667 19.3441 25.0667 14.9329C25.0667 10.5217 21.4779 6.93288 17.0667 6.93288Z" fill="#D9DAE8"/>
</g>
<defs>
<clipPath id="clip0_65_3432">
<rect width="32" height="32" fill="white"/>
</clipPath>
</defs>
</svg>
