<svg width="24" height="24" viewBox="0 0 24 24" fill="none" xmlns="http://www.w3.org/2000/svg">
<path d="M21.1602 10.2603L20.8453 10.2369L20.5684 9.53137C20.6156 9.42253 20.6586 9.31159 20.6976 9.19856L21.7266 8.75053C21.7482 8.56978 21.8255 8.19492 21.8255 7.65605C21.8255 6.94608 21.6917 6.46012 21.6661 6.30305L20.5908 5.8343C20.5681 5.77986 20.5443 5.7258 20.5194 5.67211L20.9348 4.61513C19.336 2.70609 19.4394 3.16097 19.1214 2.85731L18.03 3.28594C18.0124 3.27863 17.9947 3.27144 17.9769 3.26437L17.514 2.20247C15.5718 1.91002 15.2318 2.19455 14.9612 2.19862L14.4993 3.25847C14.4788 3.26656 14.4582 3.27483 14.4377 3.28327L13.3444 2.8538C13.2143 2.95383 12.5031 3.3397 11.8232 4.21069L11.4682 3.92006L11.4673 3.91308L11.9646 3.25847C11.7089 2.80763 12.2115 3.22697 10.9628 1.53103L10.1733 1.60931L10.0671 0.832313C8.55273 0.141703 8.45068 0.366703 8.12748 0.28125L7.62863 0.890203L6.99198 0.406641C5.16062 1.14755 5.61432 1.14258 5.23815 1.34944L5.31938 2.16506C5.31428 2.17125 5.30917 2.17734 5.30415 2.18353L4.46288 2.298C3.78132 3.75694 3.98865 3.81675 3.89307 4.14609L4.5212 4.65984C4.52504 4.71103 4.53003 4.76222 4.53615 4.81341L4.03206 5.47744C4.77488 7.27622 4.67668 6.68733 4.92024 7.13062L5.72898 7.05C5.7897 7.10228 5.8522 7.15228 5.91648 7.2L6.02738 8.01323C7.45937 8.63259 7.46218 8.42339 7.8136 8.51442L8.33457 7.87875C8.41192 7.8715 8.48885 7.86164 8.56538 7.84917L9.21081 8.34028C9.36835 8.26833 9.97168 8.11059 10.6306 7.56216L10.6367 7.55709C10.6299 7.88858 10.6528 8.22 10.7053 8.54737L2.99167 8.56406C2.71708 8.56438 2.44529 8.61921 2.19207 8.72538C1.93884 8.83155 1.70921 8.98695 1.51651 9.18255C1.3238 9.37816 1.17186 9.61008 1.06948 9.86486C0.967101 10.1196 0.916333 10.3922 0.920119 10.6668C1.07354 22.478 1.06253 21.6293 1.06304 21.67C1.07183 22.215 1.29396 22.7348 1.68174 23.1179C2.06951 23.5009 2.59202 23.7167 3.13707 23.7188L20.6432 23.528C21.1746 23.5223 21.6837 23.3128 22.0653 22.9428C22.4469 22.5728 22.6719 22.0705 22.6941 21.5395C22.6949 21.5203 22.6734 22.0306 23.0808 12.346C23.0835 11.82 22.8869 11.3125 22.5306 10.9255C22.1743 10.5386 21.6846 10.3009 21.1602 10.2603Z" fill="white"/>
<path d="M21.2647 8.39719C21.3488 7.82053 21.3339 7.23375 21.2206 6.66211L20.1953 6.21535C20.1308 6.03678 20.054 5.86292 19.9653 5.69504L20.3616 4.68666C20.0063 4.19279 19.5656 3.7664 19.0602 3.4276L18.0201 3.83602C17.8827 3.77159 17.742 3.71454 17.5986 3.66511L17.1571 2.65285C16.5498 2.54115 15.9273 2.5402 15.3196 2.65004L14.8795 3.66066C14.7331 3.71027 14.5895 3.76796 14.4495 3.83344L13.4073 3.42408C12.904 3.76103 12.4646 4.18482 12.1097 4.67565L12.505 5.68121C12.4123 5.85546 12.3323 6.0362 12.2656 6.22201L11.2403 6.66797C11.1293 7.23609 11.1147 7.81884 11.1971 8.3918L12.1773 8.81804C12.2471 9.0633 12.3395 9.30156 12.4534 9.52974L12.0515 10.5531C12.366 11.0075 12.7523 11.4077 13.1953 11.738L14.1914 11.3465C14.4473 11.4888 14.7177 11.6034 14.9979 11.6883L15.4298 12.6797C15.9658 12.7645 16.5119 12.7636 17.0475 12.6769L17.4804 11.6845C17.7572 11.5989 18.0242 11.4847 18.2773 11.3437L19.2716 11.7352C19.7171 11.4026 20.1051 10.9992 20.42 10.5409L20.017 9.51446C20.1266 9.29297 20.2158 9.06199 20.2836 8.82437L21.2647 8.39719ZM16.2313 10.2656C15.5418 10.2651 14.8805 9.99195 14.3916 9.50582C13.9026 9.01969 13.6257 8.35996 13.6212 7.67049V7.65544C13.6212 6.96319 13.8962 6.29929 14.3857 5.80979C14.8752 5.3203 15.5391 5.0453 16.2313 5.0453C16.9236 5.0453 17.5875 5.3203 18.077 5.80979C18.5665 6.29929 18.8415 6.96319 18.8415 7.65544V7.66576C18.8385 8.35615 18.5622 9.01729 18.0731 9.50451C17.5839 9.99173 16.9217 10.2654 16.2313 10.2656Z" fill="#FF605B"/>
<path d="M11.2932 5.8741C11.4615 5.4974 11.5643 5.09475 11.5972 4.68348L10.9845 4.18159C10.9749 4.04751 10.956 3.91427 10.9279 3.78282L11.392 3.17195C11.2449 2.76699 11.0267 2.39158 10.7475 2.06345L9.96002 2.14154C9.8788 2.0712 9.79388 2.00524 9.70563 1.94396L9.59988 1.16907C9.20754 0.976053 8.78353 0.855583 8.34831 0.813477L7.85378 1.41713C7.74447 1.42277 7.63555 1.43444 7.52753 1.4521L6.89594 0.972523C6.48814 1.10527 6.1072 1.3095 5.77094 1.57566L5.84673 2.33696C5.75003 2.43787 5.66073 2.54564 5.57955 2.65941L4.79481 2.76596C4.60976 3.13171 4.48765 3.52603 4.43359 3.93235L5.01953 4.41146C5.0199 4.59203 5.03702 4.77218 5.07067 4.94959L4.59981 5.5697C4.72658 5.93986 4.91275 6.28693 5.15102 6.59729L5.90523 6.52229C6.05223 6.66853 6.21441 6.79866 6.38903 6.91046L6.49253 7.66909C6.84145 7.83003 7.21374 7.93446 7.59545 7.97846L8.08145 7.38549C8.28658 7.38045 8.49062 7.35403 8.69027 7.30665L9.29247 7.76485C9.66006 7.62399 10.0021 7.42379 10.3048 7.17221L10.228 6.3953C10.3453 6.26549 10.4506 6.12527 10.5425 5.97638L11.2932 5.8741ZM8.86314 6.03676C8.5958 6.17677 8.29825 6.24919 7.99647 6.24769C7.69469 6.24619 7.39787 6.17081 7.13194 6.02814C6.86602 5.88546 6.63907 5.67984 6.47094 5.42924C6.30281 5.17863 6.1986 4.89066 6.16742 4.59049C6.13625 4.29033 6.17905 3.98709 6.2921 3.70728C6.40514 3.42747 6.58498 3.1796 6.81592 2.98532C7.04685 2.79105 7.32184 2.65628 7.61687 2.59279C7.9119 2.5293 8.21799 2.53903 8.50839 2.62112C10.1182 3.0758 10.3322 5.27513 8.86314 6.03676Z" fill="#00ABFE"/>
<path d="M22.5722 12.3422C22.1638 22.0439 22.1868 21.4962 22.1859 21.5177C22.1691 21.9187 21.9991 22.298 21.711 22.5774C21.4228 22.8568 21.0385 23.015 20.6372 23.0195L3.15466 23.2101C2.73956 23.2148 2.33957 23.0545 2.04259 22.7645C1.74561 22.4744 1.57591 22.0784 1.5708 21.6633C1.57028 21.6229 1.58125 22.4682 1.42787 10.6599C1.42511 10.4526 1.4635 10.2468 1.54084 10.0545C1.61817 9.86209 1.7329 9.68698 1.87839 9.53927C2.02388 9.39157 2.19723 9.2742 2.3884 9.19396C2.57957 9.11372 2.78477 9.07222 2.99209 9.07184L16.6379 9.04297L18.0495 10.5368L21.1218 10.7668C21.5182 10.7968 21.8884 10.9761 22.1576 11.2686C22.4268 11.561 22.575 11.9447 22.5722 12.3422Z" fill="#FFB020"/>
<path d="M21.5368 12.3447C21.6706 12.3445 21.8031 12.3714 21.9262 12.4237C22.0493 12.476 22.1606 12.5528 22.2533 12.6492C22.3459 12.7457 22.4181 12.86 22.4654 12.9851C22.5128 13.1103 22.5343 13.2437 22.5286 13.3774L22.1859 21.5184C22.1691 21.9194 21.9991 22.2987 21.7109 22.5781C21.4228 22.8575 21.0385 23.0157 20.6372 23.0202L3.15465 23.2109C2.73955 23.2156 2.33957 23.0553 2.04258 22.7652C1.7456 22.4752 1.5759 22.0791 1.57079 21.664L1.46298 13.3824C1.46126 13.2514 1.48557 13.1213 1.53448 12.9997C1.5834 12.8781 1.65595 12.7674 1.74794 12.674C1.83993 12.5807 1.94953 12.5065 2.07039 12.4558C2.19125 12.405 2.32097 12.3788 2.45204 12.3786L21.5368 12.3447Z" fill="#FFC269"/>
<path d="M13.7946 16.3882C13.7907 16.3882 13.7867 16.3882 13.7826 16.3882C13.6816 16.3851 13.586 16.3419 13.5168 16.2683C13.4475 16.1946 13.4104 16.0965 13.4135 15.9955L13.4932 13.418C13.5007 13.1971 13.4639 12.977 13.3849 12.7706C13.306 12.5643 13.1865 12.3758 13.0334 12.2164C12.0127 11.1466 10.2014 11.8501 10.1626 13.3227L10.0942 15.9125C10.0932 15.9627 10.0823 16.0123 10.0621 16.0583C10.0418 16.1043 10.0127 16.1458 9.97637 16.1805C9.94002 16.2152 9.89716 16.2424 9.85026 16.2605C9.80337 16.2786 9.75336 16.2872 9.70312 16.2859C9.65287 16.2845 9.60339 16.2733 9.55751 16.2528C9.51164 16.2322 9.47027 16.2028 9.4358 16.1663C9.40133 16.1297 9.37443 16.0867 9.35666 16.0397C9.33889 15.9926 9.33059 15.9426 9.33224 15.8923L9.40063 13.3025C9.4573 11.1567 12.0972 10.1311 13.5849 11.6904C13.808 11.9228 13.9822 12.1974 14.0974 12.4982C14.2125 12.799 14.2662 13.1199 14.2552 13.4418L14.1755 16.0192C14.1724 16.1181 14.1309 16.2119 14.0598 16.2808C13.9887 16.3497 13.8936 16.3882 13.7946 16.3882Z" fill="#1D1D3D"/>
<path d="M9.22737 14.7414L14.2908 14.8551C14.5192 14.8603 14.7362 14.9557 14.8945 15.1204C15.0528 15.2852 15.1394 15.5059 15.1354 15.7343L15.0496 20.5993C15.0457 20.8198 14.9576 21.0305 14.8034 21.1882C14.6493 21.3459 14.4406 21.4386 14.2203 21.4475L9.34526 21.6438C9.23038 21.6485 9.11574 21.6301 9.00804 21.5899C8.90034 21.5496 8.80175 21.4883 8.71805 21.4095C8.63434 21.3307 8.56721 21.236 8.52058 21.1309C8.47395 21.0258 8.44876 20.9124 8.44648 20.7975L8.34392 15.6225C8.34162 15.506 8.36292 15.3902 8.40653 15.2821C8.45015 15.174 8.51518 15.0758 8.59771 14.9935C8.68024 14.9112 8.77857 14.8464 8.88678 14.8031C8.99499 14.7598 9.11084 14.7388 9.22737 14.7414Z" fill="#7AD001"/>
<path d="M11.2544 18.4456C11.3291 18.7144 11.2784 19.0014 11.312 19.2783C11.41 20.0833 12.2295 20.0603 12.3513 19.3122C12.3982 19.0247 12.3375 18.7276 12.3566 18.4154C13.0587 18.1444 13.0811 17.0519 12.2081 16.6319C11.8865 16.4772 11.4954 16.4568 11.1728 16.6096C10.5359 16.9111 10.2745 17.7786 11.2544 18.4456Z" fill="#A369F7"/>
</svg>
