<svg width="32" height="32" viewBox="0 0 32 32" fill="none" xmlns="http://www.w3.org/2000/svg">
<g clip-path="url(#clip0_65_5522)">
<path d="M25.375 24.5C23.3069 24.5 21.625 22.8181 21.625 20.75C21.625 18.6819 23.3069 16.9375 25.375 16.9375C27.4431 16.9375 29.125 18.6819 29.125 20.75C29.125 22.8181 27.4431 24.5 25.375 24.5Z" fill="#F6A96C"/>
<path d="M25.3755 24.5C23.9482 24.5 22.6372 24.9675 21.5603 25.7412L20.1836 28.8511L22.563 32H32.0005V31.0625C32.0005 27.4382 28.9998 24.5 25.3755 24.5Z" fill="#32DDF9"/>
<path d="M4.75 7.91968L1.84595 9.4375L2.39722 6.10815L0 3.8313L3.32373 3.36255L4.75 0L6.21118 3.36255L9.4375 3.8313L7.10278 6.10815L7.65405 9.4375L4.75 7.91968Z" fill="#FFDA2D"/>
<path d="M18.3438 6.09985L18.9062 9.4375L16 7.9187L13.0938 9.4375L13.6562 6.09985L11.3125 3.8313L14.575 3.36255L16 0L17.4626 3.36255L20.6875 3.8313L18.3438 6.09985Z" fill="#FFDA2D"/>
<path d="M27.25 7.91968L24.3459 9.4375L24.8972 6.10815L22.5625 3.8313L25.8237 3.36255L27.25 0L28.7112 3.36255L32 3.8313L29.6028 6.10815L30.1541 9.4375L27.25 7.91968Z" fill="#FDBF00"/>
<path d="M6.625 24.5C4.55688 24.5 2.875 22.8181 2.875 20.75C2.875 18.6819 4.55688 16.9375 6.625 16.9375C8.69312 16.9375 10.375 18.6819 10.375 20.75C10.375 22.8181 8.69312 24.5 6.625 24.5Z" fill="#FFBD86"/>
<path d="M6.625 24.5C3.00073 24.5 0 27.4382 0 31.0625V32H9.4375L11.7632 29.1875L10.4402 25.7415C9.36328 24.9675 8.05225 24.5 6.625 24.5Z" fill="#84ECF7"/>
<path d="M18.9062 9.4375L16 7.9187V0L17.4626 3.36255L20.6875 3.8313L18.3438 6.09985L18.9062 9.4375Z" fill="#FDBF00"/>
<path d="M16 15.0625C13.9375 15.0625 12.25 16.75 12.25 18.8125C12.25 20.875 13.9375 22.625 16 22.625C18.0625 22.625 19.75 20.875 19.75 18.8125C19.75 16.75 18.0625 15.0625 16 15.0625Z" fill="#FED2A4"/>
<path d="M22.5625 29.1875V32H9.4375V29.1875C9.4375 27.9126 9.8125 26.75 10.4314 25.7375C11.5938 23.8811 13.6562 22.625 16 22.625C18.3438 22.625 20.4062 23.8811 21.5686 25.7375C22.1875 26.75 22.5625 27.9126 22.5625 29.1875Z" fill="#FF637B"/>
<path d="M16 22.625V15.0625C18.0625 15.0625 19.75 16.75 19.75 18.8125C19.75 20.875 18.0625 22.625 16 22.625Z" fill="#F6A96C"/>
<path d="M22.5625 29.1875V32H16V22.625C18.3438 22.625 20.4062 23.8811 21.5686 25.7375C22.1875 26.75 22.5625 27.9126 22.5625 29.1875Z" fill="#E63950"/>
</g>
<defs>
<clipPath id="clip0_65_5522">
<rect width="32" height="32" fill="white"/>
</clipPath>
</defs>
</svg>
