<svg width="66" height="56" viewBox="0 0 66 56" fill="none" xmlns="http://www.w3.org/2000/svg">
<path d="M44.2349 5.10156C44.7771 5.10156 45.2368 5.52767 45.2368 6.07715C45.2366 6.62643 44.777 7.05176 44.2349 7.05176C40.35 7.05178 36.8735 9.55186 35.772 13.1123C35.6311 13.5692 35.1824 13.8425 34.7222 13.8018L34.7085 13.8184L34.5288 13.7666C34.0052 13.6163 33.6896 13.0771 33.853 12.5498C35.1836 8.24877 39.3218 5.10159 44.2349 5.10156Z" fill="url(#paint0_linear_384_4029)" stroke="#F9FFF9" stroke-width="0.6"/>
<path d="M54.0641 39.1716H49.8514C49.4638 39.1716 49.1493 38.8691 49.1493 38.4962C49.1493 38.1233 49.4637 37.8208 49.8514 37.8208H54.0641C59.8712 37.8208 64.596 33.2758 64.596 27.6897C64.596 22.1037 59.8712 17.5587 54.0641 17.5587H53.9628C53.7592 17.5587 53.5656 17.4738 53.4322 17.3257C53.2988 17.1776 53.2386 16.9812 53.2677 16.7873C53.3304 16.3666 53.362 15.944 53.362 15.5325C53.362 10.6913 49.267 6.7522 44.2343 6.7522C42.2764 6.7522 40.4092 7.34076 38.8344 8.45468C38.4884 8.69928 37.9969 8.59073 37.7968 8.22456C33.3368 0.0551038 21.6878 -1.04197 15.6484 6.06474C13.1042 9.0587 12.1046 12.9534 12.9056 16.7492C12.9939 17.1684 12.6604 17.5592 12.2175 17.5592H11.9362C6.12916 17.5592 1.40432 22.1042 1.40432 27.6903C1.40432 33.2763 6.12916 37.8213 11.9362 37.8213H16.1489C16.5366 37.8213 16.851 38.1238 16.851 38.4967C16.851 38.8696 16.5366 39.1721 16.1489 39.1721H11.9362C5.35472 39.1721 0 34.0212 0 27.6902C0 21.5368 5.05827 16.4983 11.385 16.2204C10.7907 12.2823 11.9272 8.30993 14.5611 5.20988C21.0272 -2.39949 33.4189 -1.54658 38.6571 6.93843C40.3282 5.93062 42.2405 5.40193 44.2341 5.40193C50.3315 5.40193 55.1632 10.3942 54.7404 16.2267C61.0089 16.5649 66 21.5768 66 27.6897C66 34.0212 60.6453 39.1716 54.0638 39.1716L54.0641 39.1716Z" fill="url(#paint1_linear_384_4029)"/>
<path d="M32.9062 20.9297C42.7397 20.9299 50.7588 28.6282 50.7588 38.1152C50.7585 47.602 42.7395 55.2996 32.9062 55.2998C23.0729 55.2998 15.053 47.6022 15.0527 38.1152C15.0527 28.6282 23.0727 20.9297 32.9062 20.9297ZM32.9062 22.8809C24.1564 22.8809 17.0566 29.7264 17.0566 38.1152C17.0569 46.504 24.1567 53.3486 32.9062 53.3486C41.6556 53.3484 48.7546 46.5038 48.7549 38.1152C48.7549 29.7264 41.6558 22.8811 32.9062 22.8809Z" fill="url(#paint2_linear_384_4029)" stroke="#F9FFF9" stroke-width="0.6"/>
<path d="M33.2266 31.3105C33.6391 31.3105 33.991 31.6347 33.9912 32.0547V44.9111C33.9912 45.3317 33.6391 45.6562 33.2266 45.6562C32.8141 45.6561 32.4629 45.3312 32.4629 44.9111V32.0547C32.4631 31.6348 32.8142 31.3107 33.2266 31.3105Z" fill="url(#paint3_linear_384_4029)" stroke="#F15D2A" stroke-width="0.5"/>
<path d="M32.7478 31.4756C33.0465 31.2408 33.4846 31.2582 33.7634 31.5264L37.8757 35.4824C38.1786 35.774 38.1788 36.2505 37.8757 36.542L37.8748 36.541C37.7248 36.6855 37.53 36.7559 37.3386 36.7559C37.1469 36.7558 36.952 36.6856 36.8025 36.542L33.2263 33.1016L29.6511 36.542L29.6501 36.541C29.3528 36.8271 28.8753 36.8278 28.5779 36.542C28.2748 36.2505 28.2749 35.774 28.5779 35.4824L32.6902 31.5264L32.7478 31.4756Z" fill="url(#paint4_linear_384_4029)" stroke="#F15D2A" stroke-width="0.5"/>
<defs>
<linearGradient id="paint0_linear_384_4029" x1="34.1134" y1="9.44372" x2="44.967" y2="9.44372" gradientUnits="userSpaceOnUse">
<stop stop-color="#E88B2A"/>
<stop offset="0.7318" stop-color="#E26730"/>
<stop offset="1" stop-color="#DF5832"/>
</linearGradient>
<linearGradient id="paint1_linear_384_4029" x1="0.0215769" y1="19.5364" x2="66.1828" y2="19.5364" gradientUnits="userSpaceOnUse">
<stop stop-color="#E88B2A"/>
<stop offset="0.7318" stop-color="#E26730"/>
<stop offset="1" stop-color="#DF5832"/>
</linearGradient>
<linearGradient id="paint2_linear_384_4029" x1="15.364" y1="38.0719" x2="50.5564" y2="38.0719" gradientUnits="userSpaceOnUse">
<stop stop-color="#E88B2A"/>
<stop offset="0.7318" stop-color="#E26730"/>
<stop offset="1" stop-color="#DF5832"/>
</linearGradient>
<linearGradient id="paint3_linear_384_4029" x1="32.7132" y1="38.4656" x2="33.7438" y2="38.4656" gradientUnits="userSpaceOnUse">
<stop stop-color="#E88B2A"/>
<stop offset="0.7318" stop-color="#E26730"/>
<stop offset="1" stop-color="#DF5832"/>
</linearGradient>
<linearGradient id="paint4_linear_384_4029" x1="28.6034" y1="34.0277" x2="37.8787" y2="34.0277" gradientUnits="userSpaceOnUse">
<stop stop-color="#E88B2A"/>
<stop offset="0.7318" stop-color="#E26730"/>
<stop offset="1" stop-color="#DF5832"/>
</linearGradient>
</defs>
</svg>
