<svg width="24" height="24" viewBox="0 0 24 24" fill="none" xmlns="http://www.w3.org/2000/svg">
<g clip-path="url(#clip0_543_155)">
<path d="M20.3998 17.6484V21.86C20.4002 21.9575 20.3741 22.0533 20.3242 22.1371C20.2743 22.2209 20.2025 22.2894 20.1166 22.3355C20.0306 22.3816 19.9338 22.4033 19.8364 22.3985C19.739 22.3937 19.6448 22.3624 19.5638 22.308L17.7718 21.1164C17.7206 21.0832 17.6609 21.0654 17.5998 21.0654C17.5388 21.0654 17.479 21.0832 17.4278 21.1164L15.6358 22.308C15.5549 22.3624 15.4606 22.3937 15.3632 22.3985C15.2659 22.4033 15.169 22.3816 15.0831 22.3355C14.9971 22.2894 14.9253 22.2209 14.8754 22.1371C14.8255 22.0533 14.7994 21.9575 14.7998 21.86V17.6484H20.3998Z" fill="#F05D2A"/>
<path d="M23.5879 5.59961C23.5653 5.44575 23.497 5.30223 23.3919 5.18761L20.4199 1.87161C20.3046 1.74394 20.1521 1.65577 19.9839 1.61961C19.9274 1.60681 19.8698 1.60011 19.8119 1.59961H4.18789C4.13 1.60011 4.07234 1.60681 4.01589 1.61961C3.84771 1.65577 3.69517 1.74394 3.57989 1.87161L0.607886 5.18761C0.502785 5.30223 0.434506 5.44575 0.411886 5.59961C0.391601 5.71398 0.396102 5.83137 0.425085 5.94385C0.454068 6.05633 0.506857 6.16128 0.579886 6.25161L11.3639 19.6916C11.4398 19.7876 11.5364 19.8652 11.6466 19.9185C11.7567 19.9718 11.8775 19.9995 11.9999 19.9995C12.1223 19.9995 12.243 19.9718 12.3532 19.9185C12.4633 19.8652 12.56 19.7876 12.6359 19.6916L14.4719 17.3996L21.2559 8.94761L23.4199 6.25161C23.4929 6.16128 23.5457 6.05633 23.5747 5.94385C23.6037 5.83137 23.6082 5.71398 23.5879 5.59961Z" fill="#66CAA4"/>
<path d="M23.42 6.25161L21.256 8.94761L14.472 17.3996L12.636 19.6916C12.5599 19.7874 12.4633 19.8649 12.3532 19.9182C12.2431 19.9715 12.1223 19.9994 12 19.9996L13.192 16.0956L15.748 7.73161L16.4 5.59961H23.588C23.6083 5.71398 23.6038 5.83137 23.5748 5.94385C23.5458 6.05633 23.493 6.16128 23.42 6.25161Z" fill="#56B38F"/>
<path d="M11.9999 19.9996C11.8775 19.9994 11.7568 19.9715 11.6467 19.9182C11.5366 19.8649 11.4399 19.7874 11.3639 19.6916L0.579886 6.25161C0.506857 6.16128 0.454068 6.05633 0.425085 5.94385C0.396102 5.83137 0.391601 5.71398 0.411886 5.59961H7.59989L11.9999 19.9996Z" fill="#56B38F"/>
<path d="M11.9996 1.59961L7.59963 5.59961L4.01562 1.61961C4.07208 1.60681 4.12974 1.60011 4.18763 1.59961H11.9996Z" fill="#76E4C1"/>
<path d="M19.984 1.61961L16.4 5.59961L12 1.59961H19.812C19.8699 1.60011 19.9275 1.60681 19.984 1.61961Z" fill="#76E4C1"/>
<path d="M16.3996 5.59961L15.7476 7.73161L13.1916 16.0956L11.9996 19.9996L7.59961 5.59961H16.3996Z" fill="#76E4C1"/>
<path d="M22.9328 13.7028C22.7445 13.9947 22.6525 14.3383 22.6696 14.6852V14.6872C22.6858 15.0064 22.6093 15.3235 22.4494 15.6003C22.2895 15.8771 22.053 16.1017 21.7684 16.2472C21.459 16.4059 21.2071 16.6577 21.0484 16.9672C20.903 17.2519 20.6783 17.4884 20.4016 17.6483C20.1248 17.8083 19.8077 17.8849 19.4884 17.8688H19.4864C19.1395 17.8515 18.7959 17.9436 18.504 18.132L18.5004 18.134C18.2323 18.3074 17.9198 18.3997 17.6004 18.3997C17.2811 18.3997 16.9686 18.3074 16.7004 18.134L16.6968 18.132C16.405 17.9437 16.0614 17.8516 15.7144 17.8688H15.7124C15.3932 17.885 15.0761 17.8085 14.7994 17.6486C14.5226 17.4887 14.2979 17.2522 14.1524 16.9676C13.9938 16.6581 13.7419 16.4063 13.4324 16.2476C13.1478 16.1021 12.9113 15.8775 12.7513 15.6007C12.5913 15.324 12.5148 15.0069 12.5308 14.6876V14.6856C12.5481 14.3387 12.4561 13.995 12.2676 13.7032V13.6996C12.0942 13.4315 12.002 13.1189 12.002 12.7996C12.002 12.4803 12.0942 12.1677 12.2676 11.8996V11.896C12.456 11.6041 12.548 11.2605 12.5308 10.9136C12.5147 10.5944 12.5912 10.2773 12.7511 10.0005C12.911 9.72376 13.1474 9.4991 13.432 9.35361C13.7415 9.19494 13.9934 8.94309 14.152 8.63361C14.2975 8.34897 14.5222 8.11243 14.7989 7.95247C15.0757 7.79252 15.3928 7.71596 15.712 7.73201H15.714C16.061 7.74931 16.4046 7.65725 16.6964 7.46881H16.7C16.9682 7.29539 17.2807 7.20313 17.6 7.20312C17.9194 7.20312 18.2319 7.29539 18.5 7.46881H18.5036C18.7955 7.65715 19.1391 7.7492 19.486 7.73201H19.488C19.8073 7.71587 20.1244 7.79235 20.4011 7.95224C20.6779 8.11213 20.9025 8.34861 21.048 8.63321C21.2067 8.94269 21.4586 9.19454 21.768 9.35321C22.0527 9.49868 22.2892 9.72332 22.4492 10.0001C22.6091 10.2769 22.6857 10.594 22.6696 10.9132C22.6523 11.2602 22.7444 11.6038 22.9328 11.8956C23.1069 12.1648 23.1995 12.4786 23.1995 12.7992C23.1995 13.1198 23.1069 13.4336 22.9328 13.7028Z" fill="#FFD2C2"/>
<path d="M17.6 16.4C19.5882 16.4 21.2 14.7882 21.2 12.8C21.2 10.8117 19.5882 9.19995 17.6 9.19995C15.6118 9.19995 14 10.8117 14 12.8C14 14.7882 15.6118 16.4 17.6 16.4Z" fill="#F05D2A"/>
<path d="M16.8 14.3997C16.7474 14.3998 16.6954 14.3895 16.6468 14.3694C16.5983 14.3493 16.5542 14.3197 16.5172 14.2825L16.1172 13.8825C16.0443 13.807 16.004 13.706 16.0049 13.6011C16.0058 13.4962 16.0479 13.3959 16.122 13.3217C16.1962 13.2476 16.2965 13.2055 16.4014 13.2046C16.5063 13.2037 16.6073 13.244 16.6828 13.3169L16.7732 13.4073L18.4932 11.3433C18.5612 11.2617 18.6588 11.2105 18.7646 11.2009C18.8703 11.1913 18.9756 11.2241 19.0572 11.2921C19.1387 11.3601 19.19 11.4577 19.1996 11.5635C19.2092 11.6692 19.1764 11.7745 19.1084 11.8561L17.1084 14.2561C17.0726 14.2986 17.0284 14.3333 16.9786 14.358C16.9287 14.3826 16.8743 14.3967 16.8188 14.3993L16.8 14.3997Z" fill="white"/>
</g>
<defs>
<clipPath id="clip0_543_155">
<rect width="24" height="24" fill="white"/>
</clipPath>
</defs>
</svg>
