<svg width="24" height="24" viewBox="0 0 24 24" fill="none" xmlns="http://www.w3.org/2000/svg">
<g clip-path="url(#clip0_543_94)">
<path d="M16.8282 21.8066C16.3407 21.4738 15.7547 21.1316 16.2891 20.6488C16.9266 20.0066 16.8188 19.2285 16.1204 18.6613C15.0891 17.8129 15.225 16.5941 15.811 15.3801L15.0235 15.2441C14.3672 16.6973 14.4282 18.2629 15.5954 19.2098C16.05 19.627 16.0688 19.7582 15.7172 20.152C14.7704 21.1551 15.6516 22.0129 16.5704 22.5473C15.4688 22.6129 14.6063 22.5754 13.0032 22.9223C12.2297 23.0957 11.536 23.3348 10.7672 23.1238C10.0454 22.9316 9.69849 22.6598 9.67974 22.5285L8.92505 22.5848C8.98599 23.3254 9.98442 23.6957 10.5704 23.8504C11.4657 24.0988 12.3 23.8598 13.1579 23.6582C14.3719 23.3863 15.3422 23.3535 16.0547 23.3301C16.8844 23.302 17.4329 23.2785 17.5313 22.777C17.6297 22.3316 17.2219 22.0645 16.8282 21.8066Z" fill="#FFB09E"/>
<path d="M6.64642 13.4772C7.57454 14.3444 8.10892 15.5491 8.07142 16.8147H6.64173C6.68392 15.5491 6.14954 14.3444 5.21673 13.4772C1.05423 9.5725 4.29329 2.52719 10.0261 3.18344C5.00579 3.78813 2.97142 10.0741 6.64642 13.4772Z" fill="#FB6514" fill-opacity="0.43"/>
<path d="M12.3191 12.2727L13.3034 13.5711C12.4081 14.3914 11.9488 15.5961 11.9816 16.8148H8.07689C8.11907 15.5492 7.5847 14.3445 6.65188 13.4773C2.9722 10.0742 5.01126 3.78359 10.0316 3.18359C12.4972 3.47891 14.5081 5.27422 15.1081 7.63672C12.6988 8.89297 10.2941 10.1445 7.88001 11.4008L12.3191 12.2727Z" fill="#F05D2A"/>
<path d="M12.759 17.7707C12.759 18.3004 12.3324 18.727 11.8027 18.727H6.81522C6.17772 18.741 5.69491 18.0707 5.91053 17.4707C6.03709 17.8504 6.39803 18.1223 6.81522 18.1223H11.8027C12.2199 18.1223 12.5808 17.8551 12.7074 17.4707C12.7402 17.5645 12.759 17.6676 12.759 17.7707Z" fill="#00C285"/>
<path d="M12.7078 17.4707C12.5812 17.8551 12.2203 18.1223 11.8031 18.1223H6.81558C6.3937 18.1223 6.03745 17.8504 5.91089 17.4707C6.04214 17.0863 6.39839 16.8191 6.81558 16.8145H11.8031C12.225 16.8145 12.5812 17.091 12.7078 17.4707Z" fill="#05E39C"/>
<path d="M12.7593 19.6828C12.7593 20.2078 12.3327 20.6391 11.803 20.6391H6.81554C6.17335 20.6531 5.69523 19.9828 5.91085 19.3828C6.03741 19.7625 6.39366 20.0344 6.81554 20.0344H11.803C12.2202 20.0344 12.5765 19.7672 12.7077 19.3828C12.7405 19.4766 12.7593 19.575 12.7593 19.6828Z" fill="#00C285"/>
<path d="M12.708 19.3828C12.5768 19.7672 12.2205 20.0344 11.8033 20.0344H6.81582C6.39395 20.0344 6.0377 19.7625 5.91113 19.3828C6.0377 18.9937 6.39863 18.7312 6.81582 18.7266H11.8033C12.2205 18.7266 12.5814 19.0031 12.708 19.3828Z" fill="#05E39C"/>
<path d="M11.1093 20.916V21.5957C11.1093 22.1254 10.6828 22.552 10.1531 22.552H8.46089C7.9312 22.552 7.50464 22.1254 7.50464 21.5957V20.916C7.50464 21.4457 7.9312 21.8723 8.46089 21.8723H10.1531C10.6828 21.8723 11.1093 21.4457 11.1093 20.916Z" fill="#00C285"/>
<path d="M11.1093 20.6394V20.916C11.1093 21.4457 10.6828 21.8722 10.1531 21.8722H8.46089C7.9312 21.8722 7.50464 21.4457 7.50464 20.916V20.6394H11.1093Z" fill="#05E39C"/>
<path d="M23.7422 3.14062C22.6359 6.71719 21.5297 10.2984 20.4281 13.875C19.2609 13.6453 16.8984 13.1812 15.7406 12.9516C17.0531 11.0812 18.3703 9.21094 19.6781 7.34063C17.9297 8.5125 14.025 11.1281 12.3141 12.2766L7.875 11.4C13.1672 8.64844 18.4547 5.89687 23.7422 3.14062Z" fill="#E1F7FF"/>
<path d="M17.9203 13.3832L15.1406 16.0082L15.7406 12.9519L17.9203 13.3832Z" fill="#8AC9FE"/>
<path d="M19.6871 7.33594C18.3699 9.20625 17.0574 11.0766 15.7449 12.9516L15.1402 16.0078C14.5027 15.1594 12.9371 13.0922 12.3184 12.2719C14.0152 11.1375 17.948 8.49844 19.6871 7.33594Z" fill="#C8EFFE"/>
<path d="M9.30933 1.9832C9.10308 1.9832 8.93433 1.81445 8.93433 1.6082V0.417578C8.9437 -0.0792969 9.67964 -0.0792969 9.68901 0.417578V1.60352C9.68901 1.81445 9.52026 1.9832 9.30933 1.9832Z" fill="#F05D2A"/>
<path d="M3.17319 15.61C2.84975 15.6194 2.66694 15.1881 2.906 14.9678L3.74506 14.1288C3.89038 13.9834 4.12944 13.9834 4.27944 14.1288C4.42475 14.2741 4.42475 14.5131 4.27944 14.6631L3.44038 15.5022C3.37006 15.5725 3.27163 15.61 3.17319 15.61Z" fill="#F05D2A"/>
<path d="M14.6061 4.17715C14.2826 4.18652 14.0998 3.75527 14.3389 3.53496L15.1779 2.6959C15.3232 2.55059 15.5623 2.55059 15.7123 2.6959C15.8576 2.84121 15.8576 3.08027 15.7123 3.23027L14.8732 4.06934C14.7982 4.13965 14.7045 4.17715 14.6061 4.17715Z" fill="#F05D2A"/>
<path d="M1.81875 9.47388H0.632812C0.426562 9.47388 0.257812 9.30513 0.257812 9.09888C0.257812 8.89263 0.426562 8.72388 0.632812 8.72388H1.81875C2.31562 8.72856 2.31562 9.4645 1.81875 9.47388Z" fill="#F05D2A"/>
<path d="M4.01211 4.17695C3.91367 4.17695 3.81992 4.13945 3.74492 4.06445L2.90586 3.22539C2.76055 3.08008 2.76055 2.84102 2.90586 2.69102C3.05117 2.5457 3.29023 2.5457 3.44023 2.69102L4.2793 3.53008C4.52305 3.75508 4.33555 4.18633 4.01211 4.17695Z" fill="#F05D2A"/>
<path d="M9.30933 1.9832C9.10308 1.9832 8.93433 1.81445 8.93433 1.6082V0.417578C8.9437 -0.0792969 9.67964 -0.0792969 9.68901 0.417578V1.60352C9.68901 1.81445 9.52026 1.9832 9.30933 1.9832Z" fill="#F05D2A"/>
</g>
<defs>
<clipPath id="clip0_543_94">
<rect width="24" height="24" fill="white"/>
</clipPath>
</defs>
</svg>
