<svg width="50" height="50" viewBox="0 0 50 50" fill="none" xmlns="http://www.w3.org/2000/svg">
<path d="M33.545 21.6016C28.8282 16.8848 21.1817 16.8848 16.4649 21.6016C11.7481 26.3184 11.7481 33.9649 16.4649 38.6817C21.1817 43.3985 28.8282 43.3985 33.545 38.6817C38.252 33.9649 38.252 26.3184 33.545 21.6016ZM19.6973 42.627C17.8223 41.8262 16.1524 40.6153 14.8243 39.1016L11.7676 44.3946L14.8731 43.9063C15.1368 43.8575 15.4102 43.9453 15.586 44.17L17.4805 46.4942L19.6973 42.627ZM35.1856 39.1016C33.8477 40.6153 32.1876 41.8262 30.3028 42.627L32.5294 46.4844L34.4239 44.1602C34.5997 43.9453 34.8731 43.8477 35.1368 43.8965L38.2422 44.3848L35.1856 39.1016ZM29.8145 25.3321C27.1583 22.6758 22.8516 22.6758 20.1954 25.3321C17.5391 27.9883 17.5391 32.295 20.1954 34.9512C22.8516 37.6075 27.1583 37.6075 29.8145 34.9512C32.4708 32.295 32.4708 27.9883 29.8145 25.3321ZM25.0001 21.8457C29.5801 21.8457 33.3008 25.5567 33.3008 30.1465C33.3008 34.7266 29.5899 38.4473 25.0001 38.4473C20.42 38.4473 16.6993 34.7364 16.6993 30.1465C16.709 25.5567 20.42 21.8457 25.0001 21.8457ZM21.1329 30.6934C20.9278 30.3321 21.045 29.8828 21.4063 29.6778C21.7676 29.4727 22.2169 29.5899 22.4219 29.9512L23.6133 32.0118L27.6954 27.9297C27.9883 27.6368 28.4669 27.6368 28.7501 27.9297C29.043 28.2227 29.043 28.6914 28.7501 28.9844L23.9844 33.75C23.6426 34.0918 23.0567 34.0235 22.8126 33.5938L21.1329 30.6934ZM42.2364 10.9766L43.711 14.0332L47.0704 14.4922C47.6465 14.5703 47.8516 15.2735 47.4512 15.6641L45.0001 18.0078L45.6055 21.3477C45.7032 21.9141 45.1075 22.334 44.6094 22.0703L41.6212 20.4688L38.6329 22.0703C38.1446 22.334 37.5098 21.9239 37.6465 21.3086L38.2422 18.0078L35.7911 15.6641C35.3809 15.2735 35.6055 14.5703 36.1817 14.4922L39.5313 14.0332L41.0059 10.9766C41.2501 10.459 41.9825 10.4688 42.2364 10.9766ZM8.9942 10.9766L10.4688 14.0332L13.8282 14.4922C14.3946 14.5703 14.6094 15.2735 14.209 15.6641L11.7579 18.0078L12.3633 21.3477C12.461 21.9141 11.8653 22.334 11.377 22.0703L8.38873 20.4688L5.40045 22.0703C4.91217 22.334 4.28717 21.9239 4.41412 21.3086L5.00982 18.0078L2.55865 15.6641C2.1485 15.2735 2.3731 14.5703 2.94928 14.4922L6.29889 14.0332L7.7735 10.9766C8.01764 10.459 8.75006 10.4688 8.9942 10.9766ZM25.6153 3.89652L27.0899 6.95316L30.4493 7.41214C31.0157 7.49027 31.2305 8.19339 30.8301 8.58402L28.379 10.9278L28.9844 14.2676C29.0821 14.834 28.4864 15.2539 27.9883 14.9903L25.0001 13.3789L22.0118 14.9805C21.5235 15.2442 20.8985 14.834 21.0254 14.2188L21.6212 10.918L19.17 8.57425C18.7598 8.18363 18.9844 7.4805 19.5606 7.40238L22.9102 6.94339L24.3848 3.88675C24.6387 3.37894 25.3711 3.38871 25.6153 3.89652Z" fill="url(#paint0_linear_65_6033)"/>
<defs>
<linearGradient id="paint0_linear_65_6033" x1="25.0001" y1="3.51263" x2="25.0001" y2="46.4874" gradientUnits="userSpaceOnUse">
<stop stop-color="#FBAF2C"/>
<stop offset="1" stop-color="#E03735"/>
</linearGradient>
</defs>
</svg>
